<svg id="그룹_719" data-name="그룹 719" xmlns="http://www.w3.org/2000/svg" xmlns:xlink="http://www.w3.org/1999/xlink" width="67.999" height="63.34" viewBox="0 0 67.999 63.34">
  <defs>
    <clipPath id="clip-path">
      <rect id="사각형_334" data-name="사각형 334" width="67.999" height="63.34" fill="none"/>
    </clipPath>
  </defs>
  <g id="그룹_718" data-name="그룹 718" clip-path="url(#clip-path)">
    <path id="패스_133" data-name="패스 133" d="M4.026,34.187v-9.4H55.712V39.675c0,11.7-7.434,20.258-15.612,20.258H20.939c-3.928,0-7.846-2.162-10.864-5.61" transform="translate(0.376 2.313)" fill="none" stroke="#313131" stroke-linecap="round" stroke-linejoin="round" stroke-width="2"/>
    <path id="패스_134" data-name="패스 134" d="M51.988,27.961a7.838,7.838,0,0,1,6.684,14.02L50.422,47.4" transform="translate(4.706 2.576)" fill="none" stroke="#313131" stroke-linecap="round" stroke-linejoin="round" stroke-width="2"/>
    <path id="패스_135" data-name="패스 135" d="M34.063,21.607s2.6-5.005-1.792-10.616A12.537,12.537,0,0,1,29.6,1" transform="translate(2.746 0.093)" fill="none" stroke="#313131" stroke-linecap="round" stroke-linejoin="round" stroke-width="2"/>
    <path id="패스_136" data-name="패스 136" d="M29.291,20.576s.388-2.509-3.027-4.454C23.24,14.4,22.9,12.047,22.9,12.047" transform="translate(2.137 1.124)" fill="none" stroke="#313131" stroke-linecap="round" stroke-linejoin="round" stroke-width="2"/>
    <path id="패스_137" data-name="패스 137" d="M19.508,25s-3.7-6.178-7.209-2.467C8.935,26.088,8.252,36.679,8.252,36.679" transform="translate(0.77 1.992)" fill="none" stroke="#313131" stroke-linecap="round" stroke-linejoin="round" stroke-width="2"/>
    <path id="패스_138" data-name="패스 138" d="M12.882,53.216,1,51.922,2.82,35.267l6.491-4.611,5.39,5.9Z" transform="translate(0.093 2.861)" fill="none" stroke="#313131" stroke-linecap="round" stroke-linejoin="round" stroke-width="2"/>
  </g>
</svg>
