<svg id="그룹_713" data-name="그룹 713" xmlns="http://www.w3.org/2000/svg" xmlns:xlink="http://www.w3.org/1999/xlink" width="65.858" height="63.011" viewBox="0 0 65.858 63.011">
  <defs>
    <clipPath id="clip-path">
      <rect id="사각형_332" data-name="사각형 332" width="65.858" height="63.011" fill="none"/>
    </clipPath>
  </defs>
  <line id="선_25" data-name="선 25" x2="16.025" transform="translate(24.917 10.309)" fill="none" stroke="#313131" stroke-linecap="round" stroke-linejoin="round" stroke-width="2"/>
  <line id="선_26" data-name="선 26" x2="16.025" transform="translate(24.917 19.136)" fill="none" stroke="#313131" stroke-linecap="round" stroke-linejoin="round" stroke-width="2"/>
  <line id="선_27" data-name="선 27" x2="7.225" transform="translate(24.917 27.964)" fill="none" stroke="#313131" stroke-linecap="round" stroke-linejoin="round" stroke-width="2"/>
  <g id="그룹_712" data-name="그룹 712" transform="translate(0 0)">
    <g id="그룹_711" data-name="그룹 711" clip-path="url(#clip-path)">
      <rect id="사각형_331" data-name="사각형 331" width="63.692" height="18.198" rx="2.1" transform="translate(1.083 37.756)" fill="none" stroke="#313131" stroke-linecap="round" stroke-linejoin="round" stroke-width="2"/>
      <path id="패스_126" data-name="패스 126" d="M13.6,37.4V3.275A2.281,2.281,0,0,1,15.875,1H47.721A2.281,2.281,0,0,1,50,3.275V37.4" transform="translate(1.131 0.083)" fill="none" stroke="#313131" stroke-linecap="round" stroke-linejoin="round" stroke-width="2"/>
      <path id="패스_127" data-name="패스 127" d="M51.487,42.785a1.015,1.015,0,1,1-1.015-1.015A1.016,1.016,0,0,1,51.487,42.785Z" transform="translate(4.115 3.475)" fill="none" stroke="#313131" stroke-linecap="round" stroke-linejoin="round" stroke-width="2"/>
      <path id="패스_128" data-name="패스 128" d="M51.213,51.656l4.549,5.974H8.656l4.549-5.974" transform="translate(0.72 4.298)" fill="none" stroke="#313131" stroke-linecap="round" stroke-linejoin="round" stroke-width="2"/>
      <path id="패스_129" data-name="패스 129" d="M8.771,35.6V22.553h4.654" transform="translate(0.73 1.876)" fill="none" stroke="#313131" stroke-linecap="round" stroke-linejoin="round" stroke-width="2"/>
      <path id="패스_130" data-name="패스 130" d="M52.386,35.6V22.553H47.732" transform="translate(3.971 1.876)" fill="none" stroke="#313131" stroke-linecap="round" stroke-linejoin="round" stroke-width="2"/>
    </g>
  </g>
</svg>
