<svg xmlns="http://www.w3.org/2000/svg" xmlns:xlink="http://www.w3.org/1999/xlink" width="65.1" height="64.183" viewBox="0 0 65.1 64.183">
  <defs>
    <clipPath id="clip-path">
      <rect id="사각형_337" data-name="사각형 337" width="65.1" height="64.183" transform="translate(0 0.001)" fill="none"/>
    </clipPath>
  </defs>
  <g id="그룹_722" data-name="그룹 722" transform="translate(0 0)">
    <g id="그룹_721" data-name="그룹 721" clip-path="url(#clip-path)">
      <path id="패스_139" data-name="패스 139" d="M49.174,9.318C49.174,4.437,45.219,1,40.338,1a8.83,8.83,0,0,0-8.059,5.221A8.828,8.828,0,0,0,24.22,1c-4.88,0-8.837,3.437-8.837,8.318a12.422,12.422,0,0,0,2.21,6.238c4.575,6.7,13.569,14.556,14.686,14.556,1.284,0,10.057-7.9,14.426-14.556A18.188,18.188,0,0,0,49.174,9.318Z" fill="none" stroke="#313131" stroke-linecap="round" stroke-linejoin="round" stroke-width="2"/>
      <path id="패스_140" data-name="패스 140" d="M55.1,54.334V50.289c0-1.579,5.518-8.783,7.912-13.008A8.559,8.559,0,0,0,64.1,33.07V11.805c0-3.1-2.426-5.591-5.212-5.093C56.677,7.106,55.1,9.4,55.1,11.961V23.234" fill="none" stroke="#313131" stroke-linecap="round" stroke-linejoin="round" stroke-width="2"/>
      <path id="패스_141" data-name="패스 141" d="M52.018,38.743l4.948-7.583a5.664,5.664,0,0,0-.71-6.654,4.036,4.036,0,0,0-6.491,1.051l-8.4,13.659A8.813,8.813,0,0,0,39.8,44.272V54.334" fill="none" stroke="#313131" stroke-linecap="round" stroke-linejoin="round" stroke-width="2"/>
      <rect id="사각형_335" data-name="사각형 335" width="19.8" height="8.85" rx="2" transform="translate(38 54.334)" fill="none" stroke="#313131" stroke-linecap="round" stroke-linejoin="round" stroke-width="2"/>
      <path id="패스_142" data-name="패스 142" d="M10,54.334V50.289c0-1.579-5.518-8.783-7.912-13.008A8.559,8.559,0,0,1,1,33.07V11.805C1,8.7,3.426,6.214,6.212,6.712,8.423,7.106,10,9.4,10,11.961V23.234" fill="none" stroke="#313131" stroke-linecap="round" stroke-linejoin="round" stroke-width="2"/>
      <path id="패스_143" data-name="패스 143" d="M13.083,38.743,8.134,31.16a5.664,5.664,0,0,1,.711-6.654,4.035,4.035,0,0,1,6.49,1.051l8.4,13.659A8.819,8.819,0,0,1,25.3,44.272V54.334" fill="none" stroke="#313131" stroke-linecap="round" stroke-linejoin="round" stroke-width="2"/>
      <rect id="사각형_336" data-name="사각형 336" width="19.8" height="8.85" rx="2" transform="translate(7.3 54.334)" fill="none" stroke="#313131" stroke-linecap="round" stroke-linejoin="round" stroke-width="2"/>
    </g>
  </g>
</svg>
