<svg id="그룹_696" data-name="그룹 696" xmlns="http://www.w3.org/2000/svg" xmlns:xlink="http://www.w3.org/1999/xlink" width="82.346" height="62.703" viewBox="0 0 82.346 62.703">
  <defs>
    <clipPath id="clip-path">
      <rect id="사각형_325" data-name="사각형 325" width="82.346" height="62.703" transform="translate(0 0)" fill="none"/>
    </clipPath>
  </defs>
  <g id="그룹_695" data-name="그룹 695" clip-path="url(#clip-path)">
    <path id="패스_92" data-name="패스 92" d="M43.252,56.684v2.51a2.51,2.51,0,0,1-5.02,0V54.533" fill="none" stroke="#313131" stroke-linecap="round" stroke-linejoin="round" stroke-width="2"/>
    <path id="패스_93" data-name="패스 93" d="M48.361,56.684H41.1a2.869,2.869,0,0,1-2.869-2.868V45.244a2.869,2.869,0,0,1,.61-1.768l3.693-4.719H74.8L78.5,43.476a2.868,2.868,0,0,1,.609,1.768v8.572a2.868,2.868,0,0,1-2.868,2.868H68.708" fill="none" stroke="#313131" stroke-linecap="round" stroke-linejoin="round" stroke-width="2"/>
    <path id="패스_94" data-name="패스 94" d="M79.105,54.532v4.661a2.51,2.51,0,1,1-5.019,0v-2.51" fill="none" stroke="#313131" stroke-linecap="round" stroke-linejoin="round" stroke-width="2"/>
    <path id="패스_95" data-name="패스 95" d="M42.535,38.757l2.878-8.917A2.868,2.868,0,0,1,48.09,28H69.248a2.868,2.868,0,0,1,2.677,1.839L74.8,38.757" fill="none" stroke="#313131" stroke-linecap="round" stroke-linejoin="round" stroke-width="2"/>
    <rect id="사각형_323" data-name="사각형 323" width="20.078" height="3.824" transform="translate(48.63 53.816)" fill="none" stroke="#313131" stroke-linecap="round" stroke-linejoin="round" stroke-width="2"/>
    <path id="패스_96" data-name="패스 96" d="M42.863,38.757H37.844a1.673,1.673,0,1,1,0-3.346h2.482a1.67,1.67,0,0,1,1.537,1.014Z" fill="none" stroke="#313131" stroke-linecap="round" stroke-linejoin="round" stroke-width="2"/>
    <path id="패스_97" data-name="패스 97" d="M74.654,38.757h5.019a1.673,1.673,0,1,0,0-3.346H77.191a1.67,1.67,0,0,0-1.537,1.014Z" fill="none" stroke="#313131" stroke-linecap="round" stroke-linejoin="round" stroke-width="2"/>
    <path id="패스_98" data-name="패스 98" d="M46.479,47.541a2.271,2.271,0,1,1-2.271-2.271A2.271,2.271,0,0,1,46.479,47.541Z" fill="none" stroke="#313131" stroke-linecap="round" stroke-linejoin="round" stroke-width="2"/>
    <path id="패스_99" data-name="패스 99" d="M75.4,47.541a2.271,2.271,0,1,1-2.271-2.271A2.271,2.271,0,0,1,75.4,47.541Z" fill="none" stroke="#313131" stroke-linecap="round" stroke-linejoin="round" stroke-width="2"/>
    <path id="패스_100" data-name="패스 100" d="M66.676,49.692H50.661l-1.434-4.3H68.11Z" fill="none" stroke="#313131" stroke-linecap="round" stroke-linejoin="round" stroke-width="2"/>
    <line id="선_14" data-name="선 14" x1="16.015" transform="translate(50.661 47.541)" fill="none" stroke="#313131" stroke-linecap="round" stroke-linejoin="round" stroke-width="2"/>
    <line id="선_15" data-name="선 15" y1="10.625" transform="translate(19.125 37.25)" fill="none" stroke="#313131" stroke-linecap="round" stroke-linejoin="round" stroke-width="2"/>
    <line id="선_16" data-name="선 16" y1="6.875" transform="translate(19.125 54.828)" fill="none" stroke="#313131" stroke-linecap="round" stroke-linejoin="round" stroke-width="2"/>
    <circle id="타원_5" data-name="타원 5" cx="18.125" cy="18.125" r="18.125" transform="translate(1 1)" fill="none" stroke="#313131" stroke-linecap="round" stroke-linejoin="round" stroke-width="2"/>
    <path id="패스_101" data-name="패스 101" d="M32.284,19.125A13.159,13.159,0,1,1,19.125,5.966,13.159,13.159,0,0,1,32.284,19.125Z" fill="none" stroke="#313131" stroke-linecap="round" stroke-linejoin="round" stroke-width="2"/>
    <rect id="사각형_324" data-name="사각형 324" width="21.25" height="6.25" transform="translate(8.5 47.875)" fill="none" stroke="#313131" stroke-linecap="round" stroke-linejoin="round" stroke-width="2"/>
    <path id="패스_102" data-name="패스 102" d="M15.811,26.417v-13h6.333a3.271,3.271,0,0,1,2.667,3.575,3.209,3.209,0,0,1-2.667,3.25H15.811" fill="none" stroke="#313131" stroke-linecap="round" stroke-linejoin="round" stroke-width="2"/>
  </g>
</svg>
