<?xml version="1.0" encoding="utf-8"?>
<!-- Generator: Adobe Illustrator 27.3.1, SVG Export Plug-In . SVG Version: 6.00 Build 0)  -->
<svg version="1.1" id="Icon_metro-calendar" xmlns="http://www.w3.org/2000/svg" xmlns:xlink="http://www.w3.org/1999/xlink"
	 x="0px" y="0px" viewBox="0 0 20 21.4" style="enable-background:new 0 0 20 21.4;" xml:space="preserve">
<style type="text/css">
	.st0{fill:#313131;}
</style>
<path id="Icon_metro-calendar-2" class="st0" d="M6.7,8h2.7v2.7H6.7V8z M10.7,8h2.7v2.7h-2.7V8z M14.7,8h2.7v2.7h-2.7V8z M2.7,16
	h2.7v2.7H2.7V16z M6.7,16h2.7v2.7H6.7V16z M10.7,16h2.7v2.7h-2.7V16z M6.7,12h2.7v2.7H6.7V12z M10.7,12h2.7v2.7h-2.7V12z M14.7,12
	h2.7v2.7h-2.7V12z M2.7,12h2.7v2.7H2.7V12z M17.4,0v1.3h-2.7V0H5.3v1.3H2.7V0H0v21.4h20V0H17.4L17.4,0z M18.7,20H1.3V5.3h17.4
	C18.7,5.3,18.7,20,18.7,20z"/>
</svg>
