<svg xmlns="http://www.w3.org/2000/svg" xmlns:xlink="http://www.w3.org/1999/xlink" width="76.583" height="48.006" viewBox="0 0 76.583 48.006">
  <defs>
    <clipPath id="clip-path">
      <rect id="사각형_333" data-name="사각형 333" width="76.583" height="48.006" fill="none"/>
    </clipPath>
  </defs>
  <g id="그룹_716" data-name="그룹 716" transform="translate(0 0)">
    <g id="그룹_715" data-name="그룹 715" transform="translate(0 0)" clip-path="url(#clip-path)">
      <path id="패스_131" data-name="패스 131" d="M8.186,39.487V3.409A2.416,2.416,0,0,1,10.595,1H63.583a2.416,2.416,0,0,1,2.409,2.409V39.487" transform="translate(1.203 0.147)" fill="none" stroke="#313131" stroke-linecap="round" stroke-linejoin="round" stroke-width="2"/>
      <path id="패스_132" data-name="패스 132" d="M74.034,34.556l-27.488.019a18.333,18.333,0,0,1-16.78.011l-27.388.019c-1.325,0-2.107,1.3-.4,2.358L9.2,41.782H67.009l7.226-4.817C75.941,36.111,75.358,34.556,74.034,34.556Z" transform="translate(0.147 5.077)" fill="none" stroke="#313131" stroke-linecap="round" stroke-linejoin="round" stroke-width="2"/>
    </g>
  </g>
</svg>
