<svg xmlns="http://www.w3.org/2000/svg" xmlns:xlink="http://www.w3.org/1999/xlink" width="93" height="93" viewBox="0 0 93 93">
  <defs>
    <filter id="사각형_18" x="0" y="0" width="93" height="93" filterUnits="userSpaceOnUse">
      <feOffset dy="3" input="SourceAlpha"/>
      <feGaussianBlur stdDeviation="4" result="blur"/>
      <feFlood flood-opacity="0.161"/>
      <feComposite operator="in" in2="blur"/>
      <feComposite in="SourceGraphic"/>
    </filter>
  </defs>
  <g id="그룹_35" data-name="그룹 35" transform="translate(12.487 9.487)">
    <g transform="matrix(1, 0, 0, 1, -12.49, -9.49)" filter="url(#사각형_18)">
      <rect id="사각형_18-2" data-name="사각형 18" width="69" height="69" transform="translate(12 9)" fill="#fff"/>
    </g>
    <path id="arrow-down" d="M0,1.1A1.063,1.063,0,0,1,.325.325,1.063,1.063,0,0,1,1.1,0a1.063,1.063,0,0,1,.779.325L16.551,14.993,30.992.552a1.1,1.1,0,0,1,1.558,0,1.063,1.063,0,0,1,.325.779,1.063,1.063,0,0,1-.325.779L17.329,17.329a1.1,1.1,0,0,1-1.558,0L.325,1.915a.759.759,0,0,1-.114-.146A1.111,1.111,0,0,1,.13,1.607L.066,1.445.017,1.282Z" transform="translate(42.043 17.911) rotate(90)"/>
  </g>
</svg>
