<svg id="Layer_1" data-name="Layer 1" xmlns="http://www.w3.org/2000/svg" viewBox="0 0 250 250"><defs><style>.cls-1{fill:#dc2828;}.cls-2{fill:#fff;}</style></defs><rect class="cls-1" width="250" height="250"/><path class="cls-2" d="M212.47,110.11c-1.21-.27-3.63-.86-4.83-1.16-2.21-.55-3.22-1.48-3.22-2.82,0-1.55,1.8-2.68,4.29-2.68a4.28,4.28,0,0,1,4.42,3.35h6c-.24-5.49-5.49-8.88-10.39-8.88-6,0-10.25,3.67-10.25,8.91,0,4.12,2.59,6.65,7.4,7.74,1.13.26,3.38.9,4.52,1.16,2.51.58,3.66,1.34,3.66,2.7,0,2.09-2.39,3-4.75,3-3.42,0-5.32-1.24-5.8-3.79h-6c.65,6.89,6.76,9.43,11.78,9.43,6.3,0,10.71-3.71,10.71-9C220,113.85,217.38,111.19,212.47,110.11Z" transform="translate(0 -0.5)"/><path class="cls-2" d="M120.13,97.92a8.73,8.73,0,0,0-7.48,4.65A8,8,0,0,0,105,97.92a7.4,7.4,0,0,0-6.51,3.54V98.61h-6v27.78h6.23V112.78c-.11-4,.53-6.77,1.92-8.19a3.92,3.92,0,0,1,3-1.17c4.51,0,4.37,5.31,4.37,5.91v17.06h6.23V112.1c0-4.51.62-8.68,5.1-8.68a3.79,3.79,0,0,1,3.61,2.2,9.76,9.76,0,0,1,.65,3.94v16.83h6.22V109.68c0-4-.53-6.09-2-8.17A9.62,9.62,0,0,0,120.13,97.92Z" transform="translate(0 -0.5)"/><path class="cls-2" d="M74.78,97.91A14.6,14.6,0,1,0,89.05,112.5,14.28,14.28,0,0,0,74.78,97.91Zm0,23.36c-4.66,0-8-3.66-8-8.82s3.23-8.71,8-8.71,8,3.56,8,8.71S79.44,121.27,74.78,121.27Z" transform="translate(0 -0.5)"/><path class="cls-2" d="M154.31,106.73c0-5.17-4-8.81-9.51-8.81h-.12a9.61,9.61,0,0,0-9.71,9.54h6a3.63,3.63,0,0,1,1.13-2.63,3.86,3.86,0,0,1,2.71-1.09,3.24,3.24,0,0,1,3.56,3.34c0,1.69-1.22,2.85-3.21,4.78-2.51,2.43-10.41,9.75-10.41,9.75v4.78h19.59v-5.81H143.8l6.56-6.12C152.43,112.48,154.31,110.27,154.31,106.73Z" transform="translate(0 -0.5)"/><path class="cls-2" d="M181.91,107.24c2,0,3-2,3-4.61s-1-4.71-3-4.71-3,2.12-3,4.71S179.88,107.24,181.91,107.24Z" transform="translate(0 -0.5)"/><path class="cls-2" d="M170.93,107.24c2,0,3-2,3-4.61s-1-4.71-3-4.71-3,2.12-3,4.71S168.9,107.24,170.93,107.24Z" transform="translate(0 -0.5)"/><path class="cls-2" d="M176.42,121.09c-7.09,0-12.3-4.71-12.3-11.2h-6.23c0,9.81,8,17.21,18.53,17.21S195,119.7,195,109.89h-6.23C188.72,116.38,183.51,121.09,176.42,121.09Z" transform="translate(0 -0.5)"/><path class="cls-2" d="M44.67,121.28c-4.56-.12-8-3.84-8-8.77s3.37-8.68,8-8.77a7.72,7.72,0,0,1,6.85,4.12h6.29c-.34-2.92-2.35-5.38-4.72-7.16a14.12,14.12,0,0,0-18.54,1.48,14.89,14.89,0,0,0-4.11,10.43,14.52,14.52,0,0,0,4.13,10.29,14.23,14.23,0,0,0,20.19,0,9.86,9.86,0,0,0,3.1-5.75H51.51A7.9,7.9,0,0,1,44.67,121.28Z" transform="translate(0 -0.5)"/><path class="cls-2" d="M37.41,136.48v9.29h10.1v-9.29h4v22.34h-4v-9.35H37.41v9.35h-4V136.48Z" transform="translate(0 -0.5)"/><path class="cls-2" d="M55.08,150.91a8.11,8.11,0,1,1,8.11,8.29A8,8,0,0,1,55.08,150.91Zm12.46-.1a4.36,4.36,0,1,0-8.7,0c0,2.82,1.72,5,4.35,5S67.54,153.63,67.54,150.81Z" transform="translate(0 -0.5)"/><path class="cls-2" d="M78,135.86v23h-3.6v-23Z" transform="translate(0 -0.5)"/><path class="cls-2" d="M81.24,150.87c0-4.66,3.1-8.16,7-8.16a6.2,6.2,0,0,1,4.47,1.78v-8.63h3.6v23h-3.6v-1.69h-.15a5.5,5.5,0,0,1-4.32,2C84.21,159.13,81.24,155.44,81.24,150.87Zm11.55.07c0-2.85-1.47-4.79-3.91-4.79s-3.82,2.1-3.82,4.76c0,2.87,1.59,4.78,3.82,4.78C91.35,155.69,92.79,153.66,92.79,150.94Z" transform="translate(0 -0.5)"/><path class="cls-2" d="M99.92,138.52a2.35,2.35,0,1,1,2.35,2.34A2.32,2.32,0,0,1,99.92,138.52Zm4.16,4.66v15.64h-3.6V143.18Z" transform="translate(0 -0.5)"/><path class="cls-2" d="M112.12,143.18v1.44a6.14,6.14,0,0,1,4.45-1.85,6,6,0,0,1,6,5.88v10.17H119V150c0-2.29-1.32-3.69-3.32-3.69a3.62,3.62,0,0,0-3.57,3.78v8.76h-3.59V143.18Z" transform="translate(0 -0.5)"/><path class="cls-2" d="M126.17,160l3.85-.66a3.94,3.94,0,0,0,3.6,1.79c1.94,0,3.63-1.1,3.63-3.26v-1.4h-.1a6.09,6.09,0,0,1-4.53,1.78c-3.73,0-7-3.26-7-7.79s3.22-7.76,6.92-7.76a6.32,6.32,0,0,1,4.66,1.88v-1.41h3.57V157.7c0,3.81-2.57,6.82-7.33,6.82C129.3,164.52,126.86,162.17,126.17,160Zm11.14-9.51c0-2.5-1.72-4.48-3.82-4.48-2.44,0-4.1,1.85-4.1,4.51,0,2.85,1.66,4.32,4.1,4.32C135.56,154.85,137.31,153.1,137.31,150.5Z" transform="translate(0 -0.5)"/><path class="cls-2" d="M143.41,154.41l3.6-.69a4.29,4.29,0,0,0,3.91,2.29c1.72,0,2.79-.75,2.79-1.69,0-1.22-1.72-1.66-3-2l-2-.54c-2-.53-4.25-1.59-4.25-4.41s2.78-4.69,6-4.69c3.51,0,6,2.28,6.54,4.32l-3.35.65a3.57,3.57,0,0,0-3.25-1.91c-1.28,0-2.28.63-2.28,1.54s1.06,1.31,2.44,1.69l1.72.47c2.53.69,5,1.81,5,4.69,0,3.16-3.31,5.07-6.41,5C147.07,159.17,144.29,157,143.41,154.41Z" transform="translate(0 -0.5)"/></svg>