<svg id="Layer_1" data-name="Layer 1" xmlns="http://www.w3.org/2000/svg" viewBox="0 0 250 250"><defs><style>.cls-1{fill:#2483c5;}.cls-2{fill:#fff;}</style></defs><rect class="cls-1" width="250" height="250"/><path class="cls-2" d="M48.43,129.73a9.31,9.31,0,0,0-1.51-3.18,5.61,5.61,0,0,0-1.11-1.12A9.17,9.17,0,0,0,40,123.71H30v.18h0V150.4h0v.17H40a9.22,9.22,0,0,0,5.86-1.71,6.19,6.19,0,0,0,1.11-1.12,9.45,9.45,0,0,0,1.51-3.19,20.22,20.22,0,0,0,.65-5.46V135.2A20.35,20.35,0,0,0,48.43,129.73Zm-6.72,6.68v2c0,1.44-.05,2.68-.14,3.71,0,.5-.06.91-.1,1.23a5,5,0,0,1-.68,2.14,1.71,1.71,0,0,1-1.19.68,1.55,1.55,0,0,1-.29,0h-2v-.11h0v-18h0V128h2a1.55,1.55,0,0,1,.29,0,1.68,1.68,0,0,1,1.19.69,4.94,4.94,0,0,1,.68,2.14c0,.32.07.73.1,1.22.09,1,.14,2.28.14,3.72Z" transform="translate(0 -0.5)"/><polygon class="cls-2" points="71.62 123.21 62.79 123.21 56.8 150.07 63.02 150.07 67.07 127.75 70.03 150.07 77.03 150.07 71.62 123.21"/><path class="cls-2" d="M132,123.71h-6.83v20.6c0,1.68-1,2.2-2.31,2.2s-2.31-.52-2.31-2.2v-20.6h-6.9v20.52a5.9,5.9,0,0,0,2.17,4.86c1.42,1.13,3.85,1.71,7.22,1.71a14.49,14.49,0,0,0,6.64-1.28c1.66-.86,2.5-2.5,2.5-4.87V123.71Z" transform="translate(0 -0.5)"/><path class="cls-2" d="M101.5,124.17A12.27,12.27,0,0,0,97,123c-.68-.06-1.38-.09-2.14-.09a24,24,0,0,0-2.49.12,9.1,9.1,0,0,0-4.73,1.59,5.92,5.92,0,0,0-2.16,4.86v14.76a5.92,5.92,0,0,0,2.16,4.86,9.11,9.11,0,0,0,4.73,1.58,23.89,23.89,0,0,0,2.49.13c.76,0,1.46,0,2.14-.1a12.27,12.27,0,0,0,4.51-1.18c1.65-.86,2.5-2.5,2.5-4.87v-15.6C104,126.67,103.15,125,101.5,124.17Zm-6.83,22.34c-1.27,0-2.31-.52-2.31-2.2V129.38c0-1.68,1-2.19,2.31-2.19s2.32.51,2.32,2.19v14.93C97,146,96,146.51,94.67,146.51Z" transform="translate(0 -0.5)"/><path class="cls-2" d="M77.32,89c14.54,2,7.51,21,21.44,25,4,1.16,8.58-.23,13.33-2.84a25.09,25.09,0,0,1-2.84-2.72c-2.7-3-5.52-6.38-8.5-9.83C87.13,82.8,77.32,89,77.32,89Z" transform="translate(0 -0.5)"/><path class="cls-2" d="M110.11,106.27c8,8.51,15,13.44,23,9.09,13.1-7.15,16.26-31.89,35.65-37.58C147.17,71.48,126.38,97.34,110.11,106.27Z" transform="translate(0 -0.5)"/><path class="cls-2" d="M147.73,150h-2.94V126.69h-6.51V124h16v2.71h-6.52Z" transform="translate(0 -0.5)"/><path class="cls-2" d="M159.23,124H174.7v2.71H162.16v8.48h12.23v2.71H162.16v9.45H175V150H159.23Z" transform="translate(0 -0.5)"/><path class="cls-2" d="M190.91,126.31c-5.15,0-8.9,5.11-8.9,10.67s3.73,10.66,8.9,10.66c4.37,0,6.84-3.54,7.74-5.38h2.77c-1.6,4.55-5.56,8.4-10.51,8.4-6.28,0-11.4-6.11-11.4-13.68s5.12-13.69,11.4-13.69c5,0,8.88,3.86,10.51,8.44h-2.74C197.63,129.82,195.36,126.31,190.91,126.31Z" transform="translate(0 -0.5)"/><path class="cls-2" d="M221,137.88H209.48V150h-3V124h3v11.19H221V124h3V150h-3Z" transform="translate(0 -0.5)"/></svg>