<svg id="Layer_1" data-name="Layer 1" xmlns="http://www.w3.org/2000/svg" viewBox="0 0 250 250"><defs><style>.cls-1{fill:#fee500;}</style></defs><rect class="cls-1" width="250" height="250"/><g id="kakao_CI_BI" data-name="kakao CI/BI"><path d="M49.37,147.18H43.49V97.82l5.88-1.28Zm15.71-35.82,4.6,3.32L58.37,128.86l13.1,15.7-4.54,3.52L51.48,129.17Z" transform="translate(0 -0.5)"/><path d="M76.67,137.8q0-5.31,3.54-8.08t10.31-2.78h6.77V124.7q0-8.1-7.15-8.1a19.89,19.89,0,0,0-4.82.63,27.93,27.93,0,0,0-4.63,1.6L79,114.68a24,24,0,0,1,5.65-2.27,23.24,23.24,0,0,1,5.9-.8q12.39,0,12.39,13.22v22.35H98.57l-.7-3.83a21,21,0,0,1-5.59,3.26,15.78,15.78,0,0,1-5.65,1.15,9.17,9.17,0,0,1-10-10Zm11,5.23a10.16,10.16,0,0,0,2.51-.32,20.2,20.2,0,0,0,2.61-.83,14,14,0,0,0,4.48-2.81V130.9h-6.1c-3.1,0-5.35.53-6.77,1.6a5.88,5.88,0,0,0-2.13,5Q82.29,143,87.69,143Z" transform="translate(0 -0.5)"/><path d="M119.24,147.18h-5.87V97.82l5.87-1.28ZM135,111.36l4.6,3.32-11.3,14.18,13.08,15.7-4.53,3.52-15.45-18.91Z" transform="translate(0 -0.5)"/><path d="M146.54,137.8q0-5.31,3.54-8.08t10.31-2.78h6.77V124.7q0-8.1-7.15-8.1a19.89,19.89,0,0,0-4.82.63,27.62,27.62,0,0,0-4.63,1.6l-1.72-4.15a24.2,24.2,0,0,1,5.65-2.27,23.24,23.24,0,0,1,5.9-.8q12.39,0,12.39,13.22v22.35h-4.34l-.7-3.83a21,21,0,0,1-5.59,3.26,15.78,15.78,0,0,1-5.65,1.15,9.17,9.17,0,0,1-10-10Zm11,5.23a10.11,10.11,0,0,0,2.51-.32,20.2,20.2,0,0,0,2.61-.83,14,14,0,0,0,4.48-2.81V130.9h-6.1c-3.1,0-5.35.53-6.77,1.6a5.88,5.88,0,0,0-2.13,5Q152.16,143,157.56,143Z" transform="translate(0 -0.5)"/><path d="M196.42,111.68q7.28,0,11.43,4.72T212,129.94q0,8.69-4.12,13.35c-2.74,3.1-6.57,4.66-11.46,4.66s-8.67-1.56-11.43-4.66-4.15-7.56-4.15-13.35,1.39-10.39,4.18-13.54S191.61,111.68,196.42,111.68Zm0,4.72a8.14,8.14,0,0,0-7.06,3.45q-2.46,3.45-2.46,10.09t2.46,9.93a9.18,9.18,0,0,0,14.18,0q2.46-3.35,2.46-9.93t-2.46-10.09A8.21,8.21,0,0,0,196.42,116.4Z" transform="translate(0 -0.5)"/></g></svg>