<?xml version="1.0" encoding="utf-8"?>
<!-- Generator: Adobe Illustrator 26.0.2, SVG Export Plug-In . SVG Version: 6.00 Build 0)  -->
<svg version="1.1" id="Layer_1" xmlns="http://www.w3.org/2000/svg" xmlns:xlink="http://www.w3.org/1999/xlink" x="0px" y="0px"
	 viewBox="0 0 250 250" style="enable-background:new 0 0 250 250;" xml:space="preserve">
<style type="text/css">
	.st0{fill:#14F078;}
	.st1{clip-path:url(#SVGID_00000134220427595600371870000003155895153607281822_);fill:#FFFFFF;}
</style>
<rect y="0.5" class="st0" width="250" height="250"/>
<g>
	<defs>
		<rect id="SVGID_1_" x="34.96" y="107.71" width="181.04" height="35.58"/>
	</defs>
	<clipPath id="SVGID_00000074435374136257761260000009179149786065760647_">
		<use xlink:href="#SVGID_1_"  style="overflow:visible;"/>
	</clipPath>
	<path style="clip-path:url(#SVGID_00000074435374136257761260000009179149786065760647_);fill:#FFFFFF;" d="M49.23,134.97
		c0,1.3-0.33,2.28-0.98,2.93c-0.65,0.65-1.57,0.98-2.75,0.98c-1.27,0-2.2-0.36-2.8-1.07c-0.59-0.71-0.89-1.67-0.89-2.88v-26.53
		h-6.86v26.22c0,1.24,0.17,2.39,0.52,3.45c0.35,1.06,0.92,1.98,1.73,2.75c0.8,0.77,1.84,1.38,3.11,1.82
		c1.27,0.44,2.85,0.66,4.73,0.66c2.18,0,3.86-0.3,5.04-0.89c1.18-0.59,2.03-1.23,2.54-1.93c0.51,0.7,1.38,1.34,2.59,1.93
		c1.21,0.59,2.91,0.89,5.09,0.89c1.82,0,3.36-0.21,4.64-0.64c1.27-0.42,2.31-1.01,3.11-1.77c0.8-0.76,1.39-1.67,1.75-2.75
		c0.36-1.07,0.55-2.25,0.55-3.52v-26.22h-6.77v26.53c0,1.18-0.3,2.14-0.91,2.86c-0.61,0.73-1.54,1.09-2.82,1.09
		c-1.21,0-2.14-0.33-2.79-0.98c-0.65-0.65-0.98-1.63-0.98-2.93v-26.58h-6.86V134.97z M76.04,142.6h18.63v-4.36H82.85v-11.31h10.63
		v-4.45H82.85v-9.72h11.36v-4.36H76.04V142.6z M113.98,142.6h6.77v-26.58c0-1.27,0.33-2.24,0.98-2.91c0.65-0.67,1.58-1,2.79-1
		c1.27,0,2.21,0.36,2.82,1.07c0.61,0.71,0.91,1.69,0.91,2.93v26.49h6.82v-26.22c0-1.21-0.17-2.35-0.5-3.41
		c-0.33-1.06-0.89-1.98-1.68-2.75c-0.79-0.77-1.82-1.39-3.09-1.84c-1.27-0.45-2.86-0.68-4.77-0.68c-2.15,0-3.82,0.29-5.02,0.86
		c-1.2,0.58-2.07,1.26-2.61,2.04c-0.52-0.76-1.38-1.43-2.59-2.02c-1.21-0.59-2.89-0.89-5.04-0.89c-1.82,0-3.36,0.21-4.64,0.64
		c-1.27,0.43-2.32,1.02-3.14,1.77c-0.82,0.76-1.41,1.67-1.77,2.75c-0.36,1.08-0.55,2.25-0.55,3.52v26.22h6.82v-26.49
		c0-1.24,0.3-2.22,0.91-2.93c0.61-0.71,1.56-1.07,2.86-1.07c2.48,0,3.73,1.3,3.73,3.91V142.6z M148.61,127.65l2.36-14.9h2.45
		l2.36,14.9H148.61z M156.43,132.06l1.64,10.54h7.13l-5.91-34.21h-14.18l-5.82,34.21h7.09l1.59-10.54H156.43z M191.96,117.07
		c0-2.73-0.83-4.85-2.48-6.38c-1.65-1.53-4.34-2.29-8.07-2.29h-11.95v34.21h11.95c3.73,0,6.41-0.71,8.07-2.14
		c1.65-1.42,2.48-3.44,2.48-6.04V117.07z M176.28,112.75h4.64c1.67,0,2.79,0.38,3.36,1.14c0.58,0.76,0.86,1.86,0.86,3.32v16.58
		c0,1.55-0.36,2.67-1.09,3.39c-0.73,0.71-1.91,1.07-3.54,1.07h-4.23V112.75z M197.32,142.6H216v-4.36h-11.86v-11.31h10.72v-4.45
		h-10.72v-9.72h11.36v-4.36h-18.18V142.6z"/>
</g>
</svg>
