<svg id="Layer_1" data-name="Layer 1" xmlns="http://www.w3.org/2000/svg" viewBox="0 0 250 250"><defs><style>.cls-1{fill:#fff;}.cls-2{fill:#03cf5d;}</style></defs><rect class="cls-1" width="250" height="250"/><path class="cls-2" d="M85.5,107.64l-14,35.71H83.4l1.69-4.73H98.52l1.69,4.73h11.9l-14-35.71Zm2.31,22.41,4-11.16,4,11.16Z" transform="translate(0 -0.5)"/><polygon class="cls-2" points="161.64 129.29 177.92 129.29 177.92 120.71 161.64 120.71 161.64 115.9 178.09 115.9 178.09 107.14 150.26 107.14 150.26 142.85 178.44 142.85 178.44 134.1 161.64 134.1 161.64 129.29"/><polygon class="cls-2" points="126.28 130.62 117.88 107.14 105.98 107.14 119.98 142.85 132.59 142.85 146.59 107.14 134.69 107.14 126.28 130.62"/><polygon class="cls-2" points="56.27 126.25 42.97 107.14 31.95 107.14 31.95 142.85 43.5 142.85 43.5 123.74 56.8 142.85 67.83 142.85 67.83 107.14 56.27 107.14 56.27 126.25"/><path class="cls-2" d="M209,131.1l1.09-.45c4.15-1.74,6.26-5.5,6.26-10.27,0-4.51-1.65-7.84-4.89-9.91-3-1.93-6.93-2.83-12.31-2.83H184v35.71h11.21v-10h4l6.83,10H218Zm-7.77-6.83h-6.13v-7.52h6.13a3.76,3.76,0,0,1,0,7.52Z" transform="translate(0 -0.5)"/></svg>