<svg id="Layer_1" data-name="Layer 1" xmlns="http://www.w3.org/2000/svg" viewBox="0 0 250 250"><defs><style>.cls-1{fill:#fff;}.cls-2{fill:#101010;}</style></defs><rect class="cls-1" width="250" height="250"/><g id="Layer_2" data-name="Layer 2"><g id="레이어_1" data-name="레이어 1"><path class="cls-2" d="M160,109.58h40.18a1.85,1.85,0,0,0,1.85-1.85h0V85.35a1.85,1.85,0,0,0-1.83-1.87H147.66a3,3,0,0,0-2.16.93L130.86,99.8,116.2,84.39a3,3,0,0,0-2.15-.91H65.47a3,3,0,0,0-2.15.93L49.5,99a2.91,2.91,0,0,0-.82,2V163.8a1.87,1.87,0,0,0,1.86,1.87H72.92a1.85,1.85,0,0,0,1.85-1.85V113a3.09,3.09,0,0,1,3.08-3.08h23.9a3.1,3.1,0,0,1,3.09,3.08V163.8a1.86,1.86,0,0,0,1.78,1.87H129a1.87,1.87,0,0,0,1.87-1.87h0V149.38l14.64,15.41a2.94,2.94,0,0,0,2.16.93h52.49a1.85,1.85,0,0,0,1.85-1.85V141.42a1.85,1.85,0,0,0-1.85-1.85H160a3.09,3.09,0,0,1-3.08-3.08v-23.9A3.09,3.09,0,0,1,160,109.58Z" transform="translate(0 -0.5)"/></g></g></svg>