<svg id="Layer_1" data-name="Layer 1" xmlns="http://www.w3.org/2000/svg" viewBox="0 0 250 250"><defs><style>.cls-1{fill:#003492;}.cls-2{fill:#fff;}</style></defs><rect class="cls-1" width="250" height="250"/><g id="logo_samsung_white" data-name="logo samsung white"><g id="그룹_421" data-name="그룹 421"><path id="패스_40" data-name="패스 40" class="cls-2" d="M190,133.63l-.39-22.41h7v28.26h-10l-7-23.18h-.15l.38,23.18h-6.94V111.22h10.47l6.48,22.42Z" transform="translate(0 -0.5)"/><path id="패스_41" data-name="패스 41" class="cls-2" d="M63.12,113.87l-3.86,25.91H51.64l5.22-28.55H69.41l5.2,28.55H67l-3.76-25.9Z" transform="translate(0 -0.5)"/><path id="패스_42" data-name="패스 42" class="cls-2" d="M96,133.05l3.47-21.83H111l.62,28.55h-7l-.18-25.66h-.15L99.5,139.78H92.34l-4.71-25.66h-.15l-.18,25.66H80.24l.62-28.55h11.5l3.48,21.83Z" transform="translate(0 -0.5)"/><path id="패스_43" data-name="패스 43" class="cls-2" d="M39.77,131.72a3.82,3.82,0,0,1,.06,2.12,2.45,2.45,0,0,1-2.75,1.91,2.53,2.53,0,0,1-2.82-2.22,2.23,2.23,0,0,1,0-.37V130.4H26.68v2.2c0,6.37,5,8.29,10.25,8.29,5.11,0,9.3-1.76,10-6.53a14.14,14.14,0,0,0,0-4.68c-1.19-6-11.89-7.77-12.68-11.11a3.61,3.61,0,0,1,0-1.5,2.34,2.34,0,0,1,2.58-1.91,2.4,2.4,0,0,1,2.62,2.58v1.77h7v-2c0-6.22-5.52-7.19-9.51-7.19-5,0-9.11,1.68-9.87,6.34a9.79,9.79,0,0,0,.07,3.85C28.29,126.34,38.32,128,39.77,131.72Z" transform="translate(0 -0.5)"/><path id="패스_44" data-name="패스 44" class="cls-2" d="M131.46,131.66a3.81,3.81,0,0,1,0,2.09,2.41,2.41,0,0,1-2.72,1.9,2.51,2.51,0,0,1-2.79-2.18,2.38,2.38,0,0,1,0-.38v-2.74H118.5v2.18c0,6.31,4.9,8.21,10.14,8.21,5.05,0,9.21-1.74,9.87-6.46a13.84,13.84,0,0,0,0-4.63c-1.18-5.92-11.77-7.69-12.56-11a3.51,3.51,0,0,1,0-1.48,2.31,2.31,0,0,1,2.55-1.9,2.39,2.39,0,0,1,2.59,2.17,2.67,2.67,0,0,1,0,.4v1.74h7v-2c0-6.15-5.46-7.11-9.42-7.11-5,0-9,1.65-9.76,6.27a10,10,0,0,0,.07,3.81C120.1,126.33,130,128,131.46,131.66Z" transform="translate(0 -0.5)"/><path id="패스_45" data-name="패스 45" class="cls-2" d="M155.13,135.5a2.55,2.55,0,0,0,2.71-2.08,6.52,6.52,0,0,0,.06-1.08V111.21H165v20.48c0,.52,0,1.59-.07,1.87-.5,5.33-4.65,7.06-9.84,7.06s-9.35-1.73-9.84-7.06c0-.27-.08-1.35-.07-1.87V111.22h7.14v21.12a5,5,0,0,0,.07,1.09A2.54,2.54,0,0,0,155.13,135.5Z" transform="translate(0 -0.5)"/><path id="패스_46" data-name="패스 46" class="cls-2" d="M214,135.2a2.65,2.65,0,0,0,2.89-2.07,6.58,6.58,0,0,0,.06-1.09V127.9H214v-4.16h10v7.65c0,.63,0,1.26-.1,1.88-.47,5.2-4.92,7-9.92,7s-9.45-1.85-9.92-7c-.06-.62-.1-1.25-.1-1.88v-12c0-.51.06-1.4.12-1.88.63-5.34,4.9-7,9.9-7s9.38,1.7,9.9,7c.05.63.07,1.25.06,1.88v1h-7.11v-1.6a6.59,6.59,0,0,0-.09-1.09,2.57,2.57,0,0,0-2.81-2.07,2.61,2.61,0,0,0-2.81,2.07A6.85,6.85,0,0,0,211,119v13a6.65,6.65,0,0,0,.07,1.09A2.63,2.63,0,0,0,214,135.2Z" transform="translate(0 -0.5)"/></g></g></svg>