<svg id="Layer_1" data-name="Layer 1" xmlns="http://www.w3.org/2000/svg" xmlns:xlink="http://www.w3.org/1999/xlink" viewBox="0 0 250 250"><defs><style>.cls-1{fill:none;}.cls-2{fill:#14f078;}.cls-3{clip-path:url(#clip-path);}.cls-4{fill:#fff;}</style><clipPath id="clip-path" transform="translate(0 -0.5)"><rect class="cls-1" x="34.96" y="107.71" width="181.04" height="35.58"/></clipPath></defs><rect class="cls-2" width="250" height="250"/><g class="cls-3"><path class="cls-4" d="M49.23,135a4,4,0,0,1-1,2.93,3.72,3.72,0,0,1-2.75,1,3.42,3.42,0,0,1-2.79-1.06,4.4,4.4,0,0,1-.89-2.89V108.39H35V134.6a11,11,0,0,0,.52,3.46,6.64,6.64,0,0,0,1.73,2.75,8.35,8.35,0,0,0,3.11,1.81,14.61,14.61,0,0,0,4.73.66,11.54,11.54,0,0,0,5-.88,7.14,7.14,0,0,0,2.55-1.93,6.9,6.9,0,0,0,2.59,1.93,11.84,11.84,0,0,0,5.09.88,14.89,14.89,0,0,0,4.63-.63,8.31,8.31,0,0,0,3.11-1.78,6.49,6.49,0,0,0,1.75-2.74,10.8,10.8,0,0,0,.55-3.53V108.39H63.59v26.53a4.34,4.34,0,0,1-.91,2.86,3.47,3.47,0,0,1-2.82,1.09,3.77,3.77,0,0,1-2.79-1,4,4,0,0,1-1-2.93V108.39H49.23ZM76,142.6H94.67v-4.36H82.85V126.92H93.49v-4.45H82.85v-9.72H94.22v-4.36H76Zm37.94,0h6.77V116a4,4,0,0,1,1-2.91,3.75,3.75,0,0,1,2.8-1,3.48,3.48,0,0,1,2.81,1.07,4.36,4.36,0,0,1,.91,2.93V142.6h6.82V116.38a11.36,11.36,0,0,0-.5-3.4,6.67,6.67,0,0,0-1.68-2.75,8.23,8.23,0,0,0-3.09-1.84,14.28,14.28,0,0,0-4.78-.68,11.77,11.77,0,0,0-5,.86,6.6,6.6,0,0,0-2.61,2,6.57,6.57,0,0,0-2.59-2,11.72,11.72,0,0,0-5-.88,14.91,14.91,0,0,0-4.64.63,8.61,8.61,0,0,0-3.13,1.77,6.65,6.65,0,0,0-1.78,2.75,11.05,11.05,0,0,0-.54,3.52V142.6h6.81V116.11a4.41,4.41,0,0,1,.91-2.93,3.58,3.58,0,0,1,2.87-1.07c2.48,0,3.72,1.31,3.72,3.91Zm34.63-14.95,2.36-14.9h2.46l2.36,14.9Zm7.82,4.41,1.63,10.54h7.14l-5.91-34.21H145.11l-5.82,34.21h7.09L148,132.06Zm35.53-15a8.25,8.25,0,0,0-2.48-6.39q-2.47-2.3-8.06-2.29H169.47V142.6h11.95q5.58,0,8.06-2.13a7.54,7.54,0,0,0,2.48-6.05Zm-15.68-4.32h4.64c1.66,0,2.79.38,3.36,1.13a5.41,5.41,0,0,1,.86,3.32v16.59a4.55,4.55,0,0,1-1.09,3.38,4.91,4.91,0,0,1-3.54,1.07h-4.23Zm21,29.85H216v-4.36H204.14V126.92h10.72v-4.45H204.14v-9.72H215.5v-4.36H197.32Z" transform="translate(0 -0.5)"/></g></svg>