<?xml version="1.0" encoding="utf-8"?>
<!-- Generator: Adobe Illustrator 26.0.3, SVG Export Plug-In . SVG Version: 6.00 Build 0)  -->
<svg version="1.1" id="Layer_1" xmlns="http://www.w3.org/2000/svg" xmlns:xlink="http://www.w3.org/1999/xlink" x="0px" y="0px"
	 viewBox="0 0 24 24" style="enable-background:new 0 0 24 24;" xml:space="preserve">
<style type="text/css">
	.st0{fill:#F5F5F5;}
	.st1{fill:#CC4824;}
	.st2{fill:#2A2A2A;}
	.st3{enable-background:new    ;}
	.st4{fill:#FFFFFF;}
</style>
<polygon class="st0" points="4,0.5 4,23.5 21.5,23.5 21.5,5.9 16.1,0.5 "/>
<g>
	<g>
		<g>
			<polygon class="st1" points="15.9,0.9 15.9,5.7 21.5,5.7 16.1,0.4 			"/>
			<g>
				<path class="st2" d="M21.5,24H4c-0.3,0-0.5-0.2-0.5-0.5V0.5C3.5,0.2,3.7,0,4,0h12.1c0.1,0,0.2,0,0.3,0.1l5.5,5.5
					c0.1,0.1,0.1,0.2,0.1,0.3v17.7C21.9,23.8,21.7,24,21.5,24z M4.5,23.2h16.6V6.1l-5.2-5.2H4.5V23.2z"/>
			</g>
			<path class="st2" d="M21.5,6.4H16c-0.3,0-0.5-0.2-0.5-0.5V0.5C15.5,0.2,15.7,0,16,0c0.3,0,0.5,0.2,0.5,0.5v5h5
				c0.3,0,0.5,0.2,0.5,0.5S21.7,6.4,21.5,6.4z"/>
		</g>
	</g>
	<path class="st2" d="M18.8,19h-12c-0.3,0-0.5-0.2-0.5-0.5c0-0.3,0.2-0.5,0.5-0.5h12c0.3,0,0.5,0.2,0.5,0.5C19.2,18.8,19,19,18.8,19
		z"/>
	<path class="st2" d="M18.8,16.5h-12c-0.3,0-0.5-0.2-0.5-0.5c0-0.3,0.2-0.5,0.5-0.5h12c0.3,0,0.5,0.2,0.5,0.5
		C19.2,16.4,19,16.5,18.8,16.5z"/>
	<path class="st2" d="M18.8,21.3h-12c-0.3,0-0.5-0.2-0.5-0.5s0.2-0.5,0.5-0.5h12c0.3,0,0.5,0.2,0.5,0.5C19.2,21.1,19,21.3,18.8,21.3
		z"/>
</g>
<rect x="2.1" y="5.7" class="st1" width="12.6" height="8.1"/>
<g class="st3">
	<path class="st4" d="M5.4,7.5c0.2,0,0.4,0.1,0.6,0.2C6.2,7.9,6.3,8,6.4,8.2c0.1,0.2,0.1,0.4,0.1,0.7c0,0.3,0,0.5-0.1,0.7
		C6.3,9.8,6.2,9.9,6,10.1c-0.2,0.1-0.3,0.2-0.6,0.3c-0.2,0.1-0.4,0.1-0.7,0.1H4.1v1.6H3.2V7.5h1.5C5,7.5,5.2,7.5,5.4,7.5z M5.6,8.9
		c0-0.3-0.1-0.5-0.2-0.6C5.2,8.3,5,8.2,4.7,8.2H4.1v1.5h0.6C5.3,9.7,5.6,9.4,5.6,8.9z"/>
	<path class="st4" d="M9.1,7.6C9.4,7.7,9.7,7.8,9.9,8c0.2,0.2,0.3,0.4,0.5,0.7c0.1,0.3,0.2,0.6,0.2,1c0,0.4-0.1,0.7-0.2,1
		c-0.1,0.3-0.3,0.5-0.4,0.7c-0.2,0.2-0.4,0.3-0.7,0.4c-0.3,0.1-0.6,0.1-0.9,0.1H6.9V7.5h1.3C8.6,7.5,8.9,7.5,9.1,7.6z M8.7,11.2
		C8.9,11.2,9,11.1,9.2,11c0.1-0.1,0.2-0.3,0.3-0.5c0.1-0.2,0.1-0.4,0.1-0.7c0-0.3,0-0.5-0.1-0.7C9.4,8.8,9.3,8.7,9.2,8.6
		C9,8.4,8.9,8.3,8.7,8.3C8.6,8.2,8.4,8.2,8.1,8.2H7.9v3.1h0.3C8.4,11.3,8.6,11.3,8.7,11.2z"/>
	<path class="st4" d="M13.8,8.2h-1.9v1.2h1.6v0.8h-1.6v1.9H11V7.5h2.8V8.2z"/>
</g>
</svg>
