<?xml version="1.0" encoding="utf-8"?>
<!-- Generator: Adobe Illustrator 26.0.2, SVG Export Plug-In . SVG Version: 6.00 Build 0)  -->
<svg version="1.1" id="Layer_1" xmlns="http://www.w3.org/2000/svg" xmlns:xlink="http://www.w3.org/1999/xlink" x="0px" y="0px"
	 viewBox="0 0 24 24" style="enable-background:new 0 0 24 24;" xml:space="preserve">
<style type="text/css">
	.st0{fill:#929292;}
</style>
<path class="st0" d="M12,0C5.4,0,0,5.4,0,12s5.4,12,12,12s12-5.4,12-12S18.6,0,12,0z M12,18.2c-0.7,0-1.2-0.6-1.2-1.2
	s0.6-1.2,1.2-1.2c0.7,0,1.2,0.6,1.2,1.2S12.7,18.2,12,18.2z M14,12.3c-0.9,1-0.9,1.5-0.9,2.2h-2c0-1.5,0-2.1,1.4-3.5
	c0.6-0.5,1-1,1-1.8C13.4,8.4,12.7,8,12,8c-0.7,0-1.5,0.5-1.5,2h-2C8.5,7.6,9.9,6,12.1,6c1,0,1.9,0.3,2.6,1c0.6,0.6,0.9,1.4,0.9,2.3
	C15.5,10.7,14.6,11.6,14,12.3z"/>
</svg>
