<?xml version="1.0" encoding="utf-8"?>
<!-- Generator: Adobe Illustrator 26.0.2, SVG Export Plug-In . SVG Version: 6.00 Build 0)  -->
<svg version="1.1" id="Layer_1" xmlns="http://www.w3.org/2000/svg" xmlns:xlink="http://www.w3.org/1999/xlink" x="0px" y="0px"
	 viewBox="0 0 200 200" style="enable-background:new 0 0 200 200;" xml:space="preserve">
<style type="text/css">
	.st0{fill:#D3D3D3;}
</style>
<path class="st0" d="M199.61,113.06c0.48-5.46,0.52-11.01,0.08-16.6l-15.77-4.31c-0.93-6.41-2.58-12.58-4.86-18.44l11.63-11.52
	c-2.36-5.09-5.12-9.9-8.22-14.42l-15.9,4.18c-3.94-4.97-8.43-9.49-13.37-13.47l4.34-15.86c-4.54-3.19-9.34-5.99-14.35-8.38
	L131.5,25.81c-5.81-2.31-11.93-4-18.28-4.98l-4.19-15.96c-5.46-0.49-11.01-0.52-16.6-0.08l-4.35,15.92
	c-6.36,0.92-12.5,2.54-18.32,4.79L58.16,13.8c-5.08,2.36-9.9,5.12-14.42,8.22l4.19,15.94c-4.98,3.92-9.5,8.4-13.49,13.33
	l-15.85-4.33C15.4,51.5,12.59,56.3,10.2,61.3l11.52,11.63c-2.34,5.83-4.05,11.98-5.05,18.37L0.84,95.46
	c-0.48,5.46-0.52,11.01-0.08,16.6l15.74,4.3c0.91,6.43,2.54,12.64,4.82,18.52L9.76,146.33c2.36,5.09,5.12,9.9,8.22,14.42l15.71-4.13
	c3.97,5.05,8.5,9.63,13.5,13.66l-4.27,15.62c4.54,3.18,9.34,5.99,14.35,8.38l11.5-11.36c4.13,1.66,8.62,2.99,12.89,3.99v-27.68
	c-23.62-7.81-40.5-30.71-39.51-57.14c1.15-30.82,26.7-55.48,57.54-55.67c32.98-0.19,58.96,26.99,57.93,59.65
	c-0.8,25.35-17.5,46.38-41.01,53.46l-0.3,0.09c-1.12,0.33-2.16,0.64-2.96,0.81c0,0,0.02-20,0.01-23.88
	c-0.01-4.42,2.29-9.55,6.11-11.77l9.28-5.08c1.05-0.61,3.13-2.25,3.13-3.46V89.23c0-2.36-2.13-4.54-4.17-5.71l-12.31-6.67
	c-0.59-0.32-1.31,0.11-1.31,0.78v25.99c0,1.21-1.24,2.34-2.29,2.94l-8.61,4.8c-1.43,0.82-3.33,0.82-4.76,0l-9.14-4.8
	c-1.05-0.61-2.53-1.73-2.53-2.94V77.63c0-0.67-0.72-1.1-1.31-0.78l-12.31,6.67c-2.04,1.18-4.17,3.36-4.17,5.71v27
	c0,1.22,2.28,2.34,3.33,2.95l8.1,4.57c3.81,2.19,6.36,6.25,6.36,10.65v53.46c0,0.05,0.44,0.1,0.74,0.15
	c4.21,0.64,8.44,0.98,12.83,0.98c4.09,0,8.08-0.3,12.02-0.86c0.27-0.04,0.52-0.07,0.78-0.11c1.41-0.21,2.8-0.46,4.18-0.75
	c4.7-0.96,9.26-2.32,13.64-4.03l11.36,11.48c5.08-2.36,9.9-5.12,14.42-8.22l-4.12-15.67c5.04-3.98,9.62-8.53,13.64-13.54l15.63,4.27
	c3.18-4.54,5.99-9.34,8.38-14.35l-11.41-11.53c2.34-5.87,4.04-12.06,5.01-18.5L199.61,113.06z"/>
</svg>
