<?xml version="1.0" encoding="UTF-8"?>
<svg id="Icon_metro-calendar" xmlns="http://www.w3.org/2000/svg" xmlns:xlink="http://www.w3.org/1999/xlink" version="1.1" viewBox="0 0 20 21.4">
  <!-- Generator: Adobe Illustrator 29.2.0, SVG Export Plug-In . SVG Version: 2.1.0 Build 108)  -->
  <defs>
    <style>
      .st0 {
        fill: #1f78fd;
      }
    </style>
  </defs>
  <path id="Icon_metro-calendar-2" class="st0" d="M6.7,8h2.7v2.7h-2.7v-2.7ZM10.7,8h2.7v2.7h-2.7v-2.7ZM14.7,8h2.7v2.7h-2.7v-2.7ZM2.7,16h2.7v2.7h-2.7v-2.7ZM6.7,16h2.7v2.7h-2.7v-2.7ZM10.7,16h2.7v2.7h-2.7v-2.7ZM6.7,12h2.7v2.7h-2.7v-2.7ZM10.7,12h2.7v2.7h-2.7v-2.7ZM14.7,12h2.7v2.7h-2.7v-2.7ZM2.7,12h2.7v2.7h-2.7v-2.7ZM17.4,0v1.3h-2.7V0H5.3v1.3h-2.6V0H0v21.4h20V0h-2.6ZM18.7,20H1.3V5.3h17.4s0,14.7,0,14.7Z"/>
</svg>