<?xml version="1.0" encoding="UTF-8"?>
<svg xmlns="http://www.w3.org/2000/svg" xmlns:xlink="http://www.w3.org/1999/xlink" version="1.1" viewBox="0 0 158 158">
  <defs>
    <style>
      .cls-1 {
        mix-blend-mode: multiply;
        opacity: .8;
      }

      .cls-2 {
        fill: #cceefe;
      }

      .cls-3 {
        fill: #ffd281;
      }

      .cls-4 {
        isolation: isolate;
      }

      .cls-5 {
        fill: #fff;
      }

      .cls-6 {
        fill: #00eddd;
      }

      .cls-7 {
        fill: #0085ff;
      }
    </style>
  </defs>
  <!-- Generator: Adobe Illustrator 28.7.0, SVG Export Plug-In . SVG Version: 1.2.0 Build 136)  -->
  <g class="cls-4">
    <g id="_레이어_1" data-name="레이어_1">
      <g>
        <rect class="cls-6" x="27.2" y="12.8" width="90.5" height="119.8" rx="14.7" ry="14.7" transform="translate(-11.8 14) rotate(-10.2)"/>
        <path class="cls-2" d="M144.6,40.7v90.4c0,8.1-6.6,14.7-14.7,14.7h-61.1c-6.1,0-11.4-3.8-13.6-9.1-.7-1.7-1.1-3.6-1.1-5.6V40.7c0-8.1,6.6-14.7,14.7-14.7h61.1c8.1,0,14.7,6.6,14.7,14.7Z"/>
        <g class="cls-1">
          <image width="597" height="762" transform="translate(18 -10.1) scale(.2)" xlink:href="icon-panel-1.png"/>
        </g>
        <rect class="cls-5" x="78.6" y="40.5" width="41.4" height="7" rx="3.5" ry="3.5"/>
        <rect class="cls-5" x="66.5" y="59.5" width="65.7" height="7" rx="3.5" ry="3.5"/>
        <rect class="cls-5" x="66.5" y="78.4" width="65.7" height="7" rx="3.5" ry="3.5"/>
        <rect class="cls-5" x="66.5" y="97.4" width="65.7" height="7" rx="3.5" ry="3.5"/>
        <rect class="cls-5" x="105" y="116.4" width="27.2" height="7" rx="3.5" ry="3.5"/>
        <g>
          <rect class="cls-7" x="20.2" y="87" width="13.2" height="49.9" transform="translate(42 -2.2) rotate(21)"/>
          <path class="cls-3" d="M41.9,91l-12.3-4.7,6.4-8.8,4.4-6c.5-.7,1.4-1,2.2-.7s1.3,1.1,1.2,2l-.8,7.4-1.1,10.8Z"/>
          <path class="cls-7" d="M43.1,80.2l-7.1-2.7,4.4-6c.5-.7,1.4-1,2.2-.7s1.3,1.1,1.2,2l-.8,7.4Z"/>
          <path class="cls-3" d="M9.1,134.8h13.2v6.4c0,3.2-2.6,5.7-5.7,5.7h-1.8c-3.2,0-5.7-2.6-5.7-5.7v-6.4h0Z" transform="translate(51.6 3.8) rotate(21)"/>
        </g>
      </g>
    </g>
  </g>
</svg>