<?xml version="1.0" encoding="utf-8"?>
<!-- Generator: Adobe Illustrator 27.6.1, SVG Export Plug-In . SVG Version: 6.00 Build 0)  -->
<svg version="1.1" id="레이어_1" xmlns="http://www.w3.org/2000/svg" xmlns:xlink="http://www.w3.org/1999/xlink" x="0px"
	 y="0px" viewBox="0 0 146 30" style="enable-background:new 0 0 146 30;" xml:space="preserve">
<style type="text/css">
	.st0{fill:#46B65E;}
	.st1{fill:#4DC2C5;}
	.st2{fill:#958FBA;}
	.st3{fill:#53C8EC;}
	.st4{fill:#ED8980;}
	.st5{fill:#F4C12D;}
	.st6{fill:#F6B969;}
	.st7{fill:#2D3386;}
	.st8{fill:#78B4BA;}
	.st9{fill:#F5B81E;}
	.st10{fill:#EC1E79;}
</style>
<g>
	<path class="st0" d="M8.7,7C7.1,6.3,6.3,4.4,7,2.8C7.6,1.1,9.5,0.3,11.1,1c1.6,0.7,2.5,2.5,1.8,4.2C12.3,6.8,10.4,7.6,8.7,7z"/>
	<path class="st1" d="M18.2,7c-1.6-0.7-2.5-2.5-1.8-4.2c0.7-1.6,2.5-2.5,4.2-1.8c1.6,0.7,2.5,2.5,1.8,4.2C21.7,6.8,19.9,7.6,18.2,7z
		"/>
	<g>
		<path class="st2" d="M29.7,12.3c-0.7-0.3-1-1-0.7-1.7c0.3-0.7,1-1,1.7-0.7c0.7,0.3,1,1,0.7,1.7C31.2,12.3,30.4,12.6,29.7,12.3z"/>
		<path class="st0" d="M25.6,14c-0.8-0.3-1.2-1.3-0.9-2.1c0.3-0.8,1.3-1.2,2.1-0.9c0.8,0.3,1.2,1.3,0.9,2.1
			C27.4,13.9,26.5,14.3,25.6,14z"/>
		<path class="st3" d="M32.5,18.4c-0.7-0.3-1-1-0.7-1.7c0.3-0.7,1-1,1.7-0.7c0.7,0.3,1,1,0.7,1.7C33.9,18.4,33.2,18.7,32.5,18.4z"/>
		<path class="st4" d="M34,10.8c-0.5-0.2-0.7-0.7-0.5-1.2c0.2-0.5,0.7-0.7,1.2-0.5c0.5,0.2,0.7,0.7,0.5,1.2C35,10.7,34.4,11,34,10.8
			z"/>
		<path class="st1" d="M28.4,16.2c-0.7-0.3-1-1.1-0.8-1.8c0.3-0.7,1.1-1,1.8-0.8c0.7,0.3,1,1.1,0.8,1.8
			C29.9,16.2,29.1,16.5,28.4,16.2z"/>
		<path class="st5" d="M30.3,22.3c-0.7-0.3-1.1-1.1-0.8-1.9c0.3-0.7,1.1-1.1,1.9-0.8c0.7,0.3,1.1,1.1,0.8,1.9
			C31.9,22.2,31.1,22.6,30.3,22.3z"/>
		<path class="st6" d="M32.6,14.1c-0.5-0.2-0.7-0.7-0.5-1.2c0.2-0.5,0.7-0.7,1.2-0.5c0.5,0.2,0.7,0.7,0.5,1.2
			C33.7,14,33.1,14.3,32.6,14.1z"/>
		<path class="st7" d="M35.5,14.1c-0.3-0.1-0.4-0.5-0.3-0.8c0.1-0.3,0.5-0.4,0.8-0.3c0.3,0.1,0.4,0.5,0.3,0.8
			C36.2,14.1,35.8,14.3,35.5,14.1z"/>
		<path class="st8" d="M36.9,16.8c-0.3-0.1-0.4-0.4-0.3-0.7c0.1-0.3,0.4-0.4,0.7-0.3c0.3,0.1,0.4,0.4,0.3,0.7
			C37.5,16.8,37.2,16.9,36.9,16.8z"/>
		<path class="st9" d="M36.1,7.6c-0.3-0.1-0.4-0.4-0.3-0.7c0.1-0.3,0.4-0.4,0.7-0.3c0.3,0.1,0.4,0.4,0.3,0.7
			C36.7,7.6,36.4,7.7,36.1,7.6z"/>
		<path class="st4" d="M36.9,10.9c-0.3-0.1-0.4-0.4-0.3-0.7c0.1-0.3,0.4-0.4,0.7-0.3c0.3,0.1,0.4,0.4,0.3,0.7
			C37.5,10.9,37.2,11.1,36.9,10.9z"/>
		<path class="st10" d="M35.6,18.8c-0.3-0.1-0.4-0.4-0.3-0.7c0.1-0.3,0.4-0.4,0.7-0.3c0.3,0.1,0.4,0.4,0.3,0.7
			C36.2,18.8,35.9,18.9,35.6,18.8z"/>
	</g>
	<g>
		<g>
			<g>
				<g>
					<path class="st7" d="M47,21.1l-1.9-6.8l-0.9,8.4h-3.5l1.6-13.2c0.1-1.1,1.1-1.8,2-1.9c0.9-0.1,2.1,0.3,2.5,1.5l2.3,8.6l2.3-8.6
						c0.3-1.2,1.6-1.6,2.5-1.5c0.8,0.1,1.8,0.7,2,1.9l1.6,13.2h-3.5l-0.8-8.5L51,21.1c-0.2,0.6-1.3,0.9-2,0.9S47.2,21.7,47,21.1z"/>
				</g>
			</g>
			<g>
				<g>
					<path class="st7" d="M58.7,17.8v-1.6c0-4,2.9-5.2,5.3-5.2c2.6,0,5.2,1,5.2,6c0,0.3,0,0.8-0.1,1.2h-6.7v0c0,1.3,1.2,1.7,2.1,1.7
						c0.9,0,1.3-0.1,1.8-0.2c0.3-0.1,0.6-0.2,0.9-0.3c0.6-0.1,1.2,0.1,1.5,0.7c0.4,0.9-0.1,1.7-1,2.2c-0.6,0.4-1.9,0.7-3.3,0.7
						C61.8,23,58.7,21.7,58.7,17.8z M62.4,15.7h3.2c0.1-1.2-0.7-1.6-1.5-1.6C63.2,14,62.4,14.4,62.4,15.7z"/>
				</g>
			</g>
			<g>
				<g>
					<path class="st7" d="M72.2,14.5h-0.6c-1.2,0-1.6-0.7-1.6-1.5c0-0.8,0.4-1.6,1.6-1.6h0.6V9.4c0-1.3,0.9-1.8,1.8-1.8
						c0.9,0,1.8,0.6,1.8,1.8v1.9H77c1.2,0,1.6,0.8,1.6,1.6c0,0.8-0.5,1.5-1.6,1.5h-1.1v4.6c0,0.6,0.3,0.7,0.6,0.7
						c0.3,0,0.4-0.1,0.8-0.1c0.6,0,1.1,0.4,1.3,1c0.2,0.8-0.2,1.4-0.7,1.7c-0.4,0.3-1.1,0.5-1.8,0.5c-2.5,0-3.9-1-3.9-3.8V14.5z"/>
				</g>
			</g>
			<path class="st7" d="M95.9,17.6l1.9-8.7C98,7.8,99,7.4,99.9,7.6c0.9,0.1,1.6,1,1.4,2.1l-3,13h-4.1l-2.2-9.3l-2.2,9.3h-3.8L83,9.7
				c-0.2-1.1,0.5-1.9,1.4-2.1c1-0.1,2,0.2,2.2,1.3l1.7,8.2l1.7-7.7c0.3-1.1,1.3-1.4,2-1.4c0.7,0,1.7,0.3,2,1.4L95.9,17.6z"/>
			<path class="st7" d="M102.1,16.1c0-4,2.9-5.2,5.4-5.2c2.5,0,5.4,1.2,5.4,5.2v1.7c0,4-2.9,5.2-5.4,5.2c-2.5,0-5.4-1.2-5.4-5.2
				V16.1z M109.2,16c0-1.3-0.9-1.8-1.7-1.8c-0.8,0-1.7,0.5-1.7,1.8V18c0,1.3,0.9,1.8,1.7,1.8c0.8,0,1.7-0.5,1.7-1.8V16z"/>
			<path class="st7" d="M114.6,22.7v-9.8c0-1.2,0.9-1.9,1.9-1.9c0.7,0,1.4,0.4,1.7,1c0.7-0.7,1.6-1,2.5-1c0.3,0,0.6,0,0.9,0.1
				c0.7,0.3,1.1,1,1,1.9s-0.8,1.4-1.6,1.4c-0.3,0-0.6,0-0.9,0c-1,0.1-1.6,0.7-1.7,1.6v6.6H114.6z"/>
			<path class="st7" d="M123.6,8.8c0-1.2,0.9-1.9,1.9-1.9c1,0,1.8,0.6,1.8,1.9v6.5l3.3-3.6c0.6-0.7,1.8-0.9,2.6-0.3
				c0.8,0.6,0.9,1.9,0.2,2.6l-2.5,2.4l4.1,6.4h-4.2l-2.4-4l-1.1,1.1v2.9h-3.7V8.8z"/>
			<path class="st7" d="M141.3,15.4c0.2,0,0.5,0.1,0.7,0.1c2.2,0.6,3.3,1.9,3,4.2c-0.3,2.2-2.4,3.2-5,3.2c-1.3,0-2.9-0.2-3.8-1
				c-0.7-0.5-1-1.4-0.4-2.2c0.3-0.4,0.7-0.6,1.2-0.6c0.6,0,0.9,0.2,1.2,0.4c0.4,0.2,1.2,0.4,2,0.4c0.7,0,1.1-0.3,1.2-0.6
				c0.1-0.4-0.8-0.7-2.3-1c-0.3-0.1-0.5-0.1-0.8-0.2c-2.9-0.9-3.2-3.3-2.4-5c0.7-1.6,2.6-2.2,4.4-2.2c1.5,0,2.6,0.3,3.2,0.7
				c0.8,0.4,1.3,1.2,1.1,2.1c-0.2,0.7-0.8,1-1.5,1c-0.2,0-0.6-0.1-0.8-0.2c-0.4-0.3-1.4-0.5-2-0.5c-0.6,0-1,0.3-1,0.6
				C139.3,15,139.9,15.2,141.3,15.4z"/>
		</g>
	</g>
	<g>
		<path class="st0" d="M13,10.3c0-0.1-0.1-0.3-0.2-0.4c0,0,0,0,0,0c0,0-0.1-0.1-0.1-0.1c0,0,0,0,0,0c-0.4-0.6-0.9-1.2-1.7-1.4h0
			c-0.4-0.2-0.8-0.2-1.2-0.2C9.4,8.1,9,8.2,8.6,8.4h0C7.8,8.6,7.3,9.2,6.9,9.8c0,0,0,0,0,0c0,0-0.1,0.1-0.1,0.1c0,0,0,0,0,0
			c-0.1,0.1-0.1,0.2-0.2,0.4L1.1,24.4c-0.7,1.7,0.2,3.7,1.9,4.4l0,0c1.7,0.7,3.7-0.2,4.4-1.9l2.4-6.2l2.4,6.2
			c0.7,1.7,2.6,2.6,4.4,1.9l0,0c1.7-0.7,2.6-2.6,1.9-4.4L13,10.3z"/>
		<path class="st1" d="M28.9,24.4l-5.6-14.1c-0.7-1.7-2.6-2.6-4.4-1.9h0C17.2,9,16.4,11,17,12.7l5.6,14.1c0.7,1.7,2.6,2.6,4.4,1.9
			l0,0C28.7,28.1,29.5,26.1,28.9,24.4z"/>
	</g>
</g>
</svg>
