<?xml version="1.0" encoding="UTF-8"?>
<svg xmlns="http://www.w3.org/2000/svg" xmlns:xlink="http://www.w3.org/1999/xlink" version="1.1" viewBox="0 0 362 62">
  <defs>
    <style>
      .cls-1 {
        fill: url(#linear-gradient);
      }

      .cls-2 {
        fill: #403f41;
      }

      .cls-3 {
        fill: #427ec0;
      }

      .cls-4 {
        fill: #053f8a;
      }
    </style>
    <linearGradient id="linear-gradient" x1="412.2" y1="285.8" x2="436" y2="285.8" gradientTransform="translate(-462.6 121.2) rotate(-45)" gradientUnits="userSpaceOnUse">
      <stop offset=".1" stop-color="#053f8a"/>
      <stop offset="1" stop-color="#427ec0"/>
    </linearGradient>
  </defs>
  <!-- Generator: Adobe Illustrator 28.7.0, SVG Export Plug-In . SVG Version: 1.2.0 Build 136)  -->
  <g>
    <g id="_레이어_1" data-name="레이어_1">
      <g>
        <g>
          <path class="cls-2" d="M87.1,27.8c-1.4,3.5-4.4,5.9-9.3,7.2l-1.2-2.5c5-1.3,7.4-3.7,7.8-6.7h-6.6v-2.5h10.1c0,.7,0,1.4-.1,2h3.9v-3.5h3.2v12.7h-3.2v-2.1h-4.9v-2.5h4.9v-2h-4.6ZM94.9,39.3c0,2.8-2.9,4.5-7.4,4.5s-7.4-1.7-7.4-4.5,2.9-4.5,7.4-4.5,7.4,1.7,7.4,4.5ZM91.8,39.3c0-1.3-1.6-2-4.3-2s-4.3.7-4.3,2,1.6,2,4.3,2,4.3-.7,4.3-2Z"/>
          <path class="cls-2" d="M110.2,24.1c0,6.8-2.3,12.3-10.1,16.1l-1.6-2.5c5.6-2.7,8.1-6.2,8.5-11.1h-7.3v-2.5h10.6ZM116.7,21.8v22.1h-3.2v-22.1h3.2Z"/>
          <path class="cls-2" d="M132.3,34.6c-2.4-.8-4.1-2.5-5.1-4.5-1,2.2-2.7,4-5.3,4.9l-1.6-2.5c3.7-1.2,5.2-4.3,5.2-7.3v-2.2h3.2v2.2c0,2.9,1.5,5.7,5.1,6.9l-1.6,2.5ZM139.3,41v2.5h-15.2v-7.1h3.2v4.6h12ZM138.7,37.9h-3.2v-16.1h3.2v16.1Z"/>
          <path class="cls-2" d="M162.3,32.3v2.5h-19.9v-2.5h4.5v-2.7c-1.6-.7-2.5-1.8-2.5-3.2,0-2.6,3.1-4.3,8-4.3s8,1.6,8,4.3-.9,2.5-2.6,3.3v2.6h4.5ZM160,39.9c0,2.6-2.9,4-7.6,4s-7.6-1.5-7.6-4,2.9-4,7.6-4,7.6,1.4,7.6,4ZM147.7,26.4c0,1.2,1.7,1.8,4.7,1.8s4.7-.6,4.7-1.8-1.7-1.8-4.7-1.8-4.7.6-4.7,1.8ZM156.8,39.9c0-1.1-1.5-1.6-4.4-1.6s-4.4.5-4.4,1.6,1.5,1.6,4.4,1.6,4.4-.5,4.4-1.6ZM150,32.3h4.6v-1.8c-.7,0-1.5.1-2.3.1s-1.6,0-2.3-.1v1.8Z"/>
          <path class="cls-2" d="M184.3,38.8v2.6h-19.9v-2.6h8.4v-4.1h-6.3v-11.6h3.1v3.4h9.4v-3.4h3.1v11.6h-6.2v4.1h8.4ZM169.6,32.2h9.4v-3.1h-9.4v3.1Z"/>
          <path class="cls-2" d="M206.3,32v2.5h-19.9v-2.5h19.9ZM187.3,28.7c4.2-.4,6.3-1.8,6.8-3.3h-5.9v-2.5h16.3v2.5h-5.9c.5,1.5,2.7,3,6.8,3.3l-1.1,2.5c-4.1-.4-6.9-1.9-8-4-1.2,2.1-3.9,3.7-8,4l-1.1-2.5ZM204,39.8c0,2.6-2.9,4.1-7.6,4.1s-7.6-1.5-7.6-4.1,2.9-4.1,7.6-4.1,7.6,1.5,7.6,4.1ZM200.8,39.8c0-1.2-1.5-1.7-4.4-1.7s-4.4.5-4.4,1.7,1.5,1.7,4.4,1.7,4.4-.5,4.4-1.7Z"/>
          <path class="cls-2" d="M227.4,21.8v22.1h-3v-11h-1.8v10.1h-2.9v-6.4l-1.8,2.4c-2-1.1-3.2-2.8-4-5-.7,2.5-2,4.6-4.1,5.9l-1.9-2.4c3.3-1.9,4.3-5.8,4.3-10.1v-.6h-3.6v-2.6h10v2.6h-3.3v.6c0,3.9,1.1,7.5,4.3,9.2v-14.3h2.9v8.1h1.8v-8.5h3Z"/>
          <path class="cls-2" d="M243.6,33.5c-2.7.6-5.2.7-10.1.7h-1.8v-10.6h9.8v2.5h-6.7v5.6c3.9,0,6.1-.2,8.5-.7l.3,2.5ZM237.1,41h11.8v2.5h-15v-7.4h3.2v4.9ZM251.1,27.8v2.6h-2.9v7.4h-3.2v-16h3.2v6h2.9Z"/>
        </g>
        <g>
          <path class="cls-2" d="M257.9,26.3c0-2.3,1.4-3.7,3.3-3.7s1.7.4,2.1.9l-.6.7c-.3-.4-.8-.6-1.5-.6-1.3,0-2.2,1-2.2,2.7s.8,2.7,2.2,2.7.9-.1,1.1-.3v-1.7h-1.4v-.9h2.4v3.1c-.5.5-1.3.8-2.2.8-1.9,0-3.3-1.3-3.3-3.6Z"/>
          <path class="cls-2" d="M267.2,30.1c-.4,1.1-1,1.9-2.1,1.9s-.5,0-.7-.1l.2-.9c0,0,.3,0,.4,0,.6,0,.9-.4,1.1-1v-.4c.1,0-2-5.3-2-5.3h1.1l1,2.7c.2.5.3,1,.5,1.5h0l.4-1.5.8-2.7h1.1l-1.9,5.6Z"/>
          <path class="cls-2" d="M269.7,27.1c0-1.7,1.2-2.8,2.4-2.8s2.2,1,2.2,2.5,0,.4,0,.6h-3.4c0,1,.7,1.6,1.6,1.6s.9-.1,1.3-.4l.4.7c-.5.3-1.1.6-1.8.6-1.4,0-2.6-1-2.6-2.8ZM273.3,26.7c0-.9-.4-1.4-1.2-1.4s-1.3.5-1.4,1.4h2.5Z"/>
          <path class="cls-2" d="M275.2,27.1c0-1.8,1.2-2.8,2.5-2.8s2.5,1,2.5,2.8-1.2,2.8-2.5,2.8-2.5-1-2.5-2.8ZM279.1,27.1c0-1.1-.5-1.9-1.4-1.9s-1.3.8-1.3,1.9.5,1.9,1.3,1.9,1.4-.7,1.4-1.9Z"/>
          <path class="cls-2" d="M281.5,24.5h.9v.7h.1c.5-.5,1-.9,1.8-.9,1.1,0,1.6.8,1.6,2.1v3.3h-1.1v-3.2c0-.9-.3-1.3-.9-1.3s-.8.3-1.3.7v3.8h-1.1v-5.3Z"/>
          <path class="cls-2" d="M287.2,30.8c0-.4.3-.9.8-1.2h0c-.3-.2-.5-.5-.5-.9s.3-.8.6-1h0c-.4-.3-.7-.8-.7-1.4,0-1.2,1-1.9,2-1.9s.6,0,.8.1h1.9v.8h-1c.2.2.3.6.3,1,0,1.2-.9,1.8-2,1.8s-.5,0-.7-.2c-.2.2-.3.3-.3.6s.2.5.9.5h1c1.3,0,1.9.4,1.9,1.3s-1.1,1.8-2.8,1.8-2.2-.5-2.2-1.4ZM291.1,30.5c0-.4-.3-.6-1-.6h-.8c-.3,0-.5,0-.7,0-.3.2-.5.5-.5.8,0,.5.5.8,1.4.8s1.5-.5,1.5-.9ZM290.4,26.3c0-.7-.4-1.1-1-1.1s-1,.4-1,1.1.5,1.1,1,1.1,1-.4,1-1.1Z"/>
          <path class="cls-2" d="M293,30.8c0-.4.3-.9.8-1.2h0c-.3-.2-.5-.5-.5-.9s.3-.8.6-1h0c-.4-.3-.7-.8-.7-1.4,0-1.2,1-1.9,2-1.9s.6,0,.8.1h1.9v.8h-1c.2.2.3.6.3,1,0,1.2-.9,1.8-2,1.8s-.5,0-.7-.2c-.2.2-.3.3-.3.6s.2.5.9.5h1c1.3,0,1.9.4,1.9,1.3s-1.1,1.8-2.8,1.8-2.2-.5-2.2-1.4ZM296.9,30.5c0-.4-.3-.6-1-.6h-.8c-.3,0-.5,0-.7,0-.3.2-.5.5-.5.8,0,.5.5.8,1.4.8s1.5-.5,1.5-.9ZM296.2,26.3c0-.7-.4-1.1-1-1.1s-1,.4-1,1.1.5,1.1,1,1.1,1-.4,1-1.1Z"/>
          <path class="cls-2" d="M298.8,22.8c0-.4.3-.7.7-.7s.7.3.7.7-.3.7-.7.7-.7-.3-.7-.7ZM298.9,24.5h1.1v5.3h-1.1v-5.3Z"/>
          <path class="cls-2" d="M303.8,26.3c0-2.3,1.4-3.7,3.2-3.7s1.6.4,2,.9l-.6.7c-.4-.4-.8-.6-1.4-.6-1.2,0-2.1,1-2.1,2.7s.8,2.7,2,2.7,1.1-.3,1.6-.8l.6.7c-.6.7-1.3,1-2.2,1-1.8,0-3.1-1.3-3.1-3.6Z"/>
          <path class="cls-2" d="M310.3,24.5h.9v1h.1c.4-.7.9-1.1,1.5-1.1s.4,0,.6.1l-.2,1c-.2,0-.3,0-.5,0-.4,0-1,.3-1.3,1.1v3.3h-1.1v-5.3Z"/>
          <path class="cls-2" d="M313.9,27.1c0-1.7,1.2-2.8,2.4-2.8s2.2,1,2.2,2.5,0,.4,0,.6h-3.4c0,1,.7,1.6,1.6,1.6s.9-.1,1.3-.4l.4.7c-.5.3-1.1.6-1.8.6-1.4,0-2.6-1-2.6-2.8ZM317.5,26.7c0-.9-.4-1.4-1.2-1.4s-1.3.5-1.4,1.4h2.5Z"/>
          <path class="cls-2" d="M319.4,27.1c0-1.7,1.1-2.8,2.3-2.8s1,.2,1.4.6v-.9s0-2,0-2h1.1v7.7h-.9v-.6h-.1c-.4.4-.9.7-1.5.7-1.3,0-2.2-1-2.2-2.8ZM323.1,28.4v-2.6c-.4-.4-.8-.5-1.2-.5-.7,0-1.3.7-1.3,1.8s.5,1.9,1.3,1.9.8-.2,1.2-.6Z"/>
          <path class="cls-2" d="M325.7,22.8c0-.4.3-.7.7-.7s.7.3.7.7-.3.7-.7.7-.7-.3-.7-.7ZM325.8,24.5h1.1v5.3h-1.1v-5.3Z"/>
          <path class="cls-2" d="M328.8,28.1v-2.7h-.8v-.8h.8c0,0,.1-1.5.1-1.5h.9v1.5h1.4v.9h-1.4v2.7c0,.6.2,1,.8,1s.4,0,.6-.1l.2.8c-.3,0-.7.2-1,.2-1.2,0-1.6-.7-1.6-1.9Z"/>
          <g>
            <path class="cls-2" d="M257.9,39.9c0-2.3,1.4-3.7,3.3-3.7s1.7.4,2.1.9l-.6.7c-.3-.4-.8-.6-1.5-.6-1.3,0-2.2,1-2.2,2.7s.8,2.7,2.2,2.7.9-.1,1.1-.3v-1.7h-1.4v-.9h2.4v3.1c-.5.5-1.3.8-2.2.8-1.9,0-3.3-1.3-3.3-3.6Z"/>
            <path class="cls-2" d="M265,41.5v-3.3h1.1v3.2c0,.9.3,1.3.9,1.3s.8-.2,1.3-.8v-3.7h1.1v5.3h-.9v-.8h-.1c-.5.6-1,.9-1.7.9-1.1,0-1.6-.7-1.6-2.1Z"/>
            <path class="cls-2" d="M270.7,42c0-1.1,1-1.7,3.2-2,0-.6-.2-1.2-1-1.2s-1.1.3-1.5.5l-.4-.8c.5-.3,1.3-.7,2.1-.7,1.3,0,1.9.8,1.9,2.2v3.2h-.9v-.6h-.1c-.5.4-1,.7-1.7.7-.9,0-1.6-.6-1.6-1.5ZM273.9,42.1v-1.3c-1.6.2-2.1.6-2.1,1.2s.4.7.8.7.8-.2,1.3-.6Z"/>
            <path class="cls-2" d="M276.6,38.1h.9v1h.1c.4-.7.9-1.1,1.5-1.1s.4,0,.6.1l-.2,1c-.2,0-.3,0-.5,0-.4,0-1,.3-1.3,1.1v3.3h-1.1v-5.3Z"/>
            <path class="cls-2" d="M280.3,42c0-1.1,1-1.7,3.2-2,0-.6-.2-1.2-1-1.2s-1.1.3-1.5.5l-.4-.8c.5-.3,1.3-.7,2.1-.7,1.3,0,1.9.8,1.9,2.2v3.2h-.9v-.6h-.1c-.5.4-1,.7-1.7.7-.9,0-1.6-.6-1.6-1.5ZM283.5,42.1v-1.3c-1.6.2-2.1.6-2.1,1.2s.4.7.8.7.8-.2,1.3-.6Z"/>
            <path class="cls-2" d="M286.2,38.1h.9v.7h.1c.5-.5,1-.9,1.8-.9,1.1,0,1.6.8,1.6,2.1v3.3h-1.1v-3.2c0-.9-.3-1.3-.9-1.3s-.8.3-1.3.7v3.8h-1.1v-5.3Z"/>
            <path class="cls-2" d="M292.3,41.7v-2.7h-.8v-.8h.8c0,0,.1-1.5.1-1.5h.9v1.5h1.4v.9h-1.4v2.7c0,.6.2,1,.8,1s.4,0,.6-.1l.2.8c-.3,0-.7.2-1,.2-1.2,0-1.6-.7-1.6-1.9Z"/>
            <path class="cls-2" d="M295.5,40.8c0-1.7,1.2-2.8,2.4-2.8s2.2,1,2.2,2.5,0,.4,0,.6h-3.4c0,1,.7,1.6,1.6,1.6s.9-.1,1.3-.4l.4.7c-.5.3-1.1.6-1.8.6-1.4,0-2.6-1-2.6-2.8ZM299.2,40.3c0-.9-.4-1.4-1.2-1.4s-1.3.5-1.4,1.4h2.5Z"/>
            <path class="cls-2" d="M301.1,40.8c0-1.7,1.2-2.8,2.4-2.8s2.2,1,2.2,2.5,0,.4,0,.6h-3.4c0,1,.7,1.6,1.6,1.6s.9-.1,1.3-.4l.4.7c-.5.3-1.1.6-1.8.6-1.4,0-2.6-1-2.6-2.8ZM304.7,40.3c0-.9-.4-1.4-1.2-1.4s-1.3.5-1.4,1.4h2.5Z"/>
            <path class="cls-2" d="M309.3,36.4h4.2v.9h-3.1v2.2h2.6v.9h-2.6v3.1h-1.1v-7.1Z"/>
            <path class="cls-2" d="M314.3,40.8c0-1.8,1.2-2.8,2.5-2.8s2.5,1,2.5,2.8-1.2,2.8-2.5,2.8-2.5-1-2.5-2.8ZM318.1,40.8c0-1.1-.5-1.9-1.4-1.9s-1.3.8-1.3,1.9.5,1.9,1.3,1.9,1.4-.7,1.4-1.9Z"/>
            <path class="cls-2" d="M320.5,41.5v-3.3h1.1v3.2c0,.9.3,1.3.9,1.3s.8-.2,1.3-.8v-3.7h1.1v5.3h-.9v-.8h-.1c-.5.6-1,.9-1.7.9-1.1,0-1.6-.7-1.6-2.1Z"/>
            <path class="cls-2" d="M326.6,38.1h.9v.7h.1c.5-.5,1-.9,1.8-.9,1.1,0,1.6.8,1.6,2.1v3.3h-1.1v-3.2c0-.9-.3-1.3-.9-1.3s-.8.3-1.3.7v3.8h-1.1v-5.3Z"/>
            <path class="cls-2" d="M332.3,40.8c0-1.7,1.1-2.8,2.3-2.8s1,.2,1.4.6v-.9s0-2,0-2h1.1v7.7h-.9v-.6h-.1c-.4.4-.9.7-1.5.7-1.3,0-2.2-1-2.2-2.8ZM335.9,42v-2.6c-.4-.4-.8-.5-1.2-.5-.7,0-1.3.7-1.3,1.8s.5,1.9,1.3,1.9.8-.2,1.2-.6Z"/>
            <path class="cls-2" d="M338.4,42c0-1.1,1-1.7,3.2-2,0-.6-.2-1.2-1-1.2s-1.1.3-1.5.5l-.4-.8c.5-.3,1.3-.7,2.1-.7,1.3,0,1.9.8,1.9,2.2v3.2h-.9v-.6h-.1c-.5.4-1,.7-1.7.7-.9,0-1.6-.6-1.6-1.5ZM341.5,42.1v-1.3c-1.6.2-2.1.6-2.1,1.2s.4.7.8.7.8-.2,1.3-.6Z"/>
            <path class="cls-2" d="M344.4,41.7v-2.7h-.8v-.8h.8c0,0,.1-1.5.1-1.5h.9v1.5h1.4v.9h-1.4v2.7c0,.6.2,1,.8,1s.4,0,.6-.1l.2.8c-.3,0-.7.2-1,.2-1.2,0-1.6-.7-1.6-1.9Z"/>
            <path class="cls-2" d="M347.9,36.5c0-.4.3-.7.7-.7s.7.3.7.7-.3.7-.7.7-.7-.3-.7-.7ZM348,38.1h1.1v5.3h-1.1v-5.3Z"/>
            <path class="cls-2" d="M350.4,40.8c0-1.8,1.2-2.8,2.5-2.8s2.5,1,2.5,2.8-1.2,2.8-2.5,2.8-2.5-1-2.5-2.8ZM354.3,40.8c0-1.1-.5-1.9-1.4-1.9s-1.3.8-1.3,1.9.5,1.9,1.3,1.9,1.4-.7,1.4-1.9Z"/>
            <path class="cls-2" d="M356.8,38.1h.9v.7h.1c.5-.5,1-.9,1.8-.9,1.1,0,1.6.8,1.6,2.1v3.3h-1.1v-3.2c0-.9-.3-1.3-.9-1.3s-.8.3-1.3.7v3.8h-1.1v-5.3Z"/>
          </g>
        </g>
      </g>
      <g>
        <polygon class="cls-3" points="31.6 41.1 21.7 31.2 35.9 17 31.6 12.6 13.1 31.2 31.6 49.7 50.1 31.2 45.8 26.9 31.6 41.1"/>
        <path class="cls-1" d="M33.1,34l16.8-16.8h0c-2.4-2.4-6.2-2.4-8.6,0l-12.5,12.5,4.3,4.3Z"/>
        <path class="cls-4" d="M2.1,33.9l26.7,26.7c1.5,1.5,4,1.5,5.6,0l26.7-26.7c1.5-1.5,1.5-4,0-5.6l-11.2-11.2-2.3,2.3-2,2,9.7,9.7-23.7,23.7L7.9,31.2,31.6,7.5l6.9,6.9,4.3-4.3L34.4,1.6c-1.5-1.5-4-1.5-5.6,0L2.1,28.4c-1.5,1.5-1.5,4,0,5.6Z"/>
      </g>
    </g>
  </g>
</svg>