<svg width="37" height="37" viewBox="0 0 37 37" fill="none" xmlns="http://www.w3.org/2000/svg">
<path d="M28.8056 2.96182C28.9963 3.03916 29.2129 2.94636 29.2902 2.75818V2.75044C29.3701 2.55711 29.2799 2.33799 29.0865 2.25808C28.8932 2.18074 28.6741 2.27355 28.5942 2.46688C28.5143 2.66022 28.6097 2.87933 28.8056 2.96182ZM28.8313 2.89996C28.6715 2.83809 28.5942 2.66022 28.6561 2.49782C28.7154 2.34057 28.8906 2.26323 29.0453 2.32252H29.0531C29.2103 2.38697 29.2902 2.56742 29.2232 2.72724C29.1639 2.87933 28.9886 2.96182 28.8288 2.89738L28.8313 2.89996ZM29.0144 2.67826C29.0659 2.70404 29.1278 2.68084 29.1536 2.63186V2.62155C29.1742 2.58031 29.1742 2.53391 29.151 2.49782C29.1252 2.47204 29.0917 2.45142 29.0556 2.43853L28.87 2.36635L28.7231 2.74529L28.7953 2.77364L28.8546 2.6164L28.9319 2.64475L28.9525 2.83551L29.0402 2.86902L29.0144 2.67826ZM28.8855 2.55453L28.9216 2.44884L29.017 2.48493C29.0505 2.50039 29.1046 2.52102 29.0865 2.57257C29.0685 2.62413 29.035 2.62413 28.9912 2.60093L28.8855 2.55453Z" fill="#FFFFFF"/>
<path d="M30.7999 7.89844L30.7845 7.9139C37.0718 14.245 37.0383 24.4764 30.7149 30.7663C24.9146 36.5328 15.7207 37.0536 9.30712 31.9753L9.28906 31.9907C15.8134 38.0744 26.0329 37.7135 32.114 31.1864C38.1797 24.6723 37.8396 14.477 31.3436 8.38565C31.1684 8.22067 30.9854 8.05826 30.7999 7.90102V7.89844Z" fill="#FFFFFF"/>
<path d="M2.16957 26.2627C1.65937 26.5515 1.5357 26.9819 1.80368 27.6496C2.04332 28.2502 2.43497 28.5209 2.8421 28.3559C3.16935 28.2219 3.22606 27.9409 3.08691 27.214L3.02765 26.933C2.90396 26.4999 2.87819 26.0436 2.95549 25.5977C3.01991 25.2806 3.24407 25.0202 3.54555 24.9042C4.27478 24.6129 4.9628 25.0563 5.37508 26.0849C5.82344 27.1908 5.58378 28.0389 4.71541 28.3972L4.4964 27.8533C5.09421 27.5903 5.24622 27.0258 4.93443 26.2241C4.66903 25.5616 4.24902 25.2729 3.81097 25.4481C3.4528 25.5899 3.3652 25.9225 3.50177 26.6675L3.55329 26.982L3.59711 27.2552C3.68214 27.58 3.70016 27.9151 3.64863 28.2477C3.58421 28.5441 3.36778 28.7813 3.08433 28.8818C2.40149 29.1473 1.73667 28.7503 1.36304 27.8275C0.96106 26.817 1.17236 26.0771 1.94539 25.7343L2.16699 26.2627H2.16957Z" fill="#FFFFFF"/>
<path d="M1.70837 20.4344L4.16147 18.3669L4.17952 19.1326L2.09489 20.8494L2.77774 21.5892L4.2362 21.5557L4.25168 22.1563L0.082443 22.244L0.0644194 21.6485L1.70582 21.6124H2.14644L1.99955 21.4655L1.86558 21.316L0.0206029 19.3207L0 18.5293L1.71353 20.4292L1.70837 20.4344Z" fill="#FFFFFF"/>
<path d="M3.56363 13.982L5.16379 14.5336L4.96795 15.1059L3.36779 14.5336L0.484375 15.4075L0.721449 14.7141L2.51487 14.2243L2.7365 14.1599C2.83441 14.1315 2.93746 14.1083 3.03796 14.0903C2.92458 13.9588 2.81894 13.8247 2.72102 13.683L1.61045 12.1801L1.83976 11.5356L3.56363 13.982Z" fill="#FFFFFF"/>
<path d="M6.37755 6.3285L5.49886 7.40345L8.12973 9.55077L7.50359 10.3319L4.87527 8.17937L3.99658 9.24144L3.40137 8.76454L5.79262 5.84387L6.37497 6.3285H6.37755Z" fill="#FFFFFF"/>
<path d="M11.992 2.3793L9.88931 3.60376L10.3402 4.37453L12.2677 3.24802L12.6362 3.86154L10.701 4.9932L11.2215 5.87997L13.368 4.62973L13.757 5.29739L10.75 7.0503L8.6499 3.45167L11.6055 1.7168L11.9894 2.38445L11.992 2.3793Z" fill="#FFFFFF"/>
<path d="M20.0574 3.99558L18.9829 4.06518L18.4444 3.17067L16.7566 3.43619L16.5221 4.46216L15.4785 4.72768L16.5736 0.175249L17.6043 0.00769043L20.0574 3.993V3.99558ZM17.6919 1.84825C17.5142 1.57758 17.3595 1.29402 17.2359 0.997573C17.1946 1.31722 17.138 1.63945 17.0581 1.95394L16.8828 2.74533L18.1068 2.54942L17.6919 1.84825Z" fill="#FFFFFF"/>
<path d="M26.7572 5.33608L25.8811 4.99323L26.2135 3.75588C26.247 3.60895 26.3011 3.41561 26.3707 3.16556C26.4351 2.91293 26.5021 2.70155 26.5537 2.54431C26.6052 2.37933 26.6593 2.20403 26.7108 2.02359L26.8165 1.72714C26.5691 2.14732 26.4738 2.29941 26.2445 2.64226C26.1491 2.79178 26.0615 2.92067 25.9894 3.0212L24.8092 4.66843L24.0465 4.47251L23.8094 2.47728C23.7913 2.37159 23.7811 2.23239 23.7656 2.03132C23.7553 1.77354 23.7398 1.57247 23.7373 1.441C23.7295 1.31984 23.7295 1.16002 23.7295 0.93317L23.6239 1.43327C23.5079 1.98492 23.4487 2.22466 23.2837 2.88458L22.9333 4.22247L22.0005 4.08069L23.057 0L24.4639 0.273249L24.6597 2.1963C24.7061 2.65257 24.719 3.10885 24.6958 3.56512C24.8118 3.32796 24.9432 3.10112 25.0901 2.87942C25.2112 2.68866 25.3116 2.52626 25.4147 2.37933L26.5073 0.804279L27.842 1.2554L26.7547 5.33351L26.7572 5.33608Z" fill="#FFFFFF"/>
<path d="M18.8024 13.3608C18.2948 13.8016 17.2899 14.758 16.3184 15.6912L15.2259 16.7403C14.3395 16.5805 13.4402 16.5006 12.5383 16.5006C10.5001 16.5006 8.65255 17.0574 7.80994 17.9236C7.50846 18.1968 7.33583 18.586 7.33841 18.9959C7.35644 19.9703 8.47992 20.4704 8.82263 20.6019C10.4486 21.2953 12.3219 21.0504 13.7185 19.9678C14.6873 19.2357 15.6098 18.4365 16.4705 17.5755C17.1121 17.7173 17.8413 17.9158 18.6298 18.1452L19.3565 18.354C18.4185 19.2717 17.4496 20.2359 16.5555 21.0272L16.4911 21.0865C15.2517 22.1795 14.3627 22.9683 13.0717 23.2519C12.4842 23.4195 11.8581 23.3756 11.2989 23.1359C11.2731 23.1385 11.2473 23.1771 11.2473 23.1771C11.974 23.8422 12.9532 24.1541 13.9298 24.0356C15.0919 23.9376 16.4344 23.2107 17.8155 21.9321L19.6579 20.1095L20.9411 18.8232L23.5669 19.594C23.5849 19.5966 23.6029 19.6017 23.6184 19.6094C23.5849 19.6094 21.9822 21.1896 21.9822 21.1896L20.5933 22.5765C19.6605 23.5535 18.6452 24.4557 17.5682 25.2703C16.1767 26.2525 15.0043 26.7655 13.9633 26.8273C13.2804 26.8918 12.6001 26.7577 11.992 26.4432C11.9637 26.4407 11.9302 26.4768 11.9302 26.4768C12.7316 27.3017 13.837 27.7631 14.9888 27.7579C16.674 27.7141 18.1634 26.9047 20.4644 24.7754C21.5209 23.7932 22.58 22.7234 23.5076 21.7593L25.2289 20.0116C26.3034 20.2591 27.4062 20.3699 28.5065 20.3441C30.1402 20.3158 31.5136 19.5321 31.5317 18.6376C31.4904 18.1092 31.1709 17.6374 30.6942 17.4131C30.0938 17.0368 29.4007 16.8357 28.6895 16.8409C27.2749 16.913 25.9324 17.4827 24.8939 18.4443L24.0256 19.2073L23.7086 19.1197L21.3096 18.452C22.0157 17.7895 22.6186 17.2147 23.1649 16.7429C24.1595 15.8123 25.4221 15.2143 26.7749 15.039C27.3908 14.9977 28.4808 15.0544 28.9214 15.3715C28.9394 15.3638 28.9678 15.32 28.9678 15.32C28.1406 14.5543 27.0429 14.1445 25.9169 14.1831C25.0846 14.1831 23.7576 14.4461 22.1213 15.7066C21.2684 16.4207 20.4619 17.1837 19.7043 17.9957C19.7043 17.9854 18.4932 17.6194 18.4932 17.6194L18.1969 17.5291L16.9162 17.1425C16.9446 17.1425 17.6532 16.4568 17.6532 16.4568C18.5061 15.619 19.3229 14.8147 19.9465 14.2862C22.2321 12.3529 23.6931 12.0977 24.6955 12.0874C25.6103 12.0358 26.5224 12.273 27.2955 12.7653C27.3135 12.7653 27.347 12.7241 27.347 12.7241C26.3549 11.6775 24.9635 11.113 23.5231 11.1697C22.1084 11.1439 20.431 11.9275 18.8024 13.3711V13.3608ZM9.74768 20.2539C9.01845 20.2023 8.65513 19.9007 8.65513 19.3285C8.65513 19.2511 8.70667 17.4235 12.8733 17.2172C13.4814 17.1811 14.0921 17.1992 14.6951 17.2688C14.659 17.2765 14.2209 17.6761 14.2209 17.6761L13.9658 17.9158C12.9532 18.8309 11.2577 20.3493 9.74768 20.2539ZM26.659 18.7742C27.8701 17.9648 28.8647 17.5317 29.4831 17.5523C29.8516 17.5678 30.2922 17.6812 30.2922 18.1349C30.2922 18.5912 29.8465 18.9908 28.9807 19.3027C27.9319 19.594 26.8342 19.661 25.7571 19.496C26.0457 19.2408 26.3446 18.9959 26.6564 18.7742H26.659Z" fill="#FFFFFF"/>
</svg>
