<svg width="262" height="40" viewBox="0 0 262 40" fill="none" xmlns="http://www.w3.org/2000/svg">
<path d="M2.63861 29.8202L2.47885 29.931C5.73846 35.9399 11.9047 40.0026 18.9418 40.0026C29.4086 40.0026 37.8836 31.0421 37.8836 20.0013C37.8836 16.962 36.6236 14.4023 35.1342 12.4612C33.1553 9.88078 30.3363 8.64084 27.5276 8.62022C25.2085 8.5996 22.8095 9.38068 21.1192 10.9093C19.1892 12.6597 18.7589 14.9101 18.2615 18.5603C17.7127 22.5611 14.4917 25.3193 10.3534 25.3193C4.99635 25.3193 1.67748 22.0197 1.8965 16.9698C1.91711 16.6192 1.94546 16.2686 2.0073 15.9309C3.01739 9.971 9.42324 3.82033 19.0603 3.84095C25.528 3.84095 30.3852 5.29226 35.245 10.1824L35.4048 10.0715C32.1477 4.06006 25.9893 0 18.9418 0C8.48787 0 0 8.96049 0 20.0013C0 23.0405 1.26004 25.6003 2.74941 27.5414C4.71806 30.1218 7.54735 31.3514 10.356 31.3824C12.6751 31.4133 15.0741 30.6219 16.7644 29.0933C18.6944 27.3429 19.1248 25.0925 19.6221 21.4423C20.1709 17.4415 23.3996 14.6832 27.5302 14.6832C32.8976 14.6832 36.2165 17.9829 35.9974 23.0328C35.9768 23.3834 35.9485 23.734 35.8866 24.0717C34.8559 30.0316 28.4784 36.1822 18.8233 36.1616C12.3556 36.1616 7.49839 34.7103 2.63861 29.8202Z" fill="#FFFFFF"/>
<path d="M54.0605 8.6615H58.5699V31.3411H54.0605V8.6615ZM73.5229 29.864C74.1155 30.4879 74.6541 30.9802 75.1411 31.3411H72.0618C70.9822 31.3411 70.0391 31.1504 69.2351 30.7689C68.4312 30.3873 67.6478 29.7326 66.8851 28.7994L59.2321 19.2383L69.1063 8.6615H74.1851L64.28 19.0475L71.1703 27.178C72.1443 28.3431 72.9276 29.2376 73.5203 29.8615L73.5229 29.864Z" fill="#FFFFFF"/>
<path d="M80.9235 30.2455C79.0811 29.2608 77.6382 27.8791 76.5894 26.1004C75.5407 24.3217 75.0176 22.2878 75.0176 20.0012C75.0176 17.7147 75.5407 15.6808 76.5894 13.9021C77.6382 12.1234 79.0811 10.7417 80.9235 9.757C82.7659 8.77227 84.8299 8.27991 87.1155 8.27991C89.4011 8.27991 91.4342 8.77227 93.274 9.757C95.1164 10.7417 96.5594 12.1286 97.6081 13.9176C98.6568 15.7066 99.1799 17.7353 99.1799 20.0012C99.1799 22.2671 98.6568 24.2959 97.6081 26.0849C96.5594 27.8739 95.1164 29.2608 93.274 30.2455C91.4316 31.2302 89.3779 31.7226 87.1155 31.7226C84.8531 31.7226 82.7659 31.2302 80.9235 30.2455ZM90.9575 27.2114C92.0784 26.5773 92.957 25.6441 93.5935 24.417C94.2274 23.19 94.5469 21.7181 94.5469 20.0012C94.5469 18.2844 94.23 16.8151 93.5935 15.5854C92.9596 14.3584 92.0809 13.4252 90.9575 12.7911C89.834 12.1569 88.5559 11.8373 87.1155 11.8373C85.6751 11.8373 84.3635 12.1544 83.2426 12.7911C82.1191 13.4252 81.243 14.3584 80.6066 15.5854C79.9727 16.8125 79.6532 18.2844 79.6532 20.0012C79.6532 21.7181 79.9701 23.1874 80.6066 24.417C81.2405 25.6467 82.1191 26.5773 83.2426 27.2114C84.3635 27.8455 85.6545 28.1652 87.1155 28.1652C88.5765 28.1652 89.834 27.8481 90.9575 27.2114Z" fill="#FFFFFF"/>
<path d="M124.231 31.3411H121.373C120.209 31.3411 119.224 31.1401 118.42 30.7379C117.616 30.3358 116.874 29.6888 116.196 28.7994L109.337 19.5889H111.401C113.094 19.5889 114.375 19.2666 115.243 18.6196C116.111 17.9752 116.544 17.0265 116.544 15.7763C116.544 14.526 116.117 13.6367 115.259 13.0438C114.4 12.4509 113.084 12.1544 111.306 12.1544H108.479V31.3411H103.97V8.6615H112.226C114.024 8.6615 115.596 8.93733 116.941 9.4864C118.286 10.0381 119.317 10.8269 120.036 11.8528C120.755 12.8814 121.116 14.0827 121.116 15.4592C121.116 16.9827 120.675 18.3128 119.799 19.4445C118.92 20.5788 117.688 21.4191 116.099 21.9708L120.257 27.1805C121.675 28.9592 122.999 30.3461 124.226 31.3411H124.231Z" fill="#FFFFFF"/>
<path d="M141.949 27.7838V31.3411H127.027V8.6615H141.632V12.2189H131.536V17.872H140.014V21.365H131.536V27.7812H141.951L141.949 27.7838Z" fill="#FFFFFF"/>
<path d="M168.237 31.3411H165.539C164.65 31.3411 163.908 31.1349 163.315 30.7225C162.723 30.31 162.192 29.5727 161.728 28.5158L160.965 26.7371H150.741L148.741 31.3437H144.487L154.902 8.66406H157.378L165.475 26.2602C166.619 28.7375 167.539 30.4312 168.237 31.3437V31.3411ZM159.473 23.3061L155.853 14.9514L152.233 23.3061H159.471H159.473Z" fill="#FFFFFF"/>
<path d="M191.48 8.6615V31.3411H189.003L175.161 16.413V31.3411H171.288V8.6615H173.764L187.607 23.5896V8.6615H191.48Z" fill="#FFFFFF"/>
<path d="M227.358 31.3411H224.661C223.772 31.3411 223.029 31.1349 222.437 30.7225C221.844 30.31 221.313 29.5727 220.85 28.5158L220.087 26.7371H209.862L207.863 31.3437H203.608L214.024 8.66406H216.5L224.596 26.2602C225.74 28.7375 226.66 30.4312 227.358 31.3437V31.3411ZM218.595 23.3061L214.975 14.9514L211.354 23.3061H218.592H218.595Z" fill="#FFFFFF"/>
<path d="M230.407 8.6615H234.916V31.3411H230.407V8.6615Z" fill="#FFFFFF"/>
<path d="M261.964 31.3411H259.107C257.942 31.3411 256.958 31.1401 256.154 30.7379C255.35 30.3358 254.608 29.6888 253.93 28.7994L247.071 19.5889H249.135C250.827 19.5889 252.108 19.2666 252.976 18.6196C253.845 17.9752 254.278 17.0265 254.278 15.7763C254.278 14.526 253.85 13.6367 252.992 13.0438C252.134 12.4509 250.817 12.1544 249.039 12.1544H246.212V31.3411H241.703V8.6615H249.959C251.758 8.6615 253.329 8.93733 254.675 9.4864C256.02 10.0381 257.05 10.8269 257.769 11.8528C258.488 12.8814 258.849 14.0827 258.849 15.4592C258.849 16.9827 258.408 18.3128 257.532 19.4445C256.654 20.5788 255.422 21.4191 253.832 21.9708L257.991 27.1805C259.408 28.9592 260.733 30.3461 261.959 31.3411H261.964Z" fill="#FFFFFF"/>
</svg>
