<?xml version="1.0" encoding="UTF-8"?>
<svg id="_레이어_1" data-name="레이어_1" xmlns="http://www.w3.org/2000/svg" version="1.1" viewBox="0 0 51 51">
  <!-- Generator: Adobe Illustrator 29.0.1, SVG Export Plug-In . SVG Version: 2.1.0 Build 192)  -->
  <defs>
    <style>
      .st0 {
        fill: #4a6de1;
      }

      .st1 {
        fill: #fff;
      }
    </style>
  </defs>
  <rect class="st0" x="0" y="0" width="51" height="51" rx="6.9" ry="6.9"/>
  <g>
    <path class="st1" d="M15.8,36.4h-6.7c-.6,0-1-.5-1-1V15.8c0-.6.5-1,1-1h6.7c6.2,0,9.5,5.5,9.5,10.9s-3.1,10.8-9.5,10.8h0ZM15.4,17.8h-3c-.4,0-.8.3-.8.8v13.8c0,.4.3.8.8.8h3c4,0,6.1-3.4,6.1-7.7s-2.1-7.7-6.1-7.7Z"/>
    <path class="st1" d="M37.2,36.3h-8c-.7,0-1.1-.5-1.1-1.1V15.8c0-.7.5-1.1,1.1-1.1h7c3.9,0,6.5,1.9,6.5,5.5s-.8,3.8-2.5,4.7c2.1.8,3.7,2.6,3.7,5.3s-2.9,6.1-6.8,6.1h0ZM35.9,17.8h-3.8c-.2,0-.5.2-.5.5v4.7c0,.2.2.5.5.5h3.8c1.9,0,3.1-1,3.1-2.8s-1.2-2.8-3.1-2.8h0ZM36.6,26.6h-4.4c-.2,0-.5.2-.5.5v5.7c0,.2.2.5.5.5h4.7c1.8,0,3.4-1.5,3.4-3.3s-1.5-3.2-3.7-3.2h0Z"/>
  </g>
</svg>