<?xml version="1.0" encoding="UTF-8"?>
<svg id="_레이어_1" data-name="레이어_1" xmlns="http://www.w3.org/2000/svg" xmlns:xlink="http://www.w3.org/1999/xlink" version="1.1" viewBox="0 0 362 70">
  <!-- Generator: Adobe Illustrator 29.1.0, SVG Export Plug-In . SVG Version: 2.1.0 Build 142)  -->
  <defs>
    <style>
      .st0 {
        fill: url(#_무제_그라디언트_201);
      }

      .st1 {
        fill: #1f78fd;
      }

      .st2 {
        fill: url(#_무제_그라디언트_20);
      }
    </style>
    <linearGradient id="_무제_그라디언트_20" data-name="무제 그라디언트 20" x1="242.2" y1="31.9" x2="249.7" y2="31.9" gradientUnits="userSpaceOnUse">
      <stop offset="0" stop-color="#1f78fd"/>
      <stop offset=".2" stop-color="#1e6efd"/>
      <stop offset=".5" stop-color="#1d55fe"/>
      <stop offset=".5" stop-color="#1d54ff"/>
      <stop offset="1" stop-color="#1349c0"/>
    </linearGradient>
    <linearGradient id="_무제_그라디언트_201" data-name="무제 그라디언트 20" x1="207.6" y1="11" x2="350.4" y2="65" xlink:href="#_무제_그라디언트_20"/>
  </defs>
  <g>
    <path class="st1" d="M56.7,46.3v-24.8h6.5v24.8c0,11.6,6.7,18,17,18s17-6.4,17-18v-24.8h6.4v24.8c0,15.8-9.4,24-23.5,24s-23.5-8.2-23.5-24Z"/>
    <path class="st1" d="M107.2,63.9l34.2-36.6h-32.7v-5.8h41.4v5.2l-34.2,36.6h35.1v5.8h-43.8v-5.2Z"/>
    <path class="st1" d="M154.6,63.9l34.2-36.6h-32.7v-5.8h41.4v5.2l-34.2,36.6h35.1v5.8h-43.8v-5.2Z"/>
    <path class="st1" d="M27.2,20.3c-4.6,0-8.7,1.1-12.1,3.1,0,0,0,0,0,0,0,0-.2.1-.3.2h0s0,0,0,0c-3.6,2.1-6,4.6-7.5,6.3V.7H.7v44.3c0,15.3,10.7,25.3,25.4,25.3s25.7-10.6,25.7-25.2-10.7-24.8-24.6-24.8ZM26.2,64.4c-11.5,0-19.1-8.1-19.1-19.1s7.6-19.1,19.1-19.1,19.1,8.1,19.1,19.1-7.7,19.1-19.1,19.1Z"/>
  </g>
  <g>
    <polygon class="st2" points="242.2 38 249.7 35.9 246.3 25.9 242.2 38"/>
    <path class="st0" d="M326.8.7h-84.3c-18.9,0-34.2,15.3-34.2,34.2v34.2h118.4c18.9,0,34.2-15.3,34.2-34.2h0c0-18.9-15.3-34.2-34.2-34.2ZM256.6,56.1l-4-11.9-13.7,3.8-2.8,8.1h-11.1l14.4-42.5h14l14.4,42.5h-11.1ZM282.6,56.1h-11.1V13.7h11.1v42.5ZM336.5,56.1h-11.1v-21.2l-8.7,21.2h-7.9l-8.7-21.2v21.2h-11.1V13.7h11.3l12.4,30.2,12.4-30.2h11.3v42.5Z"/>
  </g>
</svg>