<?xml version="1.0" encoding="UTF-8"?>
<svg id="_레이어_1" xmlns="http://www.w3.org/2000/svg" version="1.1" viewBox="0 0 393.9 43">
  <!-- Generator: Adobe Illustrator 29.0.1, SVG Export Plug-In . SVG Version: 2.1.0 Build 192)  -->
  <defs>
    <style>
      .st0 {
        fill: #4a6de1;
      }

      .st1 {
        fill: #fff;
      }

      .st2 {
        fill: #313131;
      }
    </style>
  </defs>
  <g>
    <path class="st2" d="M17.9,5.4c0,9.1-6.6,16.6-15.2,18.8l-2.4-3.7c5.6-1.2,11.2-6,11.9-10.9H2v-4.2s15.9,0,15.9,0ZM18.5,23.6c5.7,0,9.5,3.5,9.5,7.9s-3.8,7.9-9.5,7.9-9.5-3.5-9.5-7.9,3.8-7.9,9.5-7.9ZM18.5,35.4c2.9,0,4.9-1.7,4.9-3.9s-1.9-3.9-4.9-3.9-4.9,1.7-4.9,3.9,1.9,3.9,4.9,3.9ZM28.1,23.4h-4.6v-4.1h-6.8v-4h6.8v-3h-5.2v-4h5.2V3.8h4.6v19.6Z"/>
    <path class="st2" d="M47.3,10.3h-4.4v2.1c0,7.3,1.9,11.7,5.8,14.8l-2.9,3.3c-2.1-1.8-4.3-4.7-5.3-7.6-1,3-3.2,6.1-5.7,8.3l-3.2-3.2c4.3-3.4,6.6-8.8,6.6-15.6v-2.1h-5.2v-4.1h14.2v4.1h.1ZM53.7,36.6h-4.4v-17.6h-4v-4.3h4V4.5h4.4v32.2h0ZM60.4,38.3h-4.5V3.8h4.5v34.5Z"/>
    <path class="st2" d="M84,10.3h-6.5v2.6c0,6.1,2.9,10.9,8,14l-2.8,3.5c-2.9-1.9-6-5-7.4-8-1.9,3.6-4.7,6.7-7.6,8.7l-3.2-3.3c4.9-3.4,8.4-8.3,8.4-14.8v-2.6h-6.8v-4.1h17.9v4.1h0ZM96.9,19.7h-5.2v18.7h-4.6V3.8h4.6v11.5h5.2v4.3h0Z"/>
    <path class="st2" d="M121.2,38.4h-4.6v-10.2h-6.7v10h-4.6v-10h-7.5v-4.2h31v4.2h-7.5v10.2h-.1ZM102.4,13c0-5.7,4.5-8.8,10.7-8.8s10.7,3.1,10.7,8.8-4.5,8.9-10.7,8.9-10.7-3.1-10.7-8.9ZM119,13c0-2.7-1.9-4.5-6-4.5s-6,1.8-6,4.5,1.9,4.6,6,4.6,6-1.8,6-4.6Z"/>
    <path class="st2" d="M157.9,5.5c0,5-.9,11.5-1.6,15.3h5.5v4.2h-13.3v13.3h-4.8v-13.3h-12.9v-4.2h20.7c.7-3.4,1.3-7.9,1.4-11.1h-18.6v-4.2h23.6Z"/>
    <path class="st2" d="M171.6,22.3c-5.1,0-8.8-3.5-8.8-8.8s3.7-8.8,8.8-8.8,8.7,3.5,8.7,8.8-3.6,8.8-8.7,8.8ZM190.1,38.5h-4.6v-9h-18.2v-4.1h22.8v13.1ZM171.6,8.8c-2.8,0-4.2,2.1-4.2,4.6s1.5,4.6,4.2,4.6,4.2-2.1,4.2-4.6-1.5-4.6-4.2-4.6ZM190.1,24.1h-4.6v-4.4h-4.6v-4h4.6v-4.4h-4.6v-4h4.6v-3.5h4.6v20.3Z"/>
  </g>
  <g>
    <path class="st2" d="M298.3,34h-31v-4.2h31v4.2ZM295.5,24.4h-25.5v-4.1h4.8l-.5-9.9h-3.5v-4.1h23.8v4.1h-3.5l-.5,9.9h4.9v4.1h0ZM279.2,20.2h6.9l.6-9.9h-7.9l.4,9.9Z"/>
    <path class="st2" d="M327.9,25.8h-9.4v4.5h12.8v4.2h-31v-4.2h13.4v-4.5h-9.2v-12.1h17.7v-3.7h-17.8v-4.2h22.4v12h-17.7v3.8h18.7v4.2h.1Z"/>
    <path class="st2" d="M364.3,29.5v4.2h-31v-4.2h31ZM360.4,6.6c0,6.5-1.2,15.3-2.6,21.3h-4.6c1.2-5.3,2.4-12.3,2.4-17.2h-18.4v-4.2h23.2Z"/>
    <path class="st2" d="M380.4,22.4c-2.5.5-5.7.6-8.2.6h-6.3v-10.9h8.3v-2.9h-8.3v-4h12.9v10.8h-8.4v3h1.9c2.6,0,5.3,0,8.1-.6v4.1h0ZM393.2,37.9h-22.4v-12.5h22.4v12.5ZM388.6,33.8v-4.5h-13.3v4.5h13.3ZM393.2,24h-4.5v-8.3h-2.8v8.3h-4.4V4.3h4.4v6.8h2.8V3.8h4.5v20.2Z"/>
  </g>
  <g>
    <path class="st0" d="M204.3,1h51c2.9.1,5.3,2.5,5.3,5.4v30.2c0,2.9-2.4,5.3-5.3,5.3h-51c-2.9,0-5.3-2.5-5.3-5.4V6.3c0-2.9,2.4-5.3,5.3-5.3Z"/>
    <g>
      <path class="st1" d="M217.2,35.7h-8.8c-.8,0-1.3-.6-1.3-1.3V8.7c0-.8.6-1.3,1.3-1.3h8.8c8.1,0,12.4,7.2,12.4,14.2s-4.1,14.1-12.4,14.1h0ZM216.7,11.4h-3.9c-.5,0-1,.4-1,1v18c0,.5.4,1,1,1h3.9c5.2,0,8-4.5,8-10s-2.8-10-8-10Z"/>
      <path class="st1" d="M245.1,35.5h-10.4c-.9,0-1.5-.7-1.5-1.5V8.8c0-.9.7-1.5,1.5-1.5h9.2c5.1,0,8.5,2.5,8.5,7.2s-1.1,4.9-3.2,6.1c2.8,1.1,4.8,3.4,4.8,6.9s-3.8,8-8.9,8h0ZM243.4,11.4h-5c-.3,0-.6.3-.6.6v6.2c0,.3.3.6.6.6h5c2.5,0,4-1.3,4-3.6s-1.6-3.7-4-3.7h0ZM244.3,22.8h-5.8c-.3,0-.6.3-.6.6v7.4c0,.3.3.6.6.6h6.2c2.4,0,4.5-1.9,4.5-4.3s-2-4.2-4.8-4.2h0Z"/>
    </g>
  </g>
</svg>