<?xml version="1.0" encoding="utf-8"?>
<!-- Generator: Adobe Illustrator 26.0.2, SVG Export Plug-In . SVG Version: 6.00 Build 0)  -->
<svg version="1.1" id="Layer_1" xmlns="http://www.w3.org/2000/svg" xmlns:xlink="http://www.w3.org/1999/xlink" x="0px" y="0px"
	 viewBox="0 0 267 48" style="enable-background:new 0 0 267 48;" xml:space="preserve">
<g>
	<path d="M0.07,46.48V3.7h13.2c4.76,0,8.33,1.08,10.71,3.25c2.38,2.17,3.57,5.29,3.57,9.37c0,4.12-1.23,7.32-3.7,9.6
		c-2.47,2.27-5.78,3.41-9.95,3.41H5.17v17.15H0.07z M5.17,25.13h7.72c3.27,0,5.63-0.68,7.08-2.04c1.44-1.36,2.17-3.51,2.17-6.44
		c0-3.06-0.7-5.27-2.1-6.63c-1.4-1.36-3.82-2.04-7.27-2.04H5.17V25.13z"/>
	<path d="M42.89,47.06c-4.46,0-7.96-1.38-10.49-4.14c-2.53-2.76-3.79-6.65-3.79-11.67v-0.96c0-4.93,1.31-8.83,3.92-11.7
		s6.09-4.3,10.42-4.3c4.46,0,7.97,1.39,10.52,4.18c2.55,2.78,3.83,6.66,3.83,11.64v0.89c0,4.97-1.32,8.89-3.95,11.76
		C50.71,45.62,47.23,47.06,42.89,47.06z M43.02,43.04c2.89,0,5.16-0.99,6.82-2.96c1.66-1.98,2.49-4.81,2.49-8.51v-1.59
		c0-4.12-0.86-7.1-2.58-8.93c-1.72-1.83-4.01-2.74-6.85-2.74c-2.89,0-5.16,1-6.82,3c-1.66,2-2.49,4.83-2.49,8.48v1.59
		C33.58,39.15,36.73,43.04,43.02,43.04z"/>
	<path d="M61.85,46.48V0.83h4.91v45.65H61.85z"/>
	<path d="M74.52,22.71v-7.47h7.82v7.47H74.52z M74.52,44.06V36.6h7.82v7.47H74.52z"/>
	<path d="M101.99,47.25c-5.48,0-9.95-0.89-13.39-2.68v-6.95c4.16,1.79,8.35,2.68,12.56,2.68c5.31,0,7.97-1.91,7.97-5.74
		c0-1.7-0.44-2.97-1.31-3.79c-0.87-0.83-2.48-1.54-4.81-2.14l-3.95-1.02c-3.44-0.89-6.02-2.3-7.75-4.21s-2.58-4.78-2.58-8.61
		c0-3.87,1.28-6.95,3.83-9.24s6.27-3.44,11.16-3.44c4.85,0,8.84,0.79,11.99,2.36v6.82c-4.29-1.49-8.1-2.23-11.41-2.23
		c-4.59,0-6.89,1.7-6.89,5.1c0,1.53,0.4,2.69,1.21,3.47c0.81,0.79,2.25,1.46,4.33,2.01l3.83,1.02c3.87,1.02,6.72,2.48,8.54,4.37
		c1.83,1.89,2.74,4.75,2.74,8.58c0,4.33-1.35,7.69-4.05,10.07C111.31,46.06,107.31,47.25,101.99,47.25z"/>
	<path d="M131.64,46.55V9.63h-12.18V2.81h33.47v6.82h-12.31v36.91H131.64z"/>
	<path d="M187.47,41.54c-3.74,3.81-8.65,5.71-14.73,5.71c-6.08,0-10.93-1.86-14.57-5.58c-3.63-3.72-5.45-9.13-5.45-16.22v-1.47
		c0-7.01,1.87-12.41,5.61-16.19c3.74-3.78,8.65-5.67,14.73-5.67c6.08,0,10.93,1.85,14.57,5.55c3.63,3.7,5.45,9.12,5.45,16.26v1.4
		C193.08,32.33,191.2,37.74,187.47,41.54z M172.93,40.36c3.49,0,6.13-1.26,7.94-3.79c1.81-2.53,2.71-6,2.71-10.42v-2.17
		c0-4.97-0.86-8.71-2.58-11.22c-1.72-2.51-4.47-3.78-8.26-3.82c-3.4,0-5.99,1.26-7.78,3.79c-1.79,2.53-2.68,6-2.68,10.42v2.23
		C162.28,35.37,165.83,40.36,172.93,40.36z"/>
	<path d="M215.9,47.25c-6.33,0-11.26-1.83-14.79-5.48c-3.53-3.65-5.29-9.1-5.29-16.32v-1.59c0-3.83,0.53-7.17,1.59-10.04
		c1.06-2.87,2.56-5.13,4.49-6.79c1.93-1.66,4.12-2.89,6.57-3.7c2.44-0.81,5.15-1.21,8.13-1.21c4.76,0,8.48,0.72,11.16,2.17v6.82
		c-3.91-1.28-7.25-1.91-10.01-1.91c-3.87,0-6.88,1.13-9.02,3.38c-2.15,2.25-3.22,5.74-3.22,10.46v2.17c0,4.89,0.98,8.59,2.93,11.09
		c1.96,2.51,5.08,3.76,9.37,3.76c3.53,0,6.95-0.74,10.26-2.23v6.82C224.93,46.38,220.87,47.25,215.9,47.25z"/>
	<path d="M231.73,46.55V2.81h8.99v43.74H231.73z M256.72,46.55c-7.18-10.24-12.41-17.62-15.68-22.12c1.66-2.3,4.25-5.85,7.78-10.68
		c3.53-4.82,6.18-8.49,7.97-11c1.06,0,2.63,0.01,4.72,0.03c2.08,0.02,3.63,0.03,4.65,0.03l-15.37,20.72
		c5.95,8.29,11.37,15.96,16.26,23.02H256.72z"/>
</g>
</svg>
