<?xml version="1.0" encoding="UTF-8"?>
<svg id="_6" data-name="6" xmlns="http://www.w3.org/2000/svg" viewBox="0 0 577.36 402">
  <defs>
    <style>
      .cls-1 {
        stroke: #ff8484;
      }

      .cls-1, .cls-2 {
        stroke-linecap: round;
      }

      .cls-1, .cls-2, .cls-3, .cls-4 {
        fill: none;
      }

      .cls-1, .cls-2, .cls-4 {
        stroke-linejoin: round;
      }

      .cls-5 {
        fill: #00c9de;
      }

      .cls-6 {
        fill: #fff;
      }

      .cls-7 {
        fill: #ffb137;
      }

      .cls-8 {
        fill: #ff8383;
      }

      .cls-9 {
        fill: #ff8484;
      }

      .cls-10 {
        fill: #d586be;
      }

      .cls-11 {
        fill: #6fc48e;
      }

      .cls-2, .cls-3 {
        stroke-width: 2px;
      }

      .cls-2, .cls-3, .cls-4 {
        stroke: #000;
      }

      .cls-3 {
        stroke-miterlimit: 10;
      }

      .cls-4 {
        stroke-width: 4px;
      }
    </style>
  </defs>
  <g>
    <g>
      <polygon class="cls-5" points="265.66 63.31 232.8 109.54 199.95 82.03 216.78 77.24 216.78 24.52 232.54 20.03 233.06 19.88 248.82 15.39 248.82 68.11 265.66 63.31"/>
      <polygon class="cls-9" points="133.7 224.6 111.06 231.07 110.33 231.29 87.69 237.77 87.69 60.57 63.51 67.49 110.69 1.04 157.88 40.47 133.7 47.39 133.7 224.6"/>
    </g>
    <g>
      <polyline class="cls-2" points="110.72 1 110.69 1.04 63.51 67.49 87.69 60.57 87.69 237.77 110.33 231.29"/>
      <polyline class="cls-2" points="110.67 1.02 110.69 1.04 157.88 40.47 133.7 47.39 133.7 224.6 111.06 231.07"/>
      <polyline class="cls-2" points="232.78 109.56 232.8 109.54 265.66 63.31 248.82 68.11 248.82 15.39 233.06 19.88"/>
      <polyline class="cls-2" points="232.82 109.55 232.8 109.54 199.95 82.03 216.78 77.24 216.78 24.52 232.54 20.03"/>
    </g>
  </g>
  <g>
    <g>
      <path d="m340.48,165.81l-.03.09c-6.87-2.49-15.25-3.89-25.47-3.52,0,0-.48-1.77-1.59-4.58,9.68.81,18.1,4,27.09,8.01Z"/>
      <path d="m278.31,123.19h0c-16.4-4.82-39.51-2.09-71.59,18.52,0,0-3.03-3.8-8.58-8.33l1.34-.11c34.83-20.85,63.04-18.14,78.83-10.09Z"/>
      <path d="m173.82,120.61h0c-14.52-3.94-33.14-2.92-54.38,12.07,0,0-39.85,27.53-42.32,76.71l-10.75-6.98c2.47-49.18,40.41-74.79,40.41-74.79,26.96-19.02,51.55-14.58,67.04-7.01Z"/>
      <path class="cls-6" d="m72.46,336.45c-17.52,3.65-29.79.52-38.36-5.23h0s-3.16-2.37-3.16-2.37l-.02-.02c-14.01-11.71-16.22-30.44-16.22-30.44-10.6-79.96,62.43-88.99,62.43-88.99,2.47-49.18,42.32-76.71,42.32-76.71,21.24-14.99,39.86-16.01,54.38-12.07,10.37,2.82,18.65,8.16,24.32,12.77,5.55,4.52,8.58,8.33,8.58,8.33,32.07-20.61,55.18-23.34,71.59-18.52,21.56,6.33,31.54,25.69,35.08,34.6h0c1.11,2.81,1.59,4.58,1.59,4.58,10.22-.37,18.6,1.04,25.47,3.52,27.25,9.86,30.77,36.69,30.77,36.69,5.52,48.87-35.9,58.25-35.9,58.25l-262.87,75.61Z"/>
      <path d="m66.37,202.4l10.75,6.98s-73.03,9.03-62.43,88.99c0,0,2.21,18.73,16.22,30.44l-12.44-9.33c-14.66-12.16-16.43-27.44-16.43-27.44-10.61-79.96,64.34-89.64,64.34-89.64Z"/>
    </g>
    <g>
      <path class="cls-2" d="m30.93,328.85c1,.82,2.04,1.62,3.16,2.37"/>
      <path class="cls-2" d="m313.38,157.8c-3.54-8.91-13.52-28.27-35.08-34.6-16.4-4.82-39.51-2.1-71.59,18.52,0,0-3.03-3.8-8.58-8.33-5.67-4.61-13.95-9.95-24.32-12.77-14.52-3.95-33.14-2.92-54.38,12.07,0,0-39.85,27.53-42.32,76.71,0,0-73.03,9.03-62.43,88.99,0,0,2.21,18.73,16.22,30.44"/>
      <path class="cls-2" d="m34.1,331.22c8.57,5.75,20.84,8.88,38.36,5.23l262.87-75.61s41.43-9.38,35.9-58.25c0,0-3.52-26.83-30.77-36.69-6.87-2.49-15.25-3.89-25.47-3.52,0,0-.48-1.77-1.59-4.58"/>
      <path class="cls-2" d="m340.48,165.81c-8.99-4-17.41-7.2-27.09-8.01h0"/>
      <path class="cls-2" d="m173.82,120.61c-15.5-7.57-40.08-12.01-67.04,7.01,0,0-37.94,25.6-40.41,74.79,0,0-74.94,9.68-64.34,89.64,0,0,1.77,15.28,16.43,27.44"/>
      <path class="cls-2" d="m278.31,123.19c-15.79-8.05-43.99-10.77-78.83,10.09"/>
      <polyline class="cls-2" points="18.46 319.49 30.9 328.82 30.93 328.85 34.09 331.21 34.1 331.22"/>
      <line class="cls-2" x1="77.11" y1="209.39" x2="66.37" y2="202.4"/>
    </g>
  </g>
  <g>
    <g>
      <path class="cls-6" d="m208.8,334.85c2.57,22.74-16.7,27.1-16.7,27.1l-122.29,35.17c-8.15,1.7-13.86.24-17.85-2.43h-.01s-1.47-1.11-1.47-1.11h0c-6.52-5.45-7.54-14.17-7.54-14.17-1.51-11.37.62-19.65,4.3-25.67,8.36-13.7,24.74-15.73,24.74-15.73.69-13.77,7.68-23.89,13.15-29.77,3.6-3.89,6.54-5.92,6.54-5.92,9.88-6.97,18.55-7.45,25.3-5.61,4.82,1.31,8.68,3.79,11.31,5.94,2.59,2.1,3.99,3.88,3.99,3.88,3.48-2.24,6.74-4.02,9.78-5.42,9.99-4.57,17.67-4.92,23.52-3.2,10.03,2.94,14.67,11.96,16.32,16.1.52,1.31.74,2.13.74,2.13,4.14-.15,7.63.33,10.58,1.22,0,0,0,0,.01,0,13.83,4.19,15.57,17.48,15.57,17.48Z"/>
      <path class="cls-6" d="m193.22,317.36c-2.95-.89-6.44-1.37-10.58-1.22,0,0-.22-.82-.74-2.13,4.59.42,8.48,1.63,11.33,3.35Z"/>
      <path class="cls-6" d="m137.03,298.52c12.45-5.09,22.47-3.7,28.55-.6-5.85-1.72-13.53-1.37-23.52,3.2l-4.88-2.24-.15-.35Z"/>
      <path d="m142.05,301.11c-3.04,1.4-6.3,3.18-9.78,5.42,0,0-1.41-1.77-3.99-3.88l.63-.05c2.8-1.68,5.51-3.03,8.12-4.09l.15.35,4.88,2.24Z"/>
      <path class="cls-6" d="m85.78,299.98c12.54-8.85,23.98-6.78,31.19-3.26h0c-6.76-1.83-15.42-1.35-25.3,5.62,0,0-2.94,2.03-6.54,5.92h0s-5.37-2.89-5.37-2.89c3.35-3.57,6.03-5.38,6.03-5.38Z"/>
      <path d="m85.12,308.25h0c-5.47,5.88-12.46,16-13.15,29.77l-5-3.25c.7-13.95,7.54-23.82,12.77-29.41l5.37,2.89Z"/>
      <path class="cls-6" d="m66.98,334.77l5,3.25s-16.38,2.03-24.74,15.73h0s-5.39-3.49-5.39-3.49c8.71-13.36,25.14-15.48,25.14-15.48Z"/>
      <path d="m50.48,393.58l-5.79-4.34c-6.82-5.66-7.64-12.77-7.64-12.77-1.55-11.67.82-20.11,4.79-26.22l5.39,3.49h0c-3.68,6.03-5.81,14.31-4.3,25.68,0,0,1.02,8.72,7.54,14.16Z"/>
    </g>
    <g>
      <path class="cls-2" d="m50.49,393.58c.46.38.95.75,1.47,1.1"/>
      <path class="cls-2" d="m193.22,317.36c-2.95-.89-6.44-1.37-10.58-1.22,0,0-.22-.82-.74-2.13-1.65-4.14-6.29-13.15-16.32-16.1-5.85-1.72-13.53-1.37-23.52,3.2-3.04,1.4-6.3,3.18-9.78,5.42,0,0-1.41-1.77-3.99-3.88-2.63-2.14-6.48-4.63-11.31-5.94-6.76-1.84-15.42-1.36-25.3,5.61,0,0-2.94,2.03-6.54,5.92-5.47,5.87-12.46,16-13.15,29.77,0,0-16.38,2.03-24.74,15.73-3.68,6.02-5.81,14.31-4.3,25.67,0,0,1.02,8.72,7.54,14.16"/>
      <path class="cls-2" d="m51.97,394.69c3.99,2.67,9.69,4.13,17.85,2.43l122.29-35.17s19.27-4.36,16.7-27.1c0,0-1.74-13.29-15.57-17.48"/>
      <path class="cls-2" d="m193.23,317.37s0,0-.01,0c-2.84-1.72-6.73-2.93-11.33-3.35"/>
      <path class="cls-2" d="m116.97,296.71c-7.21-3.52-18.65-5.59-31.19,3.26,0,0-2.69,1.81-6.03,5.38-5.23,5.58-12.07,15.45-12.77,29.41,0,0-16.43,2.12-25.14,15.48-3.98,6.11-6.34,14.55-4.79,26.22,0,0,.82,7.11,7.64,12.77"/>
      <path class="cls-2" d="m165.57,297.92c-6.07-3.1-16.1-4.49-28.55.6-2.61,1.07-5.32,2.41-8.12,4.09"/>
      <polyline class="cls-2" points="44.69 389.24 50.48 393.58 50.49 393.58 51.95 394.69 51.97 394.69"/>
      <line class="cls-2" x1="71.98" y1="338.02" x2="66.98" y2="334.77"/>
      <line class="cls-2" x1="41.84" y1="350.25" x2="47.23" y2="353.74"/>
      <line class="cls-2" x1="79.75" y1="305.36" x2="85.12" y2="308.25"/>
      <line class="cls-2" x1="137.18" y1="298.87" x2="142.05" y2="301.11"/>
    </g>
  </g>
  <g>
    <g>
      <path d="m146.52,349.51s6.03,2.53,5.31,6.52c-.71,3.92-10.61.69-11,.57-.83-1.24-2.1-2.35-3.12-3.13v-3.95c5.7,3.13,8.8,0,8.8,0Z"/>
      <path class="cls-6" d="m141.73,308.63s5.04,3.79,4.78,11.36c-.26,7.57.01,29.52.01,29.52,0,0-3.1,3.13-8.8,0l-1.26-13.58v16.06c-.12.12-.25.23-.38.33-3.23,2.61-8.27.42-9.52-.18-.19-.09-.29-.15-.29-.15l-3.66-26.51s-12.93-6.27-18.81-9.66c-5.88-3.4-5.26-10.18-5.26-10.18,3.61-2.2,14.21-7.8,30.36-9.02l12.82,12.02Z"/>
      <path d="m141.69,359.23c-.24,3.36-6.78,4.23-14.77-.95,0,0-.56-2.95-.4-5.95l.04-.18c1.25.61,6.28,2.79,9.52.18,0,0,.72.44,1.64,1.14,1.02.78,2.29,1.9,3.12,3.13.57.85.93,1.74.87,2.63Z"/>
      <path class="cls-6" d="m130.15,236.49l1.76-.03c.47,3.81-.44,6.3-.44,6.3-1.97,1.3-5.91,1.07-5.92,1.07,0,0-.16-.02-.41-.08-.44-.11-1.13-.34-1.48-.82l-.21-.08c.07-.18.13-.35.18-.54l.23.08c1.6-.97,2.72-3.1,2.72-5.59,0-.11,0-.21,0-.32.11-.02.21-.04.32-.05.81-.1,1.75-.07,2.41-.03.41.02.72.06.83.07Z"/>
      <path class="cls-6" d="m131.9,236.46l-1.76.03c-.11-.01-.42-.05-.83-.07l.02-.27c-.13-1.5-.55-3-.55-3,0,0-.39-1.05.12-1.68h0c.08-.11.19-.21.33-.28.99-.54,1.63.98,1.63.98.57,1.55.88,3,1.04,4.29Z"/>
      <path class="cls-10" d="m128.87,277.4c.87,9.98,1.05,19.15,1.05,19.15-.34.02-.68.05-1.01.07-16.15,1.22-26.75,6.82-30.36,9.02-.91.55-1.38.9-1.38.9-5.11-16.16-4.99-36.93-4.99-36.93,2.74,10.98,5.05,23.89,13.57,22.13,0,0,9.28-2.53,11.53-19.5,3.52-.93,2.59-5.44,2.59-5.44,0,0,1.26-.49,2.8-1.04,1-.36,1.05-1.36.96-2.02l.29-.05,3.07-.85c.84,4.35,1.45,9.55,1.88,14.56Z"/>
      <path class="cls-6" d="m129.34,236.15l-.02.27c-.67-.04-1.61-.07-2.41.03l-.04-.25c0-1.72-.54-3.27-.79-4.3-.26-1.03,0-1.68,0-1.68.1-.11.2-.19.29-.27,1.54-1.16,2.47,1.35,2.53,1.5h0c-.51.64-.12,1.69-.12,1.69,0,0,.42,1.5.55,3Z"/>
      <path class="cls-6" d="m126.87,236.2l.04.25c-.11.01-.22.03-.32.05-.09-2.45-1.28-4.52-2.92-5.38l-.16.05c-.05-.16-.09-.32-.14-.47-.18-1.04,1.05-1.6,1.05-1.6,1.17-.41,1.91.75,1.91.75l.05.12c-.09.08-.19.16-.29.27,0,0-.26.65,0,1.68.25,1.02.79,2.58.79,4.3Z"/>
      <path class="cls-6" d="m124.38,238.15c.17-2.39-.37-5.05-.88-6.98l.16-.05c1.64.87,2.83,2.93,2.92,5.38,0,.11,0,.21,0,.32,0,2.49-1.12,4.62-2.72,5.59l-.23-.08c.46-1.44.65-2.91.74-4.18Z"/>
      <path class="cls-10" d="m125.54,243.84s3.95.22,5.92-1.07c0,0,9.54,10.71,10.24,24.95.7,14.24-12.8,9.68-12.8,9.68h-.04c-.44-5-1.04-10.21-1.88-14.55l2.94-15.37-3.65,1-.04-.12-1.12-4.5.02-.09c.24.06.41.08.41.08Z"/>
      <path d="m124.96,220.03s2.44,5.74-2.34,8.4c-6.73,2.67-17.76,0-17.76,0-.32,1.91-.9,2.9-1.68,3.9-.42-.52-.92-.94-1.46-1.21h0c.02-.37.87-15.46,17.1-11.11l.41.11c.55.15,1.12.32,1.71.5,0,0,2.56.64,4.02-.58Z"/>
      <path class="cls-6" d="m117.38,236.5c0,.59.47,1.07,1.06,1.07s1.07-.48,1.07-1.07-.48-1.06-1.07-1.06-1.06.47-1.06,1.06Zm-10.91,11.26c-2.64-1.28-4.17-3.23-5.02-4.96l-.27-.05c2-.68,3.47-3.07,3.47-5.93,0-1.77-.57-3.37-1.48-4.49.78-1,1.36-1.98,1.68-3.9,0,0,11.03,2.67,17.76,0,0,0,.35.9.74,2.26.04.15.09.31.14.47.52,1.93,1.05,4.6.88,6.98-.09,1.27-.28,2.74-.74,4.18-.05.18-.11.36-.18.54-.82,2.26-2.34,4.37-5.22,5.48-.22.09-.45.16-.68.24-1.22.38-2.65.59-4.33.58-2.81-.01-5.02-.57-6.75-1.41Zm9.03-2.21c3.69,0,3.31-3.8,3.31-3.8h-6.98s.01,3.8,3.68,3.8Zm-2.61-9.05c0-.59-.48-1.06-1.07-1.06s-1.06.47-1.06,1.06.48,1.07,1.06,1.07,1.07-.48,1.07-1.07Z"/>
      <path class="cls-6" d="m123.43,260.64s.94,1.27.05,2.47c0,0,.09.26.14.62.09.66.04,1.66-.96,2.02-1.54.55-2.8,1.04-2.8,1.04,0,0,.93,4.51-2.59,5.44,0,0-2.41-1.98-4.66-5.44,0,0,0-10.08,7.06-11.2.67-.11,1.4-.13,2.2-.06,0,0,1.67.33,1.18,2.36,0,0,1.32,1.04.38,2.74Z"/>
      <path class="cls-6" d="m121.87,255.53c-.8-.07-1.53-.05-2.2.06l-.02-.1,1.05-5.48,2.96-.82,2.61-.72,3.65-1-2.94,15.37-3.07.85-.29.05c-.05-.36-.14-.62-.14-.62.88-1.21-.05-2.47-.05-2.47.94-1.7-.38-2.74-.38-2.74.49-2.03-1.18-2.36-1.18-2.36Z"/>
      <path class="cls-10" d="m118.23,248.35s2.53-.04,5.42.82v.02s-2.96.82-2.96.82l-1.05,5.48.02.1c-7.06,1.12-7.06,11.2-7.06,11.2,2.25,3.46,4.66,5.44,4.66,5.44-2.25,16.97-11.53,19.5-11.53,19.5-8.52,1.76-10.82-11.15-13.57-22.13-2.75-10.99,6.59-16.59,6.59-16.59l8.17-4.18c.76,1.33,2.64,3.32,7.04,3.32,0,0,3.85-.16,3.58-3.56h0c.24-.08.47-.15.68-.24Z"/>
      <path class="cls-6" d="m118.81,241.75s.38,3.8-3.31,3.8-3.68-3.75-3.68-3.8h6.98Z"/>
      <path d="m118.44,235.44c.59,0,1.07.47,1.07,1.06s-.48,1.07-1.07,1.07-1.06-.48-1.06-1.07.47-1.06,1.06-1.06Z"/>
      <path class="cls-6" d="m117.55,248.59c.27,3.4-3.58,3.56-3.58,3.56-4.39,0-6.28-2-7.04-3.32-.29-.5-.42-.9-.47-1.07,1.73.84,3.94,1.4,6.75,1.41,1.68,0,3.12-.2,4.33-.58h0Z"/>
      <path d="m111.82,235.44c.59,0,1.07.47,1.07,1.06s-.48,1.07-1.07,1.07-1.06-.48-1.06-1.07.48-1.06,1.06-1.06Z"/>
      <path class="cls-6" d="m104.01,219.63c4.38-2.67,9.79-1.53,9.79-1.53,3.21.71,5.02,1.9,5.02,1.9-16.24-4.35-17.09,10.74-17.1,11.11-.52-.27-1.09-.42-1.68-.42-.52,0-1.02.11-1.48.32.21-6.3,2.61-9.64,5.46-11.38Z"/>
      <path class="cls-6" d="m98.51,232.17c2.11,0,3.81,2.17,3.81,4.85s-1.7,4.85-3.81,4.85c-.47,0-.92-.11-1.33-.31-1.45-.69-2.48-2.46-2.48-4.54,0-1.84.81-3.45,2-4.27.54-.37,1.15-.58,1.81-.58Z"/>
      <path d="m97.43,231.75c-.77-2.12-.34-5.09,1.65-6.93,0,0,.47-3.53,4.88-5.27l.05.08c-2.84,1.74-5.25,5.08-5.46,11.38-.4.18-.78.43-1.12.74Z"/>
      <path class="cls-6" d="m102.32,237.02c0-2.68-1.7-4.85-3.81-4.85-.66,0-1.28.21-1.81.58l-.04-.13c.23-.33.49-.62.77-.87h0c.34-.31.72-.56,1.12-.74.47-.21.97-.32,1.48-.32.59,0,1.16.15,1.68.42h0c.54.28,1.04.7,1.46,1.22.91,1.11,1.48,2.72,1.48,4.49,0,2.86-1.47,5.25-3.47,5.93-.37.13-.75.19-1.15.19-1.09,0-2.09-.49-2.88-1.33l.03-.05c.41.2.87.31,1.33.31,2.11,0,3.81-2.17,3.81-4.85Z"/>
    </g>
    <g>
      <path class="cls-2" d="m103.18,232.33c.78-1,1.36-1.98,1.68-3.9,0,0,11.03,2.67,17.76,0,0,0,.35.9.74,2.26.04.15.09.31.14.47.52,1.93,1.05,4.6.88,6.98-.09,1.27-.28,2.74-.74,4.18-.05.18-.11.36-.18.54-.82,2.26-2.34,4.37-5.22,5.48-.22.09-.45.16-.68.24-1.22.38-2.65.59-4.33.58"/>
      <path class="cls-2" d="m113.22,249.17c-2.81-.01-5.02-.57-6.75-1.41-2.64-1.28-4.17-3.23-5.02-4.96"/>
      <path class="cls-2" d="m119.23,220.11c.55.15,1.12.32,1.71.5,0,0,2.56.64,4.02-.58,0,0,2.44,5.74-2.34,8.4"/>
      <path class="cls-2" d="m97.43,231.75c-.77-2.12-.34-5.09,1.65-6.93,0,0,.47-3.53,4.88-5.27"/>
      <polyline class="cls-2" points="115.23 236.72 116.85 238.82 115.5 239.69"/>
      <path class="cls-2" d="m111.82,241.75h6.98s.38,3.8-3.31,3.8-3.68-3.75-3.68-3.8Z"/>
      <path class="cls-3" d="m117.55,248.59c.27,3.4-3.58,3.56-3.58,3.56-4.39,0-6.28-2-7.04-3.32-.29-.5-.42-.9-.47-1.07-.02-.06-.02-.09-.02-.09"/>
      <path class="cls-2" d="m106.93,248.83l-8.17,4.18s-9.34,5.6-6.59,16.59c2.74,10.98,5.05,23.89,13.57,22.13,0,0,9.28-2.53,11.53-19.5,0,0-2.41-1.98-4.66-5.44l-7.06,8.27-3.82,4.48"/>
      <path class="cls-2" d="m98.55,260.37s4.28,2.2,7,14.69"/>
      <path class="cls-2" d="m112.61,266.79s0-10.08,7.06-11.2c.67-.11,1.4-.13,2.2-.06,0,0,1.67.33,1.18,2.36,0,0,1.32,1.04.38,2.74,0,0,.94,1.27.05,2.47,0,0,.09.26.14.62.09.66.04,1.66-.96,2.02-1.54.55-2.8,1.04-2.8,1.04,0,0,.93,4.51-2.59,5.44"/>
      <path class="cls-2" d="m123.48,263.11s-2.25-.22-4.66,1.15"/>
      <path class="cls-2" d="m123.43,260.64s-3.55-.22-5.87,1.37"/>
      <path class="cls-2" d="m123.05,257.9s-2.73-.38-5.48,1.43"/>
      <polyline class="cls-2" points="119.65 255.49 120.7 250.01 123.66 249.19 126.27 248.47 129.92 247.47 126.98 262.84 123.91 263.69"/>
      <path class="cls-2" d="m128.91,231.46c.08-.11.19-.2.33-.28.99-.54,1.63.98,1.63.98.57,1.55.88,3,1.04,4.29.47,3.81-.44,6.3-.44,6.3-1.97,1.3-5.91,1.07-5.92,1.07,0,0-.16-.02-.41-.08-.44-.11-1.13-.34-1.48-.82"/>
      <path class="cls-2" d="m129.34,236.15c-.13-1.5-.55-3-.55-3,0,0-.39-1.05.12-1.68"/>
      <path class="cls-2" d="m96.7,232.75c.54-.37,1.15-.58,1.81-.58,2.11,0,3.81,2.17,3.81,4.85s-1.7,4.85-3.81,4.85c-.47,0-.92-.11-1.33-.31-1.45-.69-2.48-2.46-2.48-4.54,0-1.84.81-3.45,2-4.27Z"/>
      <path class="cls-2" d="m101.71,231.12c.54.28,1.04.69,1.46,1.21.91,1.11,1.48,2.72,1.48,4.49,0,2.86-1.47,5.25-3.47,5.93-.37.13-.75.19-1.15.19-1.09,0-2.09-.49-2.88-1.33"/>
      <path class="cls-2" d="m97.43,231.75c.34-.31.72-.55,1.12-.74.47-.21.97-.32,1.48-.32.59,0,1.16.15,1.68.42"/>
      <line class="cls-2" x1="97.43" y1="231.75" x2="97.43" y2="231.75"/>
      <path class="cls-2" d="m96.66,232.62c.23-.33.49-.62.77-.87"/>
      <path class="cls-2" d="m123.66,231.12c1.64.87,2.83,2.93,2.92,5.38,0,.11,0,.21,0,.32,0,2.49-1.12,4.62-2.72,5.59"/>
      <path class="cls-2" d="m128.91,231.47h0c-.06-.16-.99-2.67-2.53-1.51-.09.08-.19.16-.29.27,0,0-.26.65,0,1.68.25,1.02.79,2.58.79,4.3"/>
      <path class="cls-2" d="m131.46,242.77s9.54,10.71,10.24,24.95c.7,14.24-12.8,9.68-12.8,9.68"/>
      <path class="cls-2" d="m92.17,269.6s-.12,20.77,4.99,36.93c0,0,.47-.34,1.38-.9,3.61-2.2,14.21-7.8,30.36-9.02.34-.02.67-.05,1.01-.07,0,0-.18-9.17-1.05-19.15-.44-5.01-1.04-10.21-1.88-14.56"/>
      <path class="cls-2" d="m118.23,248.35s2.53-.04,5.42.82"/>
      <line class="cls-2" x1="128.32" y1="256.74" x2="130.92" y2="267.23"/>
      <line class="cls-2" x1="125.12" y1="243.85" x2="126.24" y2="248.35"/>
      <path class="cls-2" d="m98.55,305.64s-.62,6.78,5.26,10.18c5.87,3.39,18.81,9.66,18.81,9.66l3.66,26.51s.1.05.29.15c1.25.61,6.28,2.79,9.52.18.13-.1.25-.21.38-.33v-28.86s.13-6.64-4.31-9.77l-10.99-7.73"/>
      <path class="cls-2" d="m128.91,296.61l12.82,12.02s5.04,3.79,4.78,11.36c-.26,7.57.01,29.52.01,29.52,0,0-3.1,3.13-8.8,0l-1.26-13.58"/>
      <path class="cls-2" d="m136.07,352.32s.72.44,1.64,1.14c1.02.78,2.29,1.9,3.12,3.13.57.85.93,1.74.87,2.63-.24,3.36-6.78,4.23-14.77-.95,0,0-.56-2.95-.4-5.95"/>
      <path class="cls-2" d="m146.52,349.51s6.03,2.53,5.31,6.52c-.71,3.92-10.61.69-11,.57,0,0-.01,0-.01,0"/>
      <line class="cls-2" x1="137.71" y1="349.51" x2="137.71" y2="353.47"/>
      <path class="cls-2" d="m101.71,231.12h0c.02-.37.87-15.46,17.1-11.11,0,0-1.81-1.19-5.02-1.9,0,0-5.41-1.14-9.79,1.53-2.84,1.74-5.25,5.08-5.46,11.38v.06"/>
      <path class="cls-2" d="m126.33,229.84s-.74-1.17-1.91-.75c0,0-1.23.57-1.05,1.6"/>
      <path class="cls-2" d="m130.19,236.5s-.02,0-.04,0c-.11-.01-.42-.05-.83-.07-.67-.04-1.61-.07-2.41.03-.11.01-.22.03-.32.05"/>
    </g>
  </g>
  <g>
    <g>
      <path class="cls-6" d="m574,370.5l-5.28,1.24c-2.97-8.16-8.42-14.32-14.28-20.18l5.3-1.18c5.85,5.85,11.28,12,14.25,20.12Z"/>
      <path d="m573.26,397.41l-8.65,2.94c3.14-1.2,5.81-4.28,6.3-11.05.51-6.85-.38-12.57-2.2-17.56l5.28-1.24c1.83,4.99,2.73,10.74,2.22,17.62-.3,4.15-1.42,7.5-2.96,9.29Z"/>
      <path d="m549.57,314.32c9.61,16.34,10.18,36.06,10.18,36.06l-5.3,1.18s-.67-19.68-10.41-35.96l5.53-1.28Z"/>
      <path class="cls-6" d="m544.04,315.6c9.74,16.27,10.41,35.96,10.41,35.96,5.86,5.86,11.31,12.03,14.28,20.18,1.81,4.98,2.7,10.71,2.2,17.56-.49,6.78-3.16,9.85-6.3,11.05-.17.06-.34.12-.51.17-5.14,1.62-11.26-1.4-11.26-1.4l-108.96-67.63c-17.61-10.93-26.44-34.44-19.89-53.74,3.4-10.03,11.24-13.16,17.71-13.93,5.48-.65,9.99.4,9.99.4.22-.57.47-1.11.72-1.63,4.23-8.56,12.54-10.94,15.6-11.54.05-.01.1-.02.15-.03.64-.12,1.02-.16,1.02-.16,18.64-1.91,29.04,11.85,34.59,24.41,4.41,9.95,5.76,19.15,5.76,19.15,17.31.85,27.96,10.25,34.5,21.18h0Z"/>
      <path class="cls-6" d="m549.57,314.32l-5.53,1.28h0c-6.54-10.93-17.19-20.32-34.5-21.18l5.57-1.51c17.36.85,27.98,10.37,34.47,21.41Z"/>
      <path d="m509.2,273.84c4.48,9.91,5.9,19.08,5.9,19.08l-5.57,1.51s-1.35-9.19-5.76-19.15l5.43-1.44Z"/>
      <path class="cls-6" d="m503.77,275.28c-5.55-12.56-15.95-26.32-34.59-24.41,0,0-.38.04-1.02.16l6.32-1.34c18.61-1.91,29.09,11.7,34.72,24.15l-5.43,1.44Z"/>
    </g>
    <g>
      <path class="cls-2" d="m468.01,251.06c-3.06.6-11.36,2.98-15.6,11.54-.25.52-.5,1.07-.72,1.63,0,0-4.51-1.05-9.99-.4-6.47.77-14.31,3.9-17.71,13.93-6.54,19.3,2.29,42.81,19.89,53.74l108.96,67.63s6.13,3.02,11.26,1.4"/>
      <path class="cls-2" d="m544.03,315.6c-6.54-10.93-17.19-20.32-34.5-21.18,0,0-1.35-9.19-5.76-19.15-5.55-12.56-15.95-26.32-34.59-24.41,0,0-.38.04-1.02.16"/>
      <path class="cls-2" d="m564.61,400.35c3.14-1.2,5.81-4.28,6.3-11.05.51-6.85-.38-12.57-2.2-17.56-2.97-8.16-8.42-14.32-14.28-20.18,0,0-.67-19.68-10.41-35.96"/>
      <path class="cls-2" d="m468.01,251.06c.05-.01.1-.02.15-.03l6.32-1.34c18.61-1.91,29.09,11.7,34.72,24.15,4.48,9.91,5.9,19.08,5.9,19.08,17.36.85,27.98,10.37,34.47,21.41,9.61,16.34,10.18,36.06,10.18,36.06,5.85,5.85,11.28,12,14.25,20.12,1.83,4.99,2.73,10.74,2.22,17.62-.3,4.15-1.42,7.5-2.96,9.29l-8.65,2.94c-.17.06-.34.12-.51.17"/>
      <path class="cls-2" d="m452.24,262.5c-1.59-.09-3.15-.09-5.19.15l-5.34,1.18h-.06"/>
      <line class="cls-2" x1="509.53" y1="294.42" x2="515.1" y2="292.91"/>
      <line class="cls-2" x1="503.77" y1="275.28" x2="509.2" y2="273.84"/>
      <polyline class="cls-2" points="544.03 315.6 544.04 315.6 549.57 314.32"/>
      <line class="cls-2" x1="554.44" y1="351.56" x2="559.74" y2="350.38"/>
      <polyline class="cls-2" points="568.71 371.74 568.72 371.74 574 370.5"/>
    </g>
  </g>
  <g>
    <g>
      <path class="cls-11" d="m484.91,204.37s0-10.64-7.66-11.27l.02-.19-.17-2.16-3.27-.5.03-.21c3.23-2.4,7.92-2.7,7.92-2.7h.55v.59c-.28,3.4,3.58,3.56,3.58,3.56,4.92,0,6.69-2.5,7.27-3.76l5.57,2.85s9.34,5.6,6.59,16.59c-2.74,10.98-5.05,23.89-13.56,22.13,0,0-9.29-2.53-11.54-19.5,0,0,2.41-1.98,4.67-5.44Z"/>
      <path class="cls-11" d="m505.34,207.17s.61,17.11-4.5,33.28c0,0-.35.06-.98.14-4.43.57-22.83,2.36-31.25-5.6,0,0,.14-4.56.57-10.74.45-6.58,1.24-15.02,2.54-21.73l.05-.29,1.89.29.32-.09c.12.38.39.72.88.9,1.54.55,2.8,1.04,2.8,1.04,0,0-.94,4.51,2.58,5.44,2.25,16.97,11.54,19.5,11.54,19.5,8.51,1.76,10.82-11.15,13.56-22.13Z"/>
      <path class="cls-6" d="m482.33,186.63c-3.36-1.67-4.48-4.94-4.89-7.76-.08-.54-.13-1.07-.16-1.56-.11-1.45.07-3.02.35-4.44.49-2.62,1.32-4.74,1.32-4.74,6.37,2.52,16.8,0,16.8,0,.77,4.48,4.01,6.02,4.01,6.02.45-.91,1.62-1.48,2.58-1.29h0c.85.18,1.54.95,1.44,2.61-.21,3.55-3.93,3.76-3.93,3.76-.26,1.72-1.95,5.7-6.62,7.54-1.48.59-3.26.95-5.39.97-2.3.01-4.09-.41-5.5-1.11Zm-.2-10.74c.55,0,1-.45,1-1.01s-.45-1.01-1-1.01-1.01.45-1.01,1.01.45,1.01,1.01,1.01Zm7.26-.46c0-.55-.45-1.01-1.01-1.01s-1,.45-1,1.01.45,1.01,1,1.01,1.01-.45,1.01-1.01Z"/>
      <path d="m456.94,269.97l-1.26,13.58c-5.7,3.13-8.8,0-8.8,0,0,0,.02-21.94.01-29.52-.01-8.53,4.78-11.36,4.78-11.36l16.95-7.69c8.42,7.96,26.82,6.17,31.25,5.6l.04.25s-.31,9.15-6.18,12.55c-5.88,3.39-22.93,6.13-22.93,6.13l-3.66,26.51s-.23.12-.62.31c-1.65.75-6.2,2.44-9.19.02-.13-.1-.25-.21-.38-.33v-16.06Z"/>
      <path class="cls-6" d="m493.18,187.73c-.58,1.27-2.35,3.76-7.27,3.76,0,0-3.86-.16-3.58-3.56v-1.3c1.41.71,3.2,1.12,5.5,1.11,2.13-.01,3.91-.38,5.39-.97l.16.42c-.04.12-.11.31-.2.52Z"/>
      <path d="m488.38,174.42c.56,0,1.01.45,1.01,1.01s-.45,1.01-1.01,1.01-1-.45-1-1.01.45-1.01,1-1.01Z"/>
      <path d="m483.13,174.88c0,.55-.45,1.01-1,1.01s-1.01-.45-1.01-1.01.45-1.01,1.01-1.01,1,.45,1,1.01Z"/>
      <path class="cls-6" d="m474.03,200.68c-.88-1.21.05-2.47.05-2.47-.93-1.7.39-2.74.39-2.74-.49-2.03,1.18-2.36,1.18-2.36.57-.05,1.1-.05,1.6-.01,7.66.63,7.66,11.27,7.66,11.27-2.26,3.46-4.67,5.44-4.67,5.44-3.52-.93-2.58-5.44-2.58-5.44,0,0-1.27-.49-2.8-1.04-.49-.18-.76-.52-.88-.9-.27-.78.06-1.74.06-1.74Z"/>
      <path d="m478.94,168.13s-.82,2.12-1.32,4.74h0s-.56-.19-1.12,0c-.97-2.63-.24-5.81-.24-5.81-1.08-.95-1.76-2.36-1.76-3.92,0-2.89,2.34-5.24,5.24-5.24,1.63,0,2.97.72,3.93,1.89h.08c17.06-4.43,17.46,4.91,17.46,4.91,3.18,2.93,1.22,7.93,1.12,8.16-.96-.19-2.13.38-2.58,1.29,0,0-3.25-1.54-4.01-6.02,0,0-10.43,2.52-16.8,0Z"/>
      <path class="cls-6" d="m476.49,172.87c.57-.18,1.12,0,1.12,0h0c-.28,1.42-.45,2.99-.35,4.44.04.49.09,1.02.16,1.56-.95-.32-2.28-1.64-2.07-4.16.1-1.2.61-1.67,1.12-1.84Z"/>
      <path class="cls-11" d="m466.67,206.54l.22-.15c.26-1.29,1.34-4.32,1.47-4.7l3.41.52-.05.29c-1.3,6.71-2.08,15.15-2.54,21.73-7.53,0-11.83-17.64-11.83-17.64,0,0,5.68-.65,7.17-3.29l2.15,3.23Z"/>
      <path class="cls-6" d="m466.87,286.36c.16,3-.4,5.95-.4,5.95-7.98,5.19-14.53,4.31-14.77.95-.06-.88.29-1.78.86-2.63,0,0,.01,0,.01,0,.82-1.23,2.09-2.35,3.1-3.13.92-.71,1.64-1.14,1.64-1.14,2.99,2.41,7.53.72,9.19-.02l.37.02Z"/>
      <path class="cls-6" d="m462.34,200.77l.22.04,2.57.39-.61,2.1c-1.49,2.64-7.17,3.29-7.17,3.29,0,0-3.79-7.43-1.55-12.69.64-1.5,1.51-2.29,2.43-2.63,2.31-.89,4.92.93,4.92.93,0,0,1.4,1.32,0,2.32,0,0,1.01,1.32-.39,2.36,0,0,1.01,1.79-.38,2.69,0,0,.1.61-.04,1.19Z"/>
      <path class="cls-6" d="m463.15,192.21s-2.61-1.82-4.92-.93l-.1-.25-.25-3.22,15.95,2.43,3.27.5.17,2.16-.02.19c-.5-.04-1.03-.04-1.6.01,0,0-1.67.33-1.18,2.36,0,0-1.32,1.04-.39,2.74,0,0-.93,1.27-.05,2.47,0,0-.32.95-.06,1.74l-.32.09-1.89-.29-3.41-.52-3.23-.49-2.57-.39-.22-.04c.14-.58.04-1.19.04-1.19,1.39-.9.38-2.69.38-2.69,1.4-1.04.39-2.36.39-2.36,1.4-1,0-2.32,0-2.32Z"/>
      <path class="cls-6" d="m455.68,283.55v3.95c-1.01.78-2.28,1.9-3.1,3.13,0,0,0,0-.01,0-.39.13-10.29,3.35-11-.57-.72-3.99,5.31-6.52,5.31-6.52,0,0,3.11,3.13,8.8,0Z"/>
    </g>
    <g>
      <path class="cls-2" d="m502.33,172.87c-.96-.19-2.13.38-2.58,1.29,0,0-3.25-1.54-4.01-6.02,0,0-10.43,2.52-16.8,0,0,0-.82,2.12-1.32,4.74-.28,1.42-.45,2.99-.35,4.44.04.49.09,1.02.16,1.56.41,2.82,1.53,6.09,4.89,7.76,1.41.71,3.2,1.12,5.5,1.11"/>
      <path class="cls-2" d="m487.83,187.75c2.13-.01,3.91-.38,5.39-.97,4.67-1.84,6.36-5.82,6.62-7.54,0,0,3.72-.21,3.93-3.76.1-1.67-.59-2.44-1.44-2.61"/>
      <path class="cls-2" d="m502.33,172.87h0c.09-.23,2.06-5.24-1.12-8.16,0,0-.4-9.35-17.46-4.92"/>
      <path class="cls-2" d="m477.61,172.87s-.56-.19-1.12,0c-.51.17-1.02.64-1.12,1.84-.21,2.53,1.12,3.85,2.07,4.16"/>
      <polyline class="cls-2" points="485.16 175.08 483.63 177.07 484.91 177.89"/>
      <path class="cls-3" d="m493.43,187.01s-.02.07-.05.19c-.04.12-.11.31-.2.52-.58,1.27-2.35,3.76-7.27,3.76,0,0-3.86-.16-3.58-3.56v-1.3h0"/>
      <path class="cls-2" d="m493.04,187.66l.14.07,5.57,2.85s9.34,5.6,6.59,16.59c-2.74,10.98-5.05,23.89-13.56,22.13,0,0-9.29-2.53-11.54-19.5,0,0,2.41-1.98,4.67-5.44l7.06,8.27,3.82,4.48"/>
      <path class="cls-2" d="m498.97,197.94s-4.28,2.2-7,14.69"/>
      <path class="cls-2" d="m484.91,204.37s0-10.64-7.66-11.27c-.5-.04-1.03-.04-1.6.01,0,0-1.67.33-1.18,2.36,0,0-1.32,1.04-.39,2.74,0,0-.93,1.27-.05,2.47,0,0-.32.95-.06,1.74.12.38.39.72.88.9,1.54.55,2.8,1.04,2.8,1.04,0,0-.94,4.51,2.58,5.44"/>
      <path class="cls-2" d="m474.03,200.68s2.25-.22,4.67,1.15"/>
      <path class="cls-2" d="m474.09,198.21s3.55-.22,5.87,1.37"/>
      <path class="cls-2" d="m474.48,195.47s2.72-.38,5.48,1.43"/>
      <path class="cls-2" d="m505.34,207.17s.61,17.11-4.5,33.28c0,0-.35.06-.98.14-4.43.57-22.83,2.36-31.25-5.6,0,0,.14-4.56.57-10.74.45-6.58,1.24-15.02,2.54-21.73"/>
      <path class="cls-2" d="m499.9,240.84s-.31,9.15-6.18,12.55c-5.88,3.39-22.93,6.13-22.93,6.13l-3.66,26.51s-.23.12-.62.31c-1.65.75-6.2,2.44-9.19.02-.13-.1-.25-.21-.38-.33v-28.86s-.13-6.64,4.31-9.77l13.94-5.17"/>
      <path class="cls-2" d="m468.62,234.99l-16.95,7.69s-4.79,2.83-4.78,11.36c0,7.58-.01,29.52-.01,29.52,0,0,3.11,3.13,8.8,0l1.26-13.58"/>
      <path class="cls-2" d="m452.57,290.64c-.57.84-.92,1.74-.86,2.63.24,3.36,6.78,4.23,14.77-.95,0,0,.56-2.95.4-5.95"/>
      <path class="cls-2" d="m457.32,286.36s-.71.44-1.64,1.14c-1.01.78-2.28,1.9-3.1,3.13"/>
      <path class="cls-2" d="m446.88,283.55s-6.03,2.53-5.31,6.52c.71,3.92,10.61.69,11,.57,0,0,.01,0,.01,0"/>
      <line class="cls-2" x1="455.68" y1="283.55" x2="455.68" y2="287.5"/>
      <path class="cls-2" d="m457.74,201.43l3.16.41c.91.05,1.28-.49,1.43-1.07.14-.58.04-1.19.04-1.19,1.39-.9.38-2.69.38-2.69,1.4-1.04.39-2.36.39-2.36,1.4-1,0-2.32,0-2.32,0,0-2.61-1.82-4.92-.93-.92.35-1.79,1.13-2.43,2.63-2.24,5.27,1.55,12.69,1.55,12.69,0,0,5.68-.65,7.17-3.29l.61-2.1"/>
      <path class="cls-2" d="m462.76,196.89s-2.74-.68-4.86-.42"/>
      <path class="cls-2" d="m463.15,194.53s-1.92-1.18-4.85-.74"/>
      <path class="cls-2" d="m462.38,199.58s-2.32-.63-4.48-.45"/>
      <path class="cls-2" d="m481.7,179.59c0,.09.32,2.4,3.25,2.7s3.61-2.37,3.61-2.37"/>
      <path class="cls-2" d="m481.78,187.34s-4.69.3-7.92,2.7"/>
      <polyline class="cls-2" points="458.13 191.03 457.88 187.82 473.83 190.24 477.1 190.74 477.27 192.9"/>
      <polyline class="cls-2" points="473.66 202.51 471.77 202.22 468.36 201.7 465.12 201.21 462.55 200.81"/>
      <polyline class="cls-2" points="464.52 203.31 466.67 206.54 468.62 209.48"/>
      <path class="cls-2" d="m457.35,206.6s4.3,17.64,11.83,17.64"/>
      <path class="cls-2" d="m468.37,201.66s0,.01-.01.04c-.14.38-1.21,3.41-1.47,4.7"/>
      <path class="cls-2" d="m483.66,159.8c-.96-1.17-2.3-1.89-3.93-1.89-2.89,0-5.24,2.34-5.24,5.24,0,1.56.68,2.96,1.76,3.92,0,0-.73,3.18.24,5.81h0"/>
    </g>
  </g>
  <g>
    <g>
      <path d="m514.45,314.39s.05,2.76,2.19,3.33c0,0-.78,2.67-4.89,2.51-4.12-.16-4.96-3.91-4.96-3.91.93-.55,1.94-1.59,1.82-3.46-.08-1.36-.64-2.04-1.31-2.24,0,0,1.27-5.42-1.55-9.31h0s5.01-2.79,8.29,1.94c3.27,4.74.41,11.14.41,11.14Z"/>
      <path d="m505.74,301.31c2.82,3.89,1.55,9.31,1.55,9.31-1.01-.32-2.3.41-2.67,1.45,0,0-6.47-1.65-8.34-6.67-3.54,5.54-12.87,7.26-12.87,7.26-.02.26-.05.52-.06.8,0,0-.9-.18-1.47.42-2.58-5.47-.39-11.83,5.65-15.21,6.04-3.39,12.86-.78,12.86-.78,2.59.65,4.27,1.92,5.35,3.42Z"/>
      <path class="cls-7" d="m500.84,326.44l-.06-.78.3-.02s6.97.38,10.5,7.35c0,0,8.63,19.3,6.23,42.67,0,0-.18.57-1.07,1.14-1.37.88-4.41,1.74-11.04.59-2.26-.39-4.32-.96-6.16-1.62l-.3-.13-.02.06c-3.87-.43-5.86-2.22-6.54-2.98-.19-.21-.28-.35-.28-.35-2.53-1.51-3.96-3.02-3.96-3.02l-1.2-18.29h-.11s-2.45,18.67-2.45,18.67h-.12c-4.96-.04-6.53-2.34-6.53-2.34,0,0,3.21-30.73,5.29-35.53,2.01-4.65,7.4-5.37,7.75-5.42,0,0,.01,0,.02,0l.26,1.47s.76,1.41,2.33,1.57,5.03-.64,7.18-3.04Z"/>
      <path class="cls-6" d="m494.85,326.45c2.46-.32,4.37-1.07,5.84-2.04l.09,1.25.06.78c-2.15,2.41-5.61,3.2-7.18,3.04s-2.33-1.57-2.33-1.57l-.26-1.47c1.1.17,2.34.19,3.78,0Z"/>
      <path class="cls-6" d="m499.21,376.28v-.59l.02-.06.3.13c1.84.66,3.9,1.23,6.16,1.62,6.64,1.15,9.68.29,11.04-.59l.51.02c-.6,4.09-2.84,9.34-9.96,11.89-.4.23-25.08,6.47-42.99,11.14l-.02-.03c1.65-1,2.59-3.52,2.66-6.78.05-2.1-.27-3.99-.9-5.48l4.53-1.38.04-.06,6.13,3.87,23.77-6.9-4.92-3.21-.02-.28c3.53-.15,3.64-3.3,3.64-3.3Z"/>
      <path class="cls-6" d="m486.78,380.52c-.01.59.24,1.23,1.21,1.5l.27-.04c.07.52.38,1.07,1.37,1.07l.54.05c.36.57,1.37.27,1.37.27,1.3-1.48,3.96-3.78,3.96-3.78.02,0,.04,0,.05,0l.02.28,4.92,3.21-23.77,6.9-1.98-13.91.87-.12c.07.15.31.93,1.22.8.91-.13,1.47-1.19,2.54-1.94h.01c.01.09.04.18.07.28,0,0,.64,1.1,2.75.02,1.24-.69,1.87-1.63,2.17-2.52h.01s3.4,2.23,3.4,2.23l.09.1c-.45.38-.9.84-1.29,1.38,0,0-1.97,2.74.17,4.24h0Z"/>
      <path d="m494.88,314.51c.06.53-.31,1.01-.84,1.08-.53.06-1.01-.31-1.08-.84s.31-1.02.84-1.08,1.01.31,1.08.84Z"/>
      <path class="cls-6" d="m492.39,372.36s.09.14.28.35l-.28.24s-2.4.19-4.49,1.94l-.09-.1-3.4-2.22h-.01c.27-.8.28-1.56.24-2.07h.02c1.65-.58,2.89-.85,3.77-1.16,0,0,1.43,1.51,3.96,3.02Z"/>
      <path class="cls-6" d="m488,315.81c.53-.06.91-.55.84-1.08s-.55-.91-1.08-.84c-.53.06-.91.55-.84,1.08.06.53.55.91,1.08.84Zm20.6-2.94c.12,1.87-.89,2.91-1.82,3.46-.77.46-1.48.59-1.48.59-.04,1.56-1.04,5.15-4.62,7.5-1.47.97-3.38,1.72-5.84,2.04-1.44.18-2.69.16-3.78,0h0s0,0-.02,0c-4.55-.74-6.34-4.21-7.16-7.23-.14-.51-.25-1-.34-1.47-.27-1.37-.29-2.89-.2-4.28.02-.27.04-.54.06-.8,0,0,9.33-1.73,12.87-7.26,1.87,5.02,8.34,6.67,8.34,6.67.37-1.04,1.66-1.78,2.67-1.45.68.21,1.23.88,1.31,2.24Zm-14.56,2.73c.53-.07.91-.55.84-1.08s-.55-.91-1.08-.84-.91.55-.84,1.08.55.91,1.08.84Z"/>
      <path d="m488.85,314.73c.06.53-.31,1.01-.84,1.08s-1.01-.31-1.08-.84c-.07-.53.31-1.01.84-1.08.54-.06,1.02.31,1.08.84Z"/>
      <path class="cls-6" d="m490.18,383.1l-.54-.05c-.99,0-1.3-.55-1.37-1.07l-.27.04c-.98-.28-1.23-.91-1.21-1.5h0c-2.14-1.5-.17-4.24-.17-4.24.39-.55.84-1,1.29-1.38,2.08-1.75,4.49-1.94,4.49-1.94l.28-.24c.68.76,2.67,2.55,6.54,2.98v.59s-.11,3.15-3.64,3.3c-.02,0-.04,0-.05,0,0,0-2.67,2.29-3.96,3.78,0,0-1.01.3-1.37-.27Z"/>
      <path class="cls-6" d="m483.34,313.46c-.09,1.39-.07,2.91.2,4.28.09.47.21.96.34,1.47-.95-.19-2.37-1.29-2.47-3.73-.03-.81.17-1.31.46-1.6.57-.6,1.47-.42,1.47-.42Z"/>
      <polygon class="cls-6" points="474.76 376.06 476.74 389.97 470.61 386.1 459.83 379.3 453.63 375.37 448.96 350.2 473.22 365.25 473.73 368.81 473.97 370.5 474.76 376.06"/>
      <path class="cls-6" d="m473.97,370.5l-.24-1.69c1.27-.91,4.28-1.43,4.28-1.43,0,0,1.57,2.3,6.53,2.34v.14s.06.25.09.64c.04.51.03,1.27-.24,2.07-.3.89-.92,1.83-2.17,2.52-2.11,1.07-2.75-.02-2.75-.02-.04-.09-.06-.19-.07-.28h-.01c-1.08.75-1.64,1.81-2.54,1.94-.91.14-1.15-.65-1.22-.8l-.87.12-.8-5.56Z"/>
      <path class="cls-6" d="m459.83,379.3l10.78,6.81-.04.06-4.53,1.38c-.87-2.08-2.33-3.37-4.22-3.37-3.42,0-4.75,3.4-4.78,7.06l-5.09,1.44c1.92-.81,3.02-3.47,3.09-7.01.04-1.62-.15-3.11-.52-4.39,0,0,2.08-.73,5.22-1.84l.09-.14Z"/>
      <path d="m466.04,387.55c.63,1.49.95,3.38.9,5.48-.06,3.26-1.01,5.78-2.66,6.78-.51.31-1.08.48-1.72.48-2.71,0-4.89-2.17-5.43-7.26-.06-.59-.09-1.2-.09-1.8.02-3.66,1.36-7.06,4.78-7.06,1.88,0,3.35,1.3,4.22,3.37Z"/>
      <path d="m454.53,381.28c.37,1.28.55,2.77.52,4.39-.07,3.53-1.17,6.2-3.09,7.01-.39.16-.82.25-1.28.25-2.71,0-4.89-2.17-5.43-7.26-.45-4.25.72-8.86,4.69-8.86,2.2,0,3.82,1.76,4.6,4.46Z"/>
    </g>
    <g>
      <path class="cls-2" d="m494.85,326.45c-1.44.18-2.69.16-3.78,0,0,0-.01,0-.02,0-4.55-.74-6.34-4.21-7.16-7.23-.14-.51-.25-1-.34-1.47-.27-1.37-.29-2.89-.2-4.28.02-.27.04-.54.06-.8,0,0,9.33-1.73,12.87-7.26,1.87,5.02,8.34,6.67,8.34,6.67.37-1.04,1.66-1.78,2.67-1.45.68.21,1.23.88,1.31,2.24.12,1.87-.89,2.91-1.82,3.46-.77.46-1.48.59-1.48.59-.04,1.56-1.04,5.15-4.62,7.5-1.47.97-3.38,1.72-5.84,2.04"/>
      <path class="cls-2" d="m483.34,313.46s-.9-.18-1.47.42c-.29.29-.49.79-.46,1.6.09,2.44,1.52,3.54,2.47,3.73"/>
      <polyline class="cls-2" points="490.81 314.68 489.58 316.76 490.9 317.39"/>
      <path class="cls-2" d="m488.03,319.39c.01.09.59,2.26,3.42,2.19s3.16-2.69,3.16-2.69"/>
      <path class="cls-2" d="m507.29,310.62s1.27-5.42-1.55-9.31c-1.08-1.5-2.76-2.77-5.35-3.42,0,0-6.82-2.6-12.86.78-6.04,3.38-8.23,9.74-5.65,15.21"/>
      <path class="cls-2" d="m505.74,301.31s5.01-2.79,8.29,1.94c3.27,4.74.41,11.14.41,11.14,0,0,.05,2.76,2.19,3.33,0,0-.78,2.67-4.89,2.51-4.12-.16-4.96-3.91-4.96-3.91"/>
      <path class="cls-2" d="m500.68,324.41l.09,1.25.06.78c-2.15,2.41-5.61,3.2-7.18,3.04s-2.33-1.57-2.33-1.57l-.26-1.47h0s0,0-.02,0c-.35.05-5.74.77-7.75,5.42-2.08,4.8-5.29,35.53-5.29,35.53,0,0,1.57,2.3,6.53,2.34h.12l2.45-18.66"/>
      <path class="cls-2" d="m504.11,336.05c-.41.21-11.73,36.31-11.73,36.31,0,0,.09.14.28.35.68.76,2.67,2.55,6.54,2.98l.02-.06,13.2-30.1"/>
      <path class="cls-2" d="m492.39,372.95s-2.4.19-4.49,1.94c-.45.38-.9.84-1.29,1.38,0,0-1.97,2.74.17,4.24"/>
      <path class="cls-2" d="m499.21,376.28s-.11,3.15-3.64,3.3c-.02,0-.04,0-.05,0,0,0-2.67,2.29-3.96,3.78,0,0-1.01.3-1.37-.27-.11-.16-.16-.39-.12-.72.19-1.48,3.1-3.72,3.1-3.72"/>
      <path class="cls-2" d="m491.37,377.55c-1.97,1.42-3.03,3.53-3.03,3.53,0,0-.13.44-.06.91.07.52.38,1.07,1.37,1.07.06,0,.14,0,.21,0"/>
      <path class="cls-2" d="m489.85,376.28c-2,1.5-2.74,3-2.74,3,0,0-.32.59-.33,1.24-.01.59.24,1.23,1.21,1.5"/>
      <polygon class="cls-2" points="459.83 379.3 453.63 375.37 448.96 350.2 473.22 365.25 473.73 368.81 473.97 370.5 474.76 376.06 476.74 389.97 470.61 386.1 459.83 379.3"/>
      <path class="cls-2" d="m485.78,335.45c-.08.24-5.35,8.96,1.33,13.92l.11,1.67,1.2,18.29"/>
      <polyline class="cls-2" points="495.59 379.86 500.51 383.07 476.74 389.97"/>
      <line class="cls-2" x1="484.4" y1="372.58" x2="487.81" y2="374.8"/>
      <path class="cls-2" d="m481.35,372.68c-.07-.02-2.13.81-1.95,2.11.01.09.04.18.07.28,0,0,.64,1.1,2.75.02,1.24-.69,1.87-1.63,2.17-2.52.27-.8.28-1.55.24-2.07-.03-.39-.09-.64-.09-.64"/>
      <path class="cls-2" d="m476.53,371.11s-1.27.36-2.24,1.26"/>
      <path class="cls-2" d="m475.63,369.72s-1.05.32-1.66.78"/>
      <path class="cls-2" d="m478.01,367.38s-3.02.52-4.28,1.43"/>
      <path class="cls-2" d="m478.39,372.04s-3,1.21-2.76,3.9c.07.15.31.93,1.22.8.91-.13,1.47-1.19,2.54-1.94"/>
      <path class="cls-2" d="m517.24,376.81c-.6,4.09-2.84,9.34-9.96,11.89-.4.23-25.08,6.47-42.99,11.14"/>
      <path class="cls-2" d="m466.04,387.55c.63,1.49.95,3.38.9,5.48-.06,3.26-1.01,5.78-2.66,6.78-.51.31-1.08.48-1.72.48-2.71,0-4.89-2.17-5.43-7.26-.06-.59-.09-1.2-.09-1.8.02-3.66,1.36-7.06,4.78-7.06,1.88,0,3.35,1.3,4.22,3.37Z"/>
      <path class="cls-2" d="m454.53,381.28c.37,1.28.55,2.77.52,4.39-.07,3.53-1.17,6.2-3.09,7.01-.39.16-.82.25-1.28.25-2.71,0-4.89-2.17-5.43-7.26-.45-4.25.72-8.86,4.69-8.86,2.2,0,3.82,1.76,4.6,4.46Z"/>
      <line class="cls-2" x1="451.95" y1="392.68" x2="457.04" y2="391.23"/>
      <line class="cls-2" x1="466.04" y1="387.55" x2="470.57" y2="386.17"/>
      <path class="cls-2" d="m499.54,375.76c1.84.66,3.9,1.23,6.16,1.62,6.64,1.15,9.68.29,11.04-.59.89-.57,1.07-1.14,1.07-1.14,2.4-23.37-6.23-42.67-6.23-42.67-3.53-6.97-10.5-7.35-10.5-7.35"/>
      <path class="cls-2" d="m484.65,370.5c1.65-.58,2.89-.85,3.77-1.16,0,0,1.43,1.51,3.96,3.02"/>
      <path class="cls-2" d="m454.53,381.28s2.08-.73,5.22-1.84"/>
    </g>
  </g>
  <g>
    <g>
      <path class="cls-6" d="m544.7,265.26v19.62c0,1.46-1.04,2.01-2.32,1.22l-11.82-7.31-.05-.03-7.06,8.27,2.1-11.34-10.48-6.48c-1.28-.79-2.32-2.63-2.32-4.09v-19.62c0-1.46,1.04-2.01,2.32-1.22l27.31,16.88c1.28.8,2.32,2.63,2.32,4.09Zm-9.12,10.22v-12.02l-15.42-9.54v12.03l15.42,9.54Z"/>
      <polygon class="cls-6" points="535.57 266.45 535.57 275.48 530.17 266.48 535.57 266.45"/>
      <polygon class="cls-6" points="535.57 263.46 535.57 266.45 530.17 266.48 527.86 266.49 525.56 263.63 520.15 256.91 520.15 253.92 535.57 263.46"/>
      <polygon class="cls-6" points="530.17 266.48 535.57 275.48 520.15 265.95 525.56 263.63 527.86 266.49 530.17 266.48"/>
      <polygon class="cls-6" points="520.15 256.91 525.56 263.63 520.15 265.95 520.15 256.91"/>
      <path class="cls-6" d="m481.14,142.09l-.02,6.57-3.92-9.05-8.32-5.18c-1.01-.63-1.84-2.1-1.84-3.27l.06-15.7c0-1.17.84-1.61,1.85-.98l21.68,13.49c1.02.63,1.84,2.1,1.84,3.27l-.05,15.7c0,1.17-.84,1.61-1.86.98l-9.38-5.84h-.04Zm1.21-9.07l-4.37-5.92-.02,6.4,4.39-.47Z"/>
      <polygon class="cls-9" points="477.98 127.09 482.35 133.02 477.96 133.49 477.98 127.09"/>
      <polygon points="113.57 182.46 113.57 184.44 105.38 188.94 105.38 186.84 113.57 182.46"/>
      <path d="m110.8,189.61c1.53-.73,2.77-.32,2.77.91s-1.24,2.81-2.77,3.54c-1.53.72-2.77.32-2.77-.91s1.24-2.81,2.77-3.53Z"/>
      <path d="m105.38,195.06c0,1.33-1.35,3.05-3,3.83-1.66.79-3,.35-3-.98s1.34-3.04,3-3.83c1.65-.78,3-.34,3,.98Z"/>
      <path class="cls-6" d="m113.57,190.51c0-1.23-1.24-1.64-2.77-.91-1.53.72-2.77,2.31-2.77,3.53s1.24,1.64,2.77.91c1.53-.73,2.77-2.31,2.77-3.54Zm-8.19-1.58l8.19-4.5v-1.98l-8.19,4.38v2.1Zm-3,9.96c1.65-.78,3-2.5,3-3.83s-1.35-1.77-3-.98c-1.66.79-3,2.5-3,3.83s1.34,1.77,3,.98Zm22.47-22.72v18.32c0,1.36-1.11,2.77-2.48,3.15l-12.61,3.4-.05.02v7.69l-5.29-6.27-11.18,3.02c-1.36.37-2.47-.45-2.47-1.81v-18.32c0-1.36,1.11-2.78,2.47-3.15l29.13-7.87c1.37-.37,2.48.45,2.48,1.81Z"/>
    </g>
    <g>
      <path class="cls-2" d="m477.2,139.62l-8.32-5.18c-1.01-.63-1.84-2.1-1.84-3.27l.06-15.7c0-1.17.84-1.61,1.85-.98l21.68,13.49c1.02.63,1.84,2.1,1.84,3.27l-.05,15.7c0,1.17-.84,1.61-1.86.98l-9.38-5.84"/>
      <polygon class="cls-1" points="477.98 127.09 477.96 133.49 482.35 133.02 477.98 127.09"/>
      <polyline class="cls-2" points="477.2 139.62 481.11 148.66 481.14 142.09 481.14 142.07"/>
      <path class="cls-2" d="m525.54,275.7l-10.48-6.48c-1.28-.79-2.32-2.63-2.32-4.09v-19.62c0-1.46,1.04-2.01,2.32-1.22l27.31,16.88c1.28.8,2.32,2.63,2.32,4.09v19.62c0,1.46-1.04,2.01-2.32,1.22l-11.82-7.31"/>
      <polyline class="cls-2" points="525.54 275.7 523.44 287.04 530.5 278.77"/>
      <path class="cls-2" d="m104.42,202.48l-11.18,3.02c-1.36.37-2.47-.45-2.47-1.81v-18.32c0-1.36,1.11-2.78,2.47-3.15l29.13-7.87c1.37-.37,2.48.45,2.48,1.81v18.32c0,1.36-1.11,2.77-2.48,3.15l-12.61,3.4"/>
      <polyline class="cls-2" points="104.42 202.48 109.71 208.75 109.71 201.06"/>
      <polygon class="cls-2" points="535.57 275.48 520.15 265.95 520.15 256.91 520.15 253.92 535.57 263.46 535.57 266.45 535.57 275.48"/>
      <polyline class="cls-2" points="520.15 256.91 525.56 263.63 527.86 266.49 530.17 266.48 535.57 266.45"/>
      <line class="cls-2" x1="520.15" y1="265.95" x2="525.56" y2="263.63"/>
      <line class="cls-2" x1="530.17" y1="266.48" x2="535.57" y2="275.48"/>
      <path class="cls-2" d="m105.38,195.06c0,1.33-1.35,3.05-3,3.83-1.66.79-3,.35-3-.98s1.34-3.04,3-3.83c1.65-.78,3-.34,3,.98Z"/>
      <path class="cls-2" d="m113.57,190.51c0,1.23-1.24,2.81-2.77,3.54-1.53.72-2.77.32-2.77-.91s1.24-2.81,2.77-3.53c1.53-.73,2.77-.32,2.77.91Z"/>
      <polyline class="cls-2" points="105.38 195.06 105.38 188.94 105.38 186.84 113.57 182.46 113.57 184.44 113.57 190.27"/>
      <line class="cls-2" x1="105.38" y1="188.94" x2="113.57" y2="184.44"/>
    </g>
  </g>
  <path class="cls-8" d="m207.8,86.71c-.29.09-.57.04-.75-.16-2.62-2.89-6.88-3.8-11.4-2.41-4.29,1.32-8.28,4.47-10.95,8.66-.31.49-.89.74-1.29.54-.4-.19-.46-.75-.15-1.24,3.02-4.73,7.53-8.3,12.39-9.79,5.12-1.57,9.94-.55,12.9,2.72.29.32.19.92-.22,1.34-.16.16-.35.27-.53.33Z"/>
  <path class="cls-8" d="m204.05,90.71c-.29.09-.58.04-.76-.17-1.7-1.99-4.52-2.63-7.54-1.7-2.91.89-5.67,3.15-7.38,6.03-.3.5-.87.77-1.28.6-.41-.17-.5-.71-.2-1.21,2.05-3.46,5.36-6.17,8.86-7.24,3.64-1.11,7.02-.35,9.06,2.04.28.33.17.93-.25,1.35-.16.15-.34.26-.51.31Z"/>
  <path class="cls-8" d="m200.25,95.17c-.33.1-.65.02-.81-.25-.71-1.17-2.13-1.61-3.69-1.13-1.48.45-2.86,1.68-3.6,3.19-.25.52-.81.84-1.25.72-.44-.12-.59-.63-.34-1.14,1.06-2.18,3.05-3.95,5.19-4.6,2.25-.69,4.29-.07,5.32,1.62.23.38.05.98-.4,1.35-.13.11-.28.19-.42.23Z"/>
  <path class="cls-8" d="m198.1,98.19c0,1.24-1,2.55-2.24,2.93s-2.24-.32-2.24-1.56,1-2.55,2.24-2.93,2.24.32,2.24,1.56Z"/>
  <g>
    <g>
      <path class="cls-6" d="m350.5,137.33c-.04.24-.06.49-.06.74v6.45c0,2.75,2.24,5,4.99,5h9.76c2.75,0,4.99-2.25,4.99-5v-6.45c0-.25-.02-.5-.06-.74-.36-2.4-2.44-4.26-4.94-4.26h-9.76c-2.49,0-4.58,1.85-4.94,4.26Zm27.91-7.49v22.52c0,1.76-1.44,3.21-3.21,3.21h-5.01l-5.07,7.46v-7.46h-19.38c-1.76,0-3.21-1.44-3.21-3.21v-22.52c0-1.76,1.44-3.21,3.21-3.21h29.47c1.76,0,3.21,1.44,3.21,3.21Z"/>
      <path class="cls-10" d="m370.13,137.33h-6.56v-1.4c.42,0,.77-.35.77-.77s-.35-.76-.77-.76v-1.32h1.62c2.49,0,4.58,1.85,4.94,4.26Z"/>
      <path d="m363.57,134.39c.42,0,.77.34.77.76s-.35.77-.77.77-.76-.35-.76-.77.34-.76.76-.76Z"/>
      <path class="cls-10" d="m363.57,135.93v1.4h-6.53v-1.4c.42,0,.77-.35.77-.77s-.35-.76-.77-.76v-1.32h6.53v1.32c-.42,0-.76.34-.76.76s.34.77.76.77Z"/>
      <path d="m364.63,146.34h-3.35s-.04,0-.06-.02-.04-.03-.06-.06c-.01-.03-.03-.06-.04-.1-.01-.04-.01-.1-.01-.16,0-.06,0-.11.01-.15,0-.04.02-.08.04-.1.01-.03.03-.05.05-.06.03-.02.04-.03.07-.03h1.34v-4.87l-1.24.74c-.06.03-.12.05-.15.06s-.06,0-.09-.03c-.03-.02-.04-.06-.04-.1-.01-.05-.01-.12-.01-.19,0-.05,0-.1,0-.14s.01-.07.02-.1c.01-.03.03-.05.04-.07s.04-.04.07-.06l1.47-.95s.03-.02.05-.03.04-.01.07-.02c.03,0,.06-.01.11-.01h.15c.08,0,.14,0,.2,0,.05,0,.09.02.12.03.03,0,.05.03.06.04.01.01.02.03.02.05v5.63h1.15s.05,0,.08.03c.02.01.04.03.06.06.01.03.03.06.03.1,0,.04.01.1.01.15,0,.06,0,.12-.01.16-.01.04-.03.08-.04.1-.02.03-.04.04-.06.06-.03.01-.04.02-.07.02Z"/>
      <path class="cls-6" d="m356.31,142.79s-.03.06-.04.1-.01.1-.01.15c0,.07,0,.13.01.17.01.04.03.08.05.1s.04.04.06.06c.03,0,.05.01.08.01h.63c.26,0,.5.03.71.09.21.05.38.13.52.24.14.11.25.23.33.38.07.15.11.31.11.49,0,.17-.03.32-.09.46s-.14.26-.26.37-.26.18-.43.24c-.17.05-.37.08-.58.08-.23,0-.44-.03-.63-.08-.19-.05-.35-.11-.49-.17-.14-.06-.26-.12-.35-.17s-.15-.08-.18-.08c-.04,0-.08.02-.1.07-.03.04-.03.13-.03.24,0,.07,0,.13,0,.18,0,.04.01.08.02.12.01.04.03.06.04.09.01.02.03.04.05.06.03.03.09.06.19.12s.21.1.36.15.31.09.5.12c.19.04.38.05.6.05.35,0,.67-.04.96-.13.28-.09.51-.22.71-.38.15-.13.26-.28.36-.44l1.84.21s-.04.03-.05.06c-.02.03-.03.06-.04.1-.01.04-.01.1-.01.15,0,.06,0,.12.01.16,0,.04.03.08.04.1.02.03.04.04.06.06s.04.02.06.02h3.35s.04,0,.07-.02c.02-.01.04-.03.06-.06.01-.03.03-.06.04-.1,0-.04.01-.1.01-.16,0-.06,0-.11-.01-.15,0-.04-.02-.08-.03-.1-.02-.03-.04-.05-.06-.06-.03-.02-.05-.03-.08-.03h-1.15v-5.63s0-.04-.02-.05c0-.02-.03-.04-.06-.04-.03-.01-.07-.03-.12-.03-.06,0-.12,0-.2,0h-.15s-.08,0-.11.01c-.03,0-.05.01-.07.02s-.04.02-.05.03l-1.47.95s-.05.04-.07.06-.03.04-.04.07c0,.03-.01.06-.02.1s0,.09,0,.14l-1.78-.02c-.01-.17-.04-.32-.1-.47-.08-.2-.19-.36-.34-.5-.15-.14-.33-.24-.56-.32s-.49-.12-.78-.12c-.21,0-.41.02-.59.06-.19.04-.35.09-.49.15s-.26.12-.35.18c-.1.06-.16.1-.19.13s-.05.06-.06.08l-.04.08s-.01.06-.02.1c0,.04,0,.08,0,.13,0,.08,0,.13,0,.18,0,.04.02.08.03.1.01.03.03.04.04.05.02,0,.04.01.06.01.03,0,.09-.03.17-.09s.19-.12.31-.19c.12-.06.26-.13.42-.19s.34-.08.53-.08c.17,0,.33.03.46.08s.24.12.33.21c.08.09.15.2.19.32.04.12.06.24.06.38,0,.18-.03.34-.1.49s-.15.28-.28.38c-.12.11-.27.19-.44.24-.17.06-.37.08-.58.08h-.56s-.06,0-.08.02c-.02.01-.04.03-.06.06Zm13.88-4.72v6.45c0,2.75-2.24,5-4.99,5h-9.76c-2.75,0-4.99-2.25-4.99-5v-6.45c0-.25.02-.5.06-.74h19.63c.04.24.06.49.06.74Z"/>
      <path d="m357.04,134.39c.42,0,.77.34.77.76s-.35.77-.77.77-.76-.35-.76-.77.34-.76.76-.76Z"/>
      <path class="cls-10" d="m357.04,135.93v1.4h-6.55c.36-2.4,2.44-4.26,4.94-4.26h1.61v1.32c-.42,0-.76.34-.76.76s.34.77.76.77Z"/>
      <path d="m356.75,145.65c.19.06.4.08.63.08.22,0,.42-.03.58-.08.17-.06.31-.13.43-.24s.2-.22.26-.37.09-.29.09-.46c0-.18-.04-.34-.11-.49-.08-.15-.19-.27-.33-.38-.14-.1-.31-.19-.52-.24-.21-.06-.44-.09-.71-.09h-.63s-.05,0-.08-.01c-.03-.01-.04-.03-.06-.06s-.04-.06-.05-.1c0-.04-.01-.1-.01-.17,0-.06,0-.12.01-.15s.03-.08.04-.1c.01-.03.04-.04.06-.06.03-.01.05-.02.08-.02h.56c.22,0,.41-.03.58-.08.17-.05.32-.13.44-.24.12-.1.21-.23.28-.38s.1-.31.1-.49c0-.13-.02-.26-.06-.38-.04-.12-.11-.23-.19-.32-.08-.08-.19-.15-.33-.21s-.29-.08-.46-.08c-.19,0-.37.03-.53.08s-.3.12-.42.19c-.13.06-.23.13-.31.19s-.14.09-.17.09c-.03,0-.04,0-.06-.01-.01-.01-.03-.03-.04-.05,0-.03-.02-.06-.03-.1,0-.04,0-.1,0-.18,0-.04,0-.09,0-.13,0-.04.01-.07.02-.1l.04-.08s.03-.04.06-.08.1-.08.19-.13c.1-.06.21-.12.35-.18s.3-.1.49-.15c.18-.04.38-.06.59-.06.29,0,.56.04.78.12s.41.18.56.32c.15.14.26.3.34.5.06.15.09.3.1.47,0,.06,0,.12,0,.17,0,.2-.03.38-.08.56s-.13.33-.23.46-.23.25-.38.34c-.15.1-.32.16-.51.2h0c.22.03.42.09.6.17.19.09.34.2.47.33.13.13.24.28.31.46.08.17.12.37.12.56,0,.29-.05.56-.15.8-.03.06-.05.12-.08.17-.1.16-.21.31-.36.44-.19.17-.43.29-.71.38-.28.09-.6.13-.96.13-.21,0-.41-.01-.6-.05-.19-.03-.35-.08-.5-.12s-.26-.1-.36-.15-.16-.09-.19-.12c-.02-.02-.04-.04-.05-.06-.01-.03-.03-.05-.04-.09,0-.03-.01-.07-.02-.12,0-.05,0-.11,0-.18,0-.12,0-.2.03-.24.03-.05.06-.07.1-.07.03,0,.09.03.18.08s.21.11.35.17c.14.06.3.12.49.17Z"/>
    </g>
    <g>
      <path class="cls-2" d="m370.13,137.33c.04.24.06.49.06.74v6.45c0,2.75-2.24,5-4.99,5h-9.76c-2.75,0-4.99-2.25-4.99-5v-6.45c0-.25.02-.5.06-.74.36-2.4,2.44-4.26,4.94-4.26h9.76c2.49,0,4.58,1.85,4.94,4.26Z"/>
      <polyline class="cls-2" points="350.44 137.33 350.5 137.33 357.04 137.33 363.57 137.33 370.13 137.33 370.19 137.33"/>
      <path class="cls-2" d="m370.19,155.57h5.01c1.76,0,3.21-1.44,3.21-3.21v-22.52c0-1.76-1.44-3.21-3.21-3.21h-29.47c-1.76,0-3.21,1.44-3.21,3.21v22.52c0,1.76,1.44,3.21,3.21,3.21h19.38v7.46l5.07-7.46Z"/>
    </g>
  </g>
  <g>
    <path class="cls-7" d="m279.7,87.77v52.62c0,1.62-1.33,3.33-2.94,3.8l-79.73,23.39c-1.62.48-2.94-.46-2.94-2.08v-52.62c0-1.62,1.33-3.33,2.94-3.81l3.69-1.08,4.95-7.64,20.93-6.14,4.26,4.94,45.9-13.47c1.62-.47,2.94.47,2.94,2.08Z"/>
    <g>
      <path class="cls-2" d="m230.85,99.16l45.9-13.47c1.62-.47,2.94.47,2.94,2.08v52.62c0,1.62-1.33,3.33-2.94,3.8l-79.73,23.39c-1.62.48-2.94-.46-2.94-2.08v-52.62c0-1.62,1.33-3.33,2.94-3.81l3.69-1.08"/>
      <polyline class="cls-2" points="200.72 107.99 205.67 100.35 226.6 94.21 230.85 99.16"/>
    </g>
  </g>
  <g>
    <g>
      <path class="cls-6" d="m250.72,122.05v8.66c0,1.76-1.44,3.61-3.21,4.09l-12.43,3.44c-1.76.49-3.21-.56-3.21-2.32v-8.66c0-1.76,1.44-3.61,3.21-4.09l.77-.21,10.8-2.99.85-.24c1.76-.49,3.21.56,3.21,2.32Zm-7.82,9.91l-.9-3.27c.53-.42.9-1.07.9-1.7,0-.9-.74-1.43-1.64-1.18s-1.64,1.18-1.64,2.09c0,.64.37,1.09.9,1.21l-.9,3.76,3.27-.91Z"/>
      <path d="m242,128.7l.9,3.27-3.27.91.9-3.76c.22.06.47.05.74-.02s.52-.21.74-.38Z"/>
      <path d="m242,128.7c-.22.18-.47.31-.74.38s-.52.08-.74.02c-.53-.12-.9-.57-.9-1.21,0-.9.73-1.84,1.64-2.09s1.64.28,1.64,1.18c0,.63-.37,1.29-.9,1.7Z"/>
    </g>
    <g>
      <path class="cls-2" d="m246.66,119.97l.85-.24c1.76-.49,3.21.56,3.21,2.32v8.66c0,1.76-1.44,3.61-3.21,4.09l-12.43,3.44c-1.76.49-3.21-.56-3.21-2.32v-8.66c0-1.76,1.44-3.61,3.21-4.09l.77-.21,10.8-2.99Z"/>
      <path class="cls-4" d="m235.86,122.7v-1.7c0-2.98,2.43-6.08,5.41-6.9,1.48-.41,2.83-.18,3.82.53.97.71,1.58,1.9,1.58,3.38v1.7"/>
      <path class="cls-2" d="m240.52,129.11c-.53-.12-.9-.57-.9-1.21,0-.9.73-1.84,1.64-2.09s1.64.28,1.64,1.18c0,.63-.37,1.29-.9,1.7-.22.18-.47.31-.74.38s-.52.08-.74.02Z"/>
      <polyline class="cls-2" points="240.52 129.11 239.63 132.87 242.9 131.96 242 128.7"/>
    </g>
  </g>
  <g>
    <g>
      <path class="cls-6" d="m297.13,327.15l-3.63-22.63-.06-.21.58-.17c.91-.26,1.53-1.1,1.53-1.97,0-.14-.02-.27-.05-.4l1.64-.27,4.01,25c.18,1.11-.58,2.16-1.69,2.34-.11.02-.21.02-.32.02-.98,0-1.86-.72-2.03-1.72Z"/>
      <path class="cls-6" d="m295.51,301.77c.03.14.05.27.05.4,0,.87-.62,1.71-1.53,1.97l-.58.17-2.87.83-.19-.66s.24-1.37.09-3.26l.25-.02,2.17-.63.31-.09c1.04-.3,2.08.27,2.3,1.28Z"/>
      <path class="cls-6" d="m288.51,270.86c.83,0,1.57.53,1.75,1.36.03.13.05.27.05.4,0,.8-.52,1.57-1.31,1.9l-.41.03-.24-3.68h.16Z"/>
      <path class="cls-6" d="m295.51,301.77c-.22-1.01-1.26-1.58-2.3-1.28l-.31.09-.05-.17-4.1-25.54h-.14s-.02-.31-.02-.31l.41-.03c.78-.33,1.31-1.1,1.31-1.9,0-.14-.02-.27-.05-.4-.18-.83-.92-1.37-1.75-1.36h-.16s-2.11-32.06-2.11-32.06l-.82-.02c.37-.17.68-.32.93-.44l.68.05,10.12,63.11-1.64.27Z"/>
      <path d="m290.38,304.48s-9.41,1.83-13.26.76c-.99-.28-1.61-.74-1.61-1.48,0-3.62,4.98-4.37,4.98-4.37l.06-.04s5.04.9,9.4-.94l.12.28c.24.9.36,1.76.42,2.53.15,1.89-.09,3.26-.09,3.26Z"/>
      <path d="m254.91,154.71c-1.9-2.61-1.86-6.05.75-8.17,3.37-2.75,5.49,2.34,5.49,2.34.44-.03.85-.05,1.26-.06,12.53-.27,12.14,8.89,12.14,8.89,2.34,2.23,1.75,6.86,1.75,6.86-.52,3.47-1.9,5.81-3.36,7.37-2.14,2.28-4.44,2.88-4.44,2.88-.19.06-.39.13-.59.18-3.47.98-8.25.45-8.25.45-2.52-2.9-2.56-7.57-2.56-7.57,3.86-.74,4.41-4.94,2.67-6.2s-3.26.48-3.26.48c-.48-2.41.55-5.42.55-5.42-.88-.57-1.61-1.26-2.16-2.03Z"/>
      <path class="cls-5" d="m286.24,238.8l2.11,32.07.24,3.68.02.32,1.54,23.45-.21.09c-4.36,1.84-9.4.94-9.4.94l-4.06-21.17-1.41-7.31-.08,7.72-.24,23.39c-3.79,1.28-8.23.87-9.58.69-.27-.04-.41-.06-.41-.06l-2.62-20.23-.49-3.76-3.36-25.92-.49-3.76-.59-4.61c15.3-.45,24.64-3.92,28.22-5.55l.82.02Z"/>
      <path class="cls-6" d="m285.42,238.78c-3.57,1.63-12.92,5.1-28.22,5.55-.29.01-.58.02-.87.02,0,0-2.47-10.87-3.98-21.02-.12-.85-.24-1.7-.35-2.53-.52.27-1.08.43-1.68.44-.94.02-1.83-.24-2.67-.72-6.17-3.5-9.79-18.58-9.79-18.58.18-.21.38-.42.6-.61,2-1.8,5.35-2.88,6.48-3.2.25-.08.39-.11.39-.11l1.87,3.93c.26-2.07.66-4.96,1.14-7.75.15-.88.31-1.74.48-2.57.11-.54.25-1.03.43-1.5,1.71-4.53,6.28-6.1,6.28-6.1l.21-.87,1.48.36c.4,0,6.79-2.08,13.18-3.48l.25-1.14-1.39-2.47s-.3.04-.84.12l-.02-.12-.47-1.43c.2-.05.4-.12.59-.18,0,0,2.3-.6,4.44-2.88l.25.23c1.19,2.79,2.27,5.47,3.17,7.87,5.61,14.98,11.27,37.58,10.72,57.91,0,0-.25.15-.74.39-.25.12-.56.27-.93.44Z"/>
      <path class="cls-6" d="m269.24,176.43l1.39,2.47-.25,1.14c-6.39,1.4-12.78,3.48-13.18,3.48l-1.48-.36.8-3.3c.34-.15.67-.29,1.01-.43,4.41-1.8,9.03-2.61,10.88-2.88.54-.08.84-.12.84-.12Z"/>
      <path class="cls-6" d="m290.57,305.14l-38.84,11.28-.2.04h0l-.59-3.72.18-.03,13.1-3.8v-.06c4.41.17,10.85-1.08,10.85-1.08,0,0,.15-.82.14-2.07h.09l1.82-.45c3.86,1.07,13.26-.76,13.26-.76l.19.66Z"/>
      <path d="m265.17,302.67c1.35.17,5.79.59,9.58-.69.37,1.38.47,2.7.47,3.72,0,1.25-.14,2.07-.14,2.07,0,0-6.44,1.25-10.84,1.08-2.29-.09-4.03-.57-4.03-1.8,0-3.62,4.98-4.37,4.98-4.37Z"/>
      <path class="cls-6" d="m253.7,159.62c-.51,0-.92.41-.92.92s.41.92.92.92.92-.41.92-.92-.41-.92-.92-.92Zm14.71,16.93c-1.85.27-6.47,1.08-10.88,2.88l-.33-.78-.82-2.67c-5.84-1.46-7-5.88-6.96-9.29.03-2.4.65-4.29.65-4.29l-1.26-2.27,2.3-.34c.73-1.67,2.07-3.27,2.96-4.21.45-.49.79-.8.85-.86.55.77,1.28,1.47,2.16,2.03,0,0-1.04,3-.55,5.42,0,0,1.52-1.74,3.26-.48s1.19,5.45-2.67,6.2c0,0,.04,4.68,2.56,7.57,0,0,4.78.53,8.25-.45l.47,1.43.02.12Z"/>
      <polygon class="cls-6" points="261.64 278.62 262.13 282.38 261.86 282.41 246.95 286.74 246.77 286.77 246.18 283.05 246.37 283.02 261.47 278.64 261.64 278.62"/>
      <polygon class="cls-6" points="257.79 248.93 258.28 252.7 258.01 252.73 242.23 257.31 242.05 257.34 241.46 253.63 241.63 253.6 257.62 248.96 257.79 248.93"/>
      <path class="cls-6" d="m252.47,128.93s.9-1.1,1.77.42c.87,1.51,2.77,6.11,3.33,10.31v.09c-1.18-.07-4.2.01-6.7,2.34,0,0-6.69-.3-6.33-2.17,0,0,.05-1.07,4.05-.77,0,0-2.92-8.49-1.28-8.94,0,0,.26-.22.71.25.01-.15.2-2.02,1.04-1.97.37.02.77.15,1.21.66,0,0,.09-1.17,1.21-1.07.34.03.68.35,1,.84Z"/>
      <circle cx="253.7" cy="160.54" r=".92"/>
      <path class="cls-6" d="m255.67,146.54c-2.61,2.12-2.65,5.57-.75,8.17-.06.06-.4.37-.85.86l-3.81-12.83c.2-.23.41-.44.62-.64,2.5-2.33,5.52-2.41,6.7-2.34.32.02.51.05.51.05,0,0,1.8,3.58,4.33,8.85v.16c-.4.01-.82.03-1.25.06,0,0-2.11-5.09-5.49-2.34Z"/>
      <path class="cls-6" d="m253.64,341.79l-.2.03c-1.05.17-2.06-.55-2.23-1.61l-26.14-162.94c-.17-1.05.55-2.06,1.61-2.23l.2-.03c1.05-.17,2.06.55,2.23,1.61l2.67,16.67.29,1.81h0s.57,3.59.57,3.59l4.05,25.25.6,3.73,4.16,25.95.59,3.72,4.13,25.71.59,3.72,4.16,25.97.59,3.72h0l3.7,23.1c.17,1.05-.55,2.06-1.61,2.23Z"/>
      <path class="cls-6" d="m252.35,223.33l-.17.02-14.89,4.32-.6-3.73h.08s10.69-3.12,10.69-3.12l.18-.32c.84.48,1.74.75,2.67.72.6-.01,1.16-.17,1.68-.44.11.84.23,1.68.35,2.53Z"/>
      <path class="cls-6" d="m243.68,191.59l5.29-1.54.25.06c-.18.47-.32.97-.43,1.5-.16.82-.32,1.69-.48,2.57l-.11-.02-3.49,1.01-.14.03c-.18-.94-.46-2.01-.88-3.09-.06-.15-.12-.3-.19-.45l.18-.09Z"/>
      <path class="cls-6" d="m235.55,197.93l-2.91.77-.57-3.59c.15.07,2.61,1.21,3.42,2.3,0,0,0,.21.06.52Z"/>
      <path class="cls-6" d="m234.87,190.81l.03-.17c.06-1.24,1.86-1.3,1.86-1.3.32,0,.64.06.95.15,1.87-1.9,4.53-.48,5.8,2.2.07.15.14.29.19.45.42,1.07.7,2.15.88,3.09.32,1.67.35,2.91.35,2.91-1.12.32-4.48,1.41-6.48,3.2-2.16-.3-2.75-2.4-2.9-3.4-.05-.32-.06-.52-.06-.52-.81-1.08-3.27-2.23-3.42-2.3h0s-.29-1.82-.29-1.82l.25-.04c.11-.06.22-.12.36-.15l-.05-.16c-.26-.85-.04-1.6,1.15-2.05.42-.16.91-.15,1.38-.08Z"/>
    </g>
    <g>
      <path class="cls-2" d="m254.93,154.7h-.01c-.06.07-.4.38-.85.87-.88.94-2.23,2.54-2.96,4.21l-2.3.34,1.26,2.27s-.62,1.9-.65,4.29c-.04,3.4,1.12,7.83,6.96,9.29l.82,2.67"/>
      <path class="cls-2" d="m262.42,148.82c-.41.01-.82.03-1.26.06,0,0-2.11-5.09-5.49-2.34-2.61,2.12-2.65,5.57-.75,8.17.55.77,1.28,1.47,2.16,2.03,0,0-1.04,3-.55,5.42,0,0,1.52-1.74,3.26-.48s1.19,5.45-2.67,6.2c0,0,.04,4.68,2.56,7.57,0,0,4.78.53,8.25-.45.2-.05.4-.12.59-.18,0,0,2.3-.6,4.44-2.88,1.46-1.55,2.84-3.9,3.36-7.37,0,0,.59-4.64-1.75-6.86,0,0,.39-9.16-12.14-8.89Z"/>
      <path class="cls-2" d="m249.41,166.68s1.34,1.37,3.37.61"/>
      <line class="cls-2" x1="267.92" y1="175" x2="268.39" y2="176.43"/>
      <path class="cls-2" d="m246.84,204.85s.13-1.16.35-2.91c.26-2.07.66-4.96,1.14-7.75.15-.88.31-1.74.48-2.57.11-.54.25-1.03.43-1.5,1.71-4.53,6.28-6.1,6.28-6.1l.21-.87.8-3.3c.34-.15.67-.29,1.01-.43,4.41-1.8,9.03-2.61,10.88-2.88.54-.08.84-.12.84-.12l1.39,2.47"/>
      <path class="cls-2" d="m247.19,201.94l-1.87-3.93s-.14.04-.39.11c-1.12.32-4.48,1.41-6.48,3.2-.22.19-.42.4-.6.61,0,0,3.62,15.08,9.79,18.58.84.48,1.74.75,2.67.72.6-.01,1.16-.17,1.68-.44,6.25-3.28,7.11-23.61,7.11-23.61"/>
      <path class="cls-2" d="m257.2,183.52c.4,0,6.79-2.08,13.18-3.48"/>
      <path class="cls-2" d="m262.41,148.65c-2.54-5.27-4.33-8.85-4.33-8.85,0,0-.18-.03-.51-.05-1.18-.07-4.19.01-6.7,2.34-.21.2-.42.41-.62.64l3.81,12.83"/>
      <path class="cls-2" d="m252,220.8c.11.84.23,1.68.35,2.53,1.51,10.15,3.98,21.02,3.98,21.02.29,0,.58-.01.87-.02,15.3-.45,24.64-3.92,28.22-5.55.37-.17.68-.32.93-.44.49-.25.74-.39.74-.39.55-20.32-5.11-42.93-10.72-57.91-.9-2.4-1.98-5.08-3.17-7.87"/>
      <path class="cls-2" d="m248.02,130.47c.45.48,1.1,1.68,1.87,4.59"/>
      <path class="cls-2" d="m250.87,142.1s-6.69-.3-6.33-2.17c0,0,.05-1.07,4.05-.77,0,0-2.92-8.49-1.28-8.94,0,0,.26-.22.71.25"/>
      <path class="cls-2" d="m248.02,130.47h0c.01-.15.2-2.03,1.04-1.97.37.02.77.15,1.21.66.62.71,1.31,2.16,2.06,5.1"/>
      <path class="cls-2" d="m250.27,129.16s.09-1.17,1.21-1.07c.34.03.68.35,1,.84.75,1.15,1.41,3.26,1.77,5"/>
      <path class="cls-2" d="m252.47,128.93s.9-1.1,1.77.42c.87,1.51,2.77,6.11,3.33,10.31"/>
      <path class="cls-2" d="m244.93,198.12s-.02-1.24-.35-2.91c-.18-.94-.46-2.01-.88-3.09-.06-.15-.12-.3-.19-.45-1.27-2.68-3.93-4.1-5.8-2.2l-.02.02"/>
      <path class="cls-2" d="m241.71,192.9s-1.65-2.74-4-3.42c-.31-.09-.62-.14-.95-.15,0,0-1.8.06-1.86,1.3"/>
      <path class="cls-2" d="m239.33,193.61s-.92-1.13-2.72-2.2c-.14-.08-.91-.47-1.75-.61-.47-.08-.95-.08-1.38.08-1.19.45-1.41,1.2-1.15,2.05"/>
      <path class="cls-2" d="m237.09,194.7s-1.25-1.28-3.16-1.65c-.63-.12-1.15-.09-1.55.05-.14.04-.25.09-.36.15"/>
      <path class="cls-2" d="m232.07,195.11c.15.07,2.61,1.21,3.42,2.3,0,0,0,.21.06.52.15,1,.74,3.1,2.9,3.4"/>
      <path class="cls-2" d="m251.54,316.46l3.7,23.1c.17,1.05-.55,2.06-1.61,2.23l-.2.03c-1.05.17-2.06-.55-2.23-1.61l-26.14-162.94c-.17-1.05.55-2.06,1.61-2.23l.2-.03c1.05-.17,2.06.55,2.23,1.61l2.67,16.67.29,1.81h0s.57,3.59.57,3.59l4.05,25.25.6,3.73,4.16,25.95.59,3.72,4.13,25.71.59,3.72,4.16,25.97.59,3.72h0Z"/>
      <path class="cls-2" d="m287.03,238.39l10.12,63.11,4.01,25c.18,1.11-.58,2.16-1.69,2.34-.11.02-.21.02-.32.02-.98,0-1.86-.72-2.03-1.72l-3.63-22.63"/>
      <line class="cls-2" x1="292.84" y1="300.41" x2="288.74" y2="274.86"/>
      <line class="cls-2" x1="235.55" y1="197.93" x2="232.64" y2="198.69"/>
      <line class="cls-2" x1="248.21" y1="194.17" x2="244.72" y2="195.18"/>
      <line class="cls-2" x1="243.68" y1="191.59" x2="248.98" y2="190.05"/>
      <line class="cls-2" x1="236.77" y1="223.94" x2="247.46" y2="220.83"/>
      <line class="cls-2" x1="252.18" y1="223.35" x2="237.29" y2="227.68"/>
      <line class="cls-2" x1="241.63" y1="253.6" x2="257.62" y2="248.96"/>
      <line class="cls-2" x1="258.01" y1="252.73" x2="242.23" y2="257.31"/>
      <line class="cls-2" x1="261.86" y1="282.41" x2="246.95" y2="286.74"/>
      <line class="cls-2" x1="276.38" y1="278.2" x2="275.07" y2="278.58"/>
      <path class="cls-2" d="m288.51,270.86c.83,0,1.57.53,1.75,1.36.03.13.05.27.05.4,0,.8-.52,1.57-1.31,1.9"/>
      <line class="cls-2" x1="246.37" y1="283.02" x2="261.47" y2="278.64"/>
      <line class="cls-2" x1="251.11" y1="312.71" x2="264.22" y2="308.9"/>
      <path class="cls-2" d="m290.73,301.21l2.17-.63.31-.09c1.04-.3,2.08.27,2.3,1.28.03.14.05.27.05.4,0,.87-.62,1.71-1.53,1.97l-.58.17-2.87.83-38.84,11.28"/>
      <polyline class="cls-2" points="275.3 305.69 277.12 305.24 277.13 305.24"/>
      <path class="cls-2" d="m257.2,244.33l.59,4.61.49,3.76,3.36,25.92.49,3.76,2.62,20.23s.15.02.41.06c1.35.17,5.79.59,9.58-.69l.24-23.39.08-7.72.23-22.1"/>
      <path class="cls-2" d="m275.07,270.86l1.41,7.31,4.06,21.17s5.04.9,9.4-.94l.21-.09-1.54-23.45-.02-.32-.24-3.68-2.11-32.07"/>
      <path class="cls-2" d="m265.17,302.67s-4.98.75-4.98,4.37c0,1.24,1.74,1.71,4.03,1.8,4.41.17,10.84-1.08,10.84-1.08,0,0,.15-.82.14-2.07,0-1.02-.1-2.33-.47-3.72"/>
      <path class="cls-2" d="m280.48,299.39s-4.98.75-4.98,4.37c0,.74.62,1.21,1.61,1.48,3.86,1.07,13.26-.76,13.26-.76,0,0,.24-1.37.09-3.26-.06-.78-.18-1.64-.42-2.53"/>
    </g>
  </g>
  <g>
    <g>
      <path class="cls-6" d="m373.12,244.3c3.42,17.84,1.97,31.82,1.97,31.82-2.39.57-4.86.93-7.33,1.14-2.87.24-5.73.26-8.43.16-.94-.04-1.85-.09-2.74-.15-3.22-.23-6.13-.62-8.45-1-3.44-.56-5.6-1.11-5.6-1.11-.24-14.74,1.68-31.59,1.68-31.59,0,0,13.81,2.68,28.89.72Z"/>
      <path d="m372.72,183.17c-.06,5.27-.98,10.05-2.1,13.96-1.86,6.46-4.26,10.55-4.26,10.55-1.7-1.53-2.63-4.57-3.15-7.45-.3-1.73-.45-3.39-.53-4.64-.08-1.3-.08-2.14-.08-2.14l-.19-.44c3.73-1.65,5.09-4.91,5.31-6.35,0,0,3.21-.18,3.4-3.25,0-.09,0-.18,0-.27l1.6.02Z"/>
      <path class="cls-6" d="m367.77,277.26v.16s-.65,31.39-.65,31.39c-5.31,1.44-7.78-.8-7.78-.8v-30.59c2.7.1,5.56.08,8.43-.16Z"/>
      <path d="m367.12,308.81c.94,3.8.08,6.18.08,6.18-7.86,3.5-13.83,1.17-13.42-1.75.18-1.27,1.25-2.41,2.41-3.32,1.51-1.17,3.15-1.91,3.15-1.91,0,0,2.47,2.24,7.78.8Z"/>
      <path class="cls-6" d="m363.21,200.23l-.44.08c-1.04,1.32-2.44,2.33-2.44,2.33-2.27-1.57-3.17-4.65-3.17-4.65,0,0,3.83-.8,5.42-2.39h.11c.08,1.24.23,2.9.53,4.63Z"/>
      <path d="m359.72,181.73c.48,0,.87.39.87.87s-.39.87-.87.87-.87-.39-.87-.87.39-.87.87-.87Z"/>
      <path class="cls-6" d="m354.01,186.72h5.71s0,3.1-3,3.1-2.7-3.1-2.7-3.1Z"/>
      <path class="cls-6" d="m355.5,205.96c.56-1.24,2.22-.35,2.22-.35.06-.16.15-.27.25-.35.51-.43,1.37.02,1.37.02,3.82,2.02,3.24,9.46,3.24,9.46l-7.27,2.62h0c-.92-.67-1.38-1.49-1.58-2.27-.37-1.41.11-2.69.11-2.69,0,0-.78-1.4-1.66-2.67s-.16-2.23-.16-2.23c.61-.52,1.4-.06,1.54,0,.01-.4.08-.7.18-.93.48-1.02,1.71-.48,1.71-.48.02-.05.04-.09.06-.14Z"/>
      <path class="cls-8" d="m362.58,214.74s.58-7.44-3.24-9.46c0,0-.86-.45-1.37-.02l-.68.02-.29-7.29h.16s.9,3.07,3.17,4.65c0,0,1.4-1.01,2.44-2.33l.44-.08c.51,2.88,1.44,5.92,3.15,7.45,0,0,2.41-4.09,4.26-10.55l.51.15s8.43,3.82,7.15,15.68c-.52,4.84-1.9,10.09-4.03,14.23-2.47,4.8-5.96,8.09-10.32,7.44-8.12-1.18-8.76-17.22-8.76-17.22l.14-.05h0l7.27-2.62Z"/>
      <path class="cls-6" d="m356.93,196.28h-3.31v-.16c.08-.77.14-1.53.17-2.27l.08-.28c.97.3,2.12.47,3.47.46,2.04-.01,3.72-.4,5.07-1.01l.19.44s0,.84.08,2.14h-.11c-1.58,1.6-5.42,2.39-5.42,2.39h-.16s-.07-1.71-.07-1.71Z"/>
      <path class="cls-6" d="m356.59,277.27l-.67,26.24c-5.31,1.44-7.78-.8-7.78-.8v-26.44c2.32.38,5.23.77,8.45,1Z"/>
      <path d="m355.93,303.51c.94,3.8.08,6.18.08,6.18-7.86,3.5-13.83,1.17-13.42-1.75.42-2.91,5.57-5.24,5.57-5.24,0,0,2.47,2.24,7.78.8Z"/>
      <circle cx="354.31" cy="182.43" r=".87"/>
      <path class="cls-8" d="m351.96,217.36c.72-.52,1.34-1.61,1.59-2.22l.18-.05c.2.78.65,1.6,1.58,2.27l-.14.05s.64,16.04,8.76,17.22c4.36.64,7.85-2.64,10.32-7.44l.08.04c-.36,7.9-1.2,17.07-1.2,17.07-15.08,1.96-28.89-.72-28.89-.72l-.49-9.21h0c5.31.31,8.49-8.19,8.22-17Z"/>
      <path class="cls-6" d="m353.53,206.55c-.49-1-1.71-.45-1.71-.45-.02-.05-.04-.09-.05-.14-.56-1.24-2.22-.35-2.22-.35-.15-.37-.41-.51-.68-.54h0s-.35-8.79-.35-8.79h8.42l.07,1.71.29,7.29.68-.02c-.1.08-.18.19-.25.35,0,0-1.66-.88-2.22.35-.02.04-.04.09-.06.14,0,0-1.24-.55-1.71.48l-.2-.02Z"/>
      <path class="cls-6" d="m351.82,206.1s1.22-.54,1.71.45l.2.02c-.11.23-.17.53-.18.93-.14-.06-.94-.52-1.54,0,0,0-.72.97.16,2.23s1.66,2.67,1.66,2.67c0,0-.47,1.28-.11,2.69l-.18.05c-.25.61-.87,1.7-1.59,2.22l-6.58-2.06s-.47-2.93.02-5.7l1.6.24c.69-2.31,2.55-4.23,2.55-4.23,0,0,1.66-.88,2.22.35.02.04.04.09.05.14Z"/>
      <path class="cls-8" d="m343.25,219.21l1.61-4.06.52.16,6.58,2.06c.27,8.82-2.91,17.32-8.22,16.99-.41-.02-.82-.09-1.26-.23-6.06-1.86-2.93-19.76-1.81-25.83,1.39-7.57,6.09-10.31,6.09-10.31l.28-.02c.18,2.46.62,4.95,1.47,7.1v.02c-.31.05-.58.19-.58.19-.97.51-1.61,1.4-2.03,2.45,0,0-5.21,4.7-2.66,11.48Z"/>
      <path d="m348.51,196.28l.35,8.79h0c-.12,0-.24,0-.35.02v-.02c-.85-2.14-1.29-4.64-1.47-7.1-.45-6.1.61-12.03.61-12.03.24.21.48.34.7.41.4,2.76,1.6,6.03,5.51,7.21l-.08.28c-.03.75-.09,1.51-.17,2.27v.16h-5.11Z"/>
      <path d="m347.8,181.1c-1.45-12.21,8.82-13.23,9.13-13.33,5.87-.42,15.8.57,15.8,14.82,0,.19,0,.38,0,.57l-1.6-.02c0-2.76-2.76-2.3-3.48-.87-.69-.62-.86-1.77-.86-1.77-11.2-.05-12.79-6.38-12.79-6.38-3.33,1.55-4.75,4.6-5.35,7.07l-.14-.03s-.32-.11-.71-.06Z"/>
      <path class="cls-6" d="m359.72,186.72h-5.71s-.31,3.1,2.7,3.1,3-3.08,3-3.1Zm-11.5-1.71s-.08-1.7.43-3.81c.6-2.47,2.02-5.51,5.35-7.07,0,0,1.59,6.33,12.79,6.38,0,0,.17,1.15.86,1.77.72-1.43,3.48-1.89,3.48.87,0,.09,0,.18,0,.27-.19,3.07-3.4,3.25-3.4,3.25-.22,1.44-1.58,4.69-5.31,6.35-1.35.61-3.03,1-5.07,1.01-1.35,0-2.5-.16-3.47-.46-3.91-1.18-5.11-4.45-5.51-7.21-.06-.47-.11-.92-.14-1.35Zm6.09-1.71c.48,0,.87-.39.87-.87s-.39-.87-.87-.87-.87.39-.87.87.39.87.87.87Zm6.28-.7c0-.48-.39-.87-.87-.87s-.87.39-.87.87.39.87.87.87.87-.39.87-.87Z"/>
      <path class="cls-6" d="m348.65,181.2c-.51,2.11-.43,3.81-.43,3.81.03.42.08.88.14,1.35-.22-.07-.47-.21-.7-.41-.64-.55-1.23-1.59-1.09-3.19.11-1.24.72-1.59,1.23-1.65.39-.05.71.06.71.06l.14.03Z"/>
      <path class="cls-6" d="m345.91,207.73c.42-1.05,1.06-1.94,2.03-2.45,0,0,.27-.14.58-.19.11-.02.23-.03.35-.02.27.03.54.17.68.54,0,0-1.86,1.92-2.55,4.23l-1.6-.24c.11-.65.28-1.29.51-1.88Z"/>
      <path class="cls-8" d="m345.91,207.73c-.23.59-.4,1.23-.51,1.88-.48,2.77-.02,5.7-.02,5.7l-.52-.16-1.61,4.06c-2.54-6.78,2.66-11.48,2.66-11.48Z"/>
    </g>
    <g>
      <path class="cls-2" d="m357.34,194.02c-1.35,0-2.5-.16-3.47-.46-3.91-1.18-5.11-4.45-5.51-7.21-.06-.47-.11-.92-.14-1.35,0,0-.08-1.7.43-3.81.6-2.47,2.02-5.51,5.35-7.07,0,0,1.59,6.33,12.79,6.38,0,0,.17,1.15.86,1.77.72-1.43,3.48-1.89,3.48.87,0,.09,0,.18,0,.27-.19,3.07-3.4,3.25-3.4,3.25-.22,1.44-1.58,4.69-5.31,6.35-1.35.61-3.03,1-5.07,1.01"/>
      <path class="cls-2" d="m348.51,181.17s-.32-.11-.71-.06c-.51.06-1.12.41-1.23,1.65-.14,1.6.45,2.64,1.09,3.19.24.21.48.34.7.41"/>
      <polyline class="cls-2" points="356.93 182.6 355.61 184.32 356.72 185.03"/>
      <path class="cls-2" d="m359.72,186.72h-5.71s-.31,3.1,2.7,3.1,3-3.08,3-3.1Z"/>
      <path class="cls-2" d="m362.61,193.46s0,.84.08,2.14c.08,1.25.23,2.91.53,4.64.51,2.88,1.44,5.92,3.15,7.45,0,0,2.41-4.09,4.26-10.55,1.12-3.91,2.04-8.69,2.1-13.96,0-.19,0-.38,0-.57,0-14.26-9.94-15.24-15.8-14.82-.31.1-10.58,1.11-9.13,13.33h0"/>
      <path class="cls-2" d="m353.62,196.11c.08-.77.14-1.53.17-2.27"/>
      <path class="cls-2" d="m347.66,185.94s-1.07,5.92-.61,12.03c.18,2.46.62,4.95,1.47,7.1"/>
      <path class="cls-2" d="m357.16,197.99s3.83-.8,5.42-2.39"/>
      <path class="cls-2" d="m353.83,195.8s.09.11.27.27"/>
      <polyline class="cls-2" points="355.31 217.36 362.58 214.74 365.7 219.88 368.77 224.94"/>
      <path class="cls-2" d="m371.13,197.28s8.43,3.82,7.15,15.68c-.52,4.84-1.9,10.09-4.03,14.23-2.47,4.8-5.96,8.09-10.32,7.44-8.12-1.18-8.76-17.22-8.76-17.22l.14-.05"/>
      <path class="cls-2" d="m362.58,214.74s.58-7.44-3.24-9.46c0,0-.86-.45-1.37-.02-.1.08-.18.19-.25.35,0,0-1.66-.88-2.22.35-.02.04-.04.09-.06.14,0,0-1.24-.55-1.71.48-.11.23-.17.53-.18.93-.14-.06-.94-.52-1.54,0,0,0-.72.97.16,2.23s1.66,2.67,1.66,2.67c0,0-.47,1.28-.11,2.69.2.78.65,1.6,1.58,2.27h0"/>
      <path class="cls-2" d="m353.55,207.51s1.48,1.84,2.42,3.88"/>
      <path class="cls-2" d="m355.5,205.96s1.79,2.03,2.81,4.66"/>
      <path class="cls-2" d="m357.72,205.61s1.86,1.92,2.54,4.23"/>
      <path class="cls-2" d="m353.55,215.14c-.25.61-.87,1.7-1.59,2.22"/>
      <path class="cls-2" d="m345.38,215.31s-.47-2.93.02-5.7c.11-.65.28-1.29.51-1.88.42-1.05,1.06-1.94,2.03-2.45,0,0,.27-.14.58-.19.11-.02.23-.03.35-.02.27.03.54.17.68.54,0,0,1.66-.88,2.22.35.02.04.04.09.05.14,0,0,1.22-.54,1.71.45"/>
      <path class="cls-2" d="m352.09,209.9c-.28.47-.55.97-.79,1.48"/>
      <path class="cls-2" d="m351.77,205.96s-1.79,2.03-2.81,4.66"/>
      <path class="cls-2" d="m349.55,205.61s-1.86,1.92-2.55,4.23"/>
      <path class="cls-2" d="m362.77,200.31c-1.04,1.32-2.44,2.33-2.44,2.33-2.27-1.57-3.17-4.65-3.17-4.65"/>
      <line class="cls-2" x1="365.7" y1="219.88" x2="368.52" y2="211.39"/>
      <path class="cls-2" d="m346.76,197.99s-4.7,2.74-6.09,10.31c-1.12,6.07-4.25,23.98,1.81,25.83.44.14.85.21,1.26.23,5.31.32,8.49-8.17,8.22-16.99l-6.58-2.06-.52-.16-1.61,4.06-2.03,5.15"/>
      <path class="cls-2" d="m345.91,207.73s-5.21,4.7-2.66,11.48"/>
      <path class="cls-2" d="m343.74,234.37l.49,9.21s13.81,2.68,28.89.72c0,0,.84-9.18,1.2-17.07"/>
      <path class="cls-2" d="m344.23,243.58s-1.92,16.84-1.68,31.59c0,0,2.16.55,5.6,1.11,2.32.38,5.23.77,8.45,1,.9.06,1.81.12,2.74.15,2.7.1,5.56.08,8.43-.16,2.46-.21,4.94-.57,7.33-1.14,0,0,1.45-13.98-1.97-31.82"/>
      <path class="cls-2" d="m359.34,277.42v30.59s2.47,2.24,7.78.8l.67-31.39"/>
      <path class="cls-2" d="m359.34,308.01s-1.64.74-3.15,1.91c-1.16.91-2.24,2.06-2.41,3.32-.41,2.92,5.57,5.25,13.42,1.75,0,0,.86-2.38-.08-6.18"/>
      <path class="cls-2" d="m348.15,276.27v26.44s2.47,2.24,7.78.8l.67-26.24"/>
      <path class="cls-2" d="m348.15,302.71s-5.15,2.33-5.57,5.24c-.41,2.92,5.57,5.25,13.42,1.75,0,0,.86-2.38-.08-6.18"/>
      <polyline class="cls-2" points="348.87 205.07 348.51 196.28 353.62 196.28 356.93 196.28 357 197.99 357.29 205.28"/>
    </g>
  </g>
</svg>