<?xml version="1.0" encoding="UTF-8"?>
<svg id="_1" data-name="1" xmlns="http://www.w3.org/2000/svg" viewBox="0 0 467.09 402">
  <defs>
    <style>
      .cls-1 {
        fill: #fa8587;
      }

      .cls-2 {
        fill: #66c7dd;
      }

      .cls-3 {
        fill: #65cbdd;
      }

      .cls-4 {
        fill: #ffaf43;
      }

      .cls-5 {
        fill: #fff;
      }

      .cls-6 {
        fill: #ffb145;
      }

      .cls-7 {
        fill: #fe8382;
      }

      .cls-8 {
        fill: #fe8282;
      }

      .cls-9 {
        fill: #fead40;
      }

      .cls-10 {
        fill: #63c8db;
      }

      .cls-11 {
        fill: #c285bb;
      }

      .cls-12 {
        fill: #8cc38e;
      }

      .cls-13 {
        fill: none;
        stroke: #000;
        stroke-linecap: round;
        stroke-linejoin: round;
        stroke-width: 2px;
      }
    </style>
  </defs>
  <g>
    <g>
      <polygon class="cls-5" points="208.9 235.18 208.9 241.32 203.99 243.95 203.99 237.7 190.13 228.14 190.13 152.29 194.21 150.77 194.21 225.45 208.9 235.18"/>
      <polygon class="cls-9" points="203.99 237.7 203.99 243.95 169.39 220.61 169.39 215.29 185.78 226.09 185.78 220.92 185.78 153.91 190.13 152.29 190.13 228.14 203.99 237.7"/>
      <path class="cls-5" d="m185.78,153.91L25.82,213.36l-4.09,1.52-4.35,1.62-3.87,1.44V64L196.58,2.06v147.83l-2.37.88-4.09,1.52-4.35,1.62Zm-14.12-72.76v-33.7l-7.52,2.97v33.35l7.52-2.62Zm-13.32,5.33v-27.04l-7.53,2.98v26.68l7.53-2.62Zm-12.66,4.67v-20.37l-7.52,2.97v20.02l7.52-2.62Zm-36.69,3.13c.7-2.72,1.08-5.52,1.08-8.3,0-13.71-9.24-21.85-20.63-19-11.4,2.85-20.63,16.28-20.63,29.99,0,7.62,2.86,13.73,7.35,17.16h0c3.59,2.74,8.22,3.78,13.28,2.51,9.08-2.27,16.79-11.69,19.55-22.36Zm-47.28,29.65v-19.68l-14.76,5.22v19.67l14.76-5.2Zm-2.3-26.36v-19.68l-14.76,5.22v19.66l14.76-5.2Zm-19.32,17.99v-19.68l-14.76,5.22v19.67l14.76-5.2Z"/>
      <polygon class="cls-9" points="196.58 2.06 13.52 64 13.52 217.93 9.25 215.72 9.25 61.79 191.01 1 196.58 2.06"/>
      <polygon class="cls-5" points="185.78 220.92 185.78 226.09 169.39 215.29 174.67 213.95 185.72 220.92 185.78 220.92"/>
      <polygon class="cls-2" points="171.65 47.45 171.65 81.15 164.13 83.77 164.13 50.42 171.65 47.45"/>
      <polygon class="cls-12" points="158.33 59.44 158.33 86.48 150.8 89.1 150.8 62.42 158.33 59.44"/>
      <polygon class="cls-6" points="145.67 70.77 145.67 91.14 138.15 93.76 138.15 73.75 145.67 70.77"/>
      <path class="cls-12" d="m110.06,85.98c0,2.79-.38,5.58-1.08,8.3l-.7-.04-18.86-.05v-27.21c11.4-2.85,20.63,5.28,20.63,19Z"/>
      <path class="cls-2" d="m108.28,94.23l.7.04c-2.76,10.67-10.47,20.08-19.55,22.36-5.06,1.26-9.69.23-13.28-2.5h0s13.28-19.94,13.28-19.94l18.86.05Z"/>
      <path class="cls-6" d="m89.42,66.98v27.21l-13.28,19.94c-4.5-3.43-7.35-9.54-7.35-17.16,0-13.71,9.24-27.13,20.63-29.99Z"/>
      <polygon class="cls-8" points="61.69 104.25 61.69 123.93 46.94 129.13 46.94 109.46 61.69 104.25"/>
      <polygon class="cls-8" points="59.4 77.89 59.4 97.57 44.64 102.77 44.64 83.1 59.4 77.89"/>
      <polygon class="cls-5" points="40.51 297.82 40.51 303.96 35.6 306.58 35.6 300.34 21.74 290.78 21.74 214.88 25.82 213.36 25.82 288.09 40.51 297.82"/>
      <polygon class="cls-8" points="40.08 95.88 40.08 115.56 25.31 120.76 25.31 101.09 40.08 95.88"/>
      <polygon class="cls-9" points="35.6 300.34 35.6 306.58 1 283.24 1 277.92 17.39 288.72 17.39 283.55 17.39 216.5 21.74 214.88 21.74 290.78 35.6 300.34"/>
      <polygon class="cls-5" points="17.39 283.55 17.39 288.72 1 277.92 6.28 276.59 17.33 283.55 17.39 283.55"/>
    </g>
    <g>
      <polygon class="cls-13" points="196.58 2.06 13.52 64 13.52 217.93 17.39 216.5 21.74 214.88 25.82 213.36 185.78 153.91 190.13 152.29 194.21 150.77 196.58 149.89 196.58 2.06"/>
      <polyline class="cls-13" points="13.52 217.93 9.25 215.72 9.25 61.79 191.01 1 196.58 2.06"/>
      <polyline class="cls-13" points="17.39 216.49 17.39 216.5 17.39 283.55 17.39 288.72 1 277.92 6.28 276.59 17.33 283.55"/>
      <polyline class="cls-13" points="21.74 214.88 21.74 290.78 35.6 300.34 35.6 306.58 1 283.24 1 277.92"/>
      <polyline class="cls-13" points="25.82 213.36 25.82 288.09 40.51 297.82 40.51 303.96 35.6 306.58"/>
      <polyline class="cls-13" points="185.78 153.85 185.78 153.91 185.78 220.92 185.78 226.09 169.39 215.29 174.67 213.95 185.72 220.92"/>
      <polyline class="cls-13" points="190.13 152.24 190.13 152.29 190.13 228.14 203.99 237.7 203.99 243.95 169.39 220.61 169.39 215.29"/>
      <polyline class="cls-13" points="194.21 150.72 194.21 150.77 194.21 225.45 208.9 235.18 208.9 241.32 203.99 243.95"/>
      <path class="cls-13" d="m76.14,114.12c-4.5-3.43-7.35-9.54-7.35-17.16,0-13.71,9.24-27.13,20.63-29.99,11.4-2.85,20.63,5.28,20.63,19,0,2.79-.38,5.58-1.08,8.3-2.76,10.67-10.47,20.08-19.55,22.36-5.06,1.26-9.69.23-13.28-2.5"/>
      <polyline class="cls-13" points="89.42 66.98 89.42 94.19 76.14 114.12 76.14 114.13"/>
      <line class="cls-13" x1="89.42" y1="94.19" x2="108.28" y2="94.23"/>
      <polygon class="cls-13" points="138.15 93.76 145.67 91.14 145.67 70.77 138.15 73.75 138.15 93.76"/>
      <polygon class="cls-13" points="150.8 89.1 158.33 86.48 158.33 59.44 150.8 62.42 150.8 89.1"/>
      <polygon class="cls-13" points="164.13 83.77 171.65 81.15 171.65 47.45 164.13 50.42 164.13 83.77"/>
      <path class="cls-13" d="m132.46,52.9v48.63l47.24-17.27"/>
      <line class="cls-13" x1="80.78" y1="134.51" x2="109.47" y2="124.18"/>
      <line class="cls-13" x1="80.78" y1="141.18" x2="109.47" y2="130.84"/>
      <line class="cls-13" x1="80.78" y1="147.84" x2="109.47" y2="137.51"/>
      <line class="cls-13" x1="80.78" y1="154.5" x2="109.47" y2="144.17"/>
      <line class="cls-13" x1="135.42" y1="115.19" x2="164.11" y2="104.86"/>
      <line class="cls-13" x1="135.42" y1="121.85" x2="164.11" y2="111.52"/>
      <line class="cls-13" x1="135.42" y1="128.52" x2="164.11" y2="118.18"/>
      <line class="cls-13" x1="135.42" y1="135.18" x2="164.11" y2="124.84"/>
      <polygon class="cls-13" points="44.64 83.1 44.64 102.77 59.4 97.57 59.4 77.89 44.64 83.1"/>
      <polygon class="cls-13" points="25.31 101.09 25.31 120.76 40.08 115.56 40.08 95.88 25.31 101.09"/>
      <polygon class="cls-13" points="46.94 109.46 46.94 129.13 61.69 123.93 61.69 104.25 46.94 109.46"/>
    </g>
  </g>
  <g>
    <g>
      <polygon class="cls-5" points="466.09 286.28 466.09 331.17 461.03 334.08 461.03 288.54 466.09 286.28"/>
      <path class="cls-4" d="m461.03,288.54l-4.68,2.1-11.27,5.05-3.7,1.66-25.56,11.45-3.71,1.66-15.93,7.13-71.49,32.02-4.4,1.97-4.37-3.07-11.76-8.25-16.58-11.64-2.18-1.53-.27-.26c1.2-1.26,2.28-2.75,3.27-4.37l.48.11,31.28,21.7,145.94-65.38v7.39l-5.06,2.27Z"/>
      <polygon class="cls-4" points="461.03 288.54 461.03 334.08 456.74 331.84 456.74 291.5 456.35 290.64 461.03 288.54"/>
      <path d="m453.07,218.46s1.69.53,1.3,4.31c-.39,3.78-6.73,45.01-6.73,45.01l-9.52-5.73.23-.38c1.97-8.49,4.21-27.04,4.33-27.83,0-.01,0-.02,0-.02,2.22-9.28,1.66-16.65,1.66-16.65-2.24-2.77-6.33-6.24-9.27-8.59l17.99,9.89Z"/>
      <path class="cls-5" d="m445.15,295.84v21.47c-1.99.9-3.7,0-3.7,0v-19.82l-.07-.15,3.7-1.66.07.15Z"/>
      <path class="cls-10" d="m442.68,233.84c-.12.79-2.36,19.34-4.33,27.83l-.23.38-9.46-5.69-.15-.24c4.93-3.27,7.44-6.19,7.44-6.19,3.45-5.34,5.5-11.01,6.73-16.09Z"/>
      <path d="m435.24,179.76c3.56,2.46,2.11,10.68,2.11,10.68-.75,5.16-2.62,8.56-4.81,10.8h0c-.99-.92-2.44-3.51-2.44-3.51,3.21-.54,3.74-3.52,3.74-3.52,0,0,.61-3.05-1.53-3.67s-3.51,1.61-3.51,1.61c-3.05-2.6-2.44-7.41-2.44-7.41-7.82,1.37-12.31.59-14.88-.89-2.73-1.57-3.3-3.92-3.38-5.3-.15-2.67.46-5.73,4.05-6.11,3.59-.38,4.51,2.44,4.51,2.44,15.88-3.74,18.59,4.87,18.59,4.87Z"/>
      <path class="cls-10" d="m417.28,249.63l-.16-.23-15.66-9.43c.07-.53.15-1.07.23-1.61l-.23-.04c-8.15,4.4-17.21,7.4-17.21,7.4l-1.2-1-4.87-4.08,12.01-7.33,4.21-2.57c3.27-9.35,12.47-24.68,12.47-24.68,4.95-1.26,9.85-1.29,9.85-1.29l.09-.23c.2.08.4.15.62.23l-3.75,3.12,1.88,2.82-3.73,2.21,2.24,14.7h1.8s2.84-4.14,6.32-9.02c1.05-1.48,2.16-3.02,3.27-4.54,2.24-3.08,4.48-6.07,6.19-8.16,0,0,.83.61,2.09,1.6.41.32.86.67,1.34,1.06h0c2.94,2.36,7.02,5.83,9.27,8.6,0,0,.57,7.36-1.66,16.65,0,0,0,.01,0,.02-1.22,5.08-3.28,10.74-6.73,16.09,0,0-2.51,2.91-7.44,6.19-3.76,2.5-8.93,5.22-15.47,6.99-.12.04-.25.07-.37.1l-1.01-.84-5.49-4.61-.1-.09,11.21-8.04Z"/>
      <path class="cls-5" d="m413.68,193.27c.56,0,1.01-.45,1.01-1s-.45-1-1.01-1-1,.45-1,1,.45,1,1,1Zm18.62-2.73c2.14.61,1.53,3.67,1.53,3.67,0,0-.53,2.98-3.74,3.52,0,0,1.45,2.6,2.44,3.51h0c-.54.56-1.11,1.05-1.69,1.48-.23.16-.46.32-.69.48-4.01,2.61-8.12,2.36-8.12,2.36-1.44-.05-2.71-.23-3.83-.54-.27-.07-.53-.15-.78-.23-.21-.07-.42-.15-.62-.23-10.62-4.24-5.5-20.37-5.5-20.37l.15-.34c2.57,1.48,7.06,2.27,14.88.89,0,0-.61,4.81,2.44,7.41,0,0,1.37-2.22,3.51-1.61Zm-10.95,2.39c0-.56-.45-1-1-1s-1,.45-1,1,.45,1,1,1,1-.45,1-1Z"/>
      <path class="cls-5" d="m430.84,202.71l.79,3.19c-1.71,2.1-3.95,5.08-6.19,8.16l-1.7-3.34h0s-.9-1.77-.9-1.77h-1.67c1.03,0,4.49-.45,8.98-5.77.23-.15.46-.31.69-.48Z"/>
      <path class="cls-5" d="m423.75,210.73l1.7,3.34c-1.11,1.52-2.22,3.07-3.27,4.54l-.21-.15-.63-4.95,2.41-2.79Z"/>
      <path class="cls-1" d="m423.75,210.73h0s-2.41,2.79-2.41,2.79l-2-.58-.32-3.07-.22-.18,1.2-1.46c.26.29.54.54.86.72,0,0,.11.02.32.02h1.67l.9,1.77Z"/>
      <path class="cls-1" d="m421.97,218.46l.21.15c-3.48,4.89-6.32,9.02-6.32,9.02.07-3.18.38-6.94.76-10.46l2.72-4.23,2,.58.63,4.95Z"/>
      <circle cx="420.34" cy="192.94" r="1"/>
      <path class="cls-5" d="m417.37,210.91c.33-2.54.62-4.51.76-5.39l.33.04s.55,1.57,1.54,2.66l-1.2,1.46-1.51,1.83c.02-.21.05-.41.08-.6Z"/>
      <path class="cls-5" d="m419.02,209.86l.32,3.07-2.72,4.23c.21-2.01.45-3.94.67-5.66l1.51-1.83.22.18Z"/>
      <path class="cls-5" d="m418.2,205.01c1.12.31,2.39.49,3.83.54,0,0,4.11.24,8.12-2.36-4.49,5.33-7.95,5.77-8.98,5.77-.21,0-.32-.02-.32-.02-.32-.18-.6-.43-.86-.72-.99-1.09-1.54-2.66-1.54-2.66l-.33-.04c.05-.32.08-.5.08-.5Z"/>
      <path class="cls-10" d="m418.13,205.51c-.13.88-.43,2.85-.76,5.39l-1.81-.18-1.88-2.82,3.75-3.12c.25.09.51.16.78.23,0,0-.03.18-.08.5Z"/>
      <path class="cls-10" d="m415.55,210.73l1.81.18c-.03.2-.05.4-.08.6-.22,1.72-.46,3.65-.67,5.66-.38,3.52-.69,7.28-.76,10.46h-1.8l-2.24-14.7,3.73-2.21Z"/>
      <path class="cls-5" d="m415.83,308.79v22.52c-1.99.9-3.7,0-3.7,0v-20.85s3.7-1.66,3.7-1.66Z"/>
      <path d="m414.69,192.27c0,.55-.45,1-1.01,1s-1-.45-1-1,.45-1,1-1,1.01.45,1.01,1Z"/>
      <path d="m412.13,310.47v2.07l-2.45,11.22c-10.18,7.85-14.22,0-14.22,0l.73-6.18,15.93-7.13v.02Z"/>
      <path class="cls-5" d="m411.67,262.37l1.01.84c.12-.03.25-.07.37-.1l4.38,2.69c-.26-.16-24.13,8.81-24.13,8.81l-.69.12-.89-5.18,2.5,1.62,7.24-2.72c.37.15.87.16,1.51-.23,1.52-.93,3.78-2.16,3.78-2.16,0,0,3.63-.55,4.7-3.44l.21-.26Z"/>
      <path d="m409.68,323.76v4.98c-10.82,7.54-17.49,6.08-19.68,2.01-2.19-4.07,5.46-6.99,5.46-6.99,0,0,4.04,7.85,14.22,0Z"/>
      <path class="cls-5" d="m404.57,257.91l.06.24c-1.99.46-5.5,1.56-7.18,3.83l-7.8-4.91h-.07s-1.24-7.22-1.24-7.22l-2.71-1.62,2.33-.49,16.6,10.17Z"/>
      <path class="cls-5" d="m398.81,266.8s.39,1.28,1.86.98c0,0,.27.47.79.67l-7.24,2.72-2.5-1.62h0l-2.13-12.45h.07s7.8,4.89,7.8,4.89c-.2.26-.37.54-.51.84,0,0-.75,1.72.51,2.11,0,0-.07,1.81,1.36,1.86Z"/>
      <path class="cls-5" d="m400.67,267.78c-1.47.3-1.86-.98-1.86-.98-1.42-.05-1.36-1.86-1.36-1.86-1.25-.39-.51-2.11-.51-2.11.14-.3.31-.58.51-.84,1.67-2.27,5.19-3.37,7.18-3.83.87-.2,1.44-.27,1.44-.27l.1-.12,5.49,4.61-.21.26c-1.08,2.89-4.7,3.44-4.7,3.44,0,0-2.25,1.22-3.78,2.16-.64.38-1.14.37-1.51.23-.53-.2-.79-.67-.79-.67Z"/>
      <path class="cls-5" d="m394.24,276.13l-1.19-.69h-.31l-.12-.71.69-.12s23.87-8.97,24.13-8.81v1.69l-23.19,8.64Z"/>
      <polygon class="cls-5" points="392.61 274.72 392.73 275.44 363.46 256.26 358.57 232 373.7 241.08 382.54 246.38 385.63 248.24 388.35 249.86 389.59 257.09 391.72 269.54 391.72 269.54 392.61 274.72"/>
      <path class="cls-5" d="m382.54,246.38c.65-.83.53-1.64.53-1.64l1.2,1s9.06-3.01,17.21-7.4l.23.04c-.09.54-.16,1.08-.23,1.61l15.66,9.43.16.23-11.21,8.04.1.09-.1.12s-.57.08-1.44.27l-.06-.24-16.6-10.17-2.33.49-3.1-1.86Z"/>
      <path class="cls-5" d="m383.06,244.74s.12.81-.53,1.64l-8.83-5.3c2.07-.47,4.48-.42,4.48-.42l4.87,4.08Z"/>
      <path d="m371.77,176.49s1.69.53,1.3,4.3c-.39,3.78-5.75,38.62-5.75,38.62l-8.88-5.34h0c.6-3.24-1.08-7.61-1.39-8.39,4.21-9.63,7.62-27.13,7.62-27.13-.08-2.44-1.28-5.01-2.87-7.37l.14-.1,9.83,5.41Z"/>
      <path d="m364.5,144.58c1.88,2.72,3.34,9.36.73,15.71,0,0-1.03,2.6.06,3.99,0,0-4.19,1.38-8.96-1.37,0,0-.38-2.75.34-4.7l-.12-.08c.98-1.42,1.86-3.18,2.6-5.35,0,0,1.51-4.33.5-8.75,0,0,2.99-2.18,4.86.54Z"/>
      <path class="cls-4" d="m330.49,187.23c-.15.24-2.64,4.08-5.8,6.51l-15.19-9.15-7.04-14.42.47-.31,4.75-3.1.38-.24,12.3,17.07s7.16-12.57,9.33-17.07c2.17-4.5,7.25-5.19,7.25-5.19l.23-.34c1.08,1,2.54,1.8,4.48,2.29,0,0,.38.14,1.05.29l-.06.27s-.12,2.71.75,3.71c0,0,5.49-.53,8.52-4.78l-.14-.27c.42-.21.84-.47,1.26-.76l.18.26s5.2,4.13,8.59,9.18c1.59,2.36,2.79,4.94,2.87,7.37,0,0-3.41,17.5-7.62,27.13-.96,2.19-1.95,3.97-2.97,5.05-.13.14-.27.27-.42.39-5.94,4.9-23.96-5.56-23.96-5.56,0,0-.12-2.95,2.27-6.01h0c.07-.1.15-.19.23-.29l1.53.16.02-.23-3.62-2.18.36-9.79Z"/>
      <path d="m354.08,210.73c1.01-1.08,2.01-2.86,2.97-5.05.32.78,2,5.14,1.39,8.38l-4.68-2.82-.1-.13c.15-.12.29-.25.42-.39Z"/>
      <path class="cls-5" d="m335.56,147.35c.17-.53.33-.98.49-1.39,0,0,4.21-.29,6.9-3.74,0,0-1.31,6.44,5.27,9.87,0,0,1.79-2.01,3.61-1.06s.51,4.75-2.85,4.95c0,0,.24,4.06,4.28,5.63-.07.05-.14.1-.21.15-.42.29-.84.55-1.26.76-3.63,1.91-7.32,1.46-9.07,1.07-.67-.15-1.05-.29-1.05-.29-1.95-.49-3.41-1.29-4.48-2.29-2.41-2.24-2.9-5.48-2.66-8.48l.04-.4-1.51-1.94,2.03-1.07.04-.17c.15-.61.3-1.13.44-1.59Zm4.8,6.57l-3.85-.45c0,2.71,1.08,3.95,1.08,3.95,2.52-.29,2.77-3.51,2.77-3.51Zm-1.67-4.61c.04-.49-.32-.92-.8-.95s-.89.34-.93.83.32.92.8.95c.48.04.89-.34.93-.83Z"/>
      <polygon class="cls-12" points="347.19 303.76 317.52 317.03 301.31 302.15 304.54 300.79 315.92 310.47 341.37 299.12 347.19 303.76"/>
      <path class="cls-5" d="m344.98,297.51l-3.61,1.61-25.45,11.35-11.38-9.68-4.91-4.18c.52-.15,28.86-12.11,28.86-12.11l16.49,13.01Z"/>
      <path class="cls-5" d="m342.71,163.57c1.75.39,5.44.84,9.07-1.07l.14.27c-3.02,4.25-8.52,4.78-8.52,4.78-.87-1.01-.75-3.71-.75-3.71l.06-.27Z"/>
      <path class="cls-5" d="m336.5,153.48l3.85.45s-.26,3.21-2.77,3.51c0,0-1.08-1.25-1.08-3.95Z"/>
      <path d="m338.68,149.32c-.04.49-.45.87-.93.83-.48-.03-.84-.46-.8-.95s.45-.87.93-.83.84.46.8.95Z"/>
      <path d="m335.56,147.35c-2.28-2.06-1.13-6.13-1.13-6.13,1.39-4.24,7.04-5.16,7.04-5.16,2.74-1.61,7.84-.84,7.84-.84,6.84,1.32,9.48,5.09,10.34,8.81,1.01,4.42-.5,8.75-.5,8.75-.73,2.17-1.62,3.93-2.6,5.35-1.02,1.48-2.14,2.61-3.3,3.45-4.04-1.57-4.28-5.63-4.28-5.63,3.37-.2,4.67-4,2.85-4.95s-3.61,1.06-3.61,1.06c-6.58-3.43-5.27-9.87-5.27-9.87-2.68,3.45-6.9,3.74-6.9,3.74-.16.41-.32.86-.49,1.39Z"/>
      <path class="cls-5" d="m299.63,296.6l4.91,4.18-3.23,1.36,16.21,14.88,29.67-13.27-5.82-4.64,3.61-1.61-16.49-13.01s-28.34,11.96-28.86,12.11Zm4.74-94.84l-26.89,11.75,12.64,8.66-4.34,2.14,23.6,12.99,21.86-17.89-9.26-4.71,2.72-1.47-20.33-11.47Zm25.77-4.75l3.62,2.18-.02.23-1.53-.16c-.08.1-.16.19-.23.29h0c-.26-.14-4.42-2.42-6.96-2.53-2.63-.12-7.11.98-6.53,2.54,0,0-1.51,1.43-.64,2.19,0,0-.93,1.17,0,1.86,0,0-.7,1.4.93,1.81s4.61,0,4.61,0c0,0,2.74,2.39,6.32.15,0,0,18.03,10.46,23.96,5.56l.1.13,4.68,2.82h0s8.88,5.35,8.88,5.35l22.74,13.7.13.22-12.01,7.33s-2.41-.05-4.48.42l-15.14-9.08,4.89,24.26,29.27,19.18h.31l1.19.69,23.19-8.64v-1.69l-4.38-2.69c6.54-1.78,11.71-4.49,15.47-6.99l.15.24,9.46,5.69,9.52,5.73,18.45,11.11-145.94,65.38-31.28-21.7-.48-.11c5.03-8.26,7.41-19.77,7.41-19.77l-.23-.13.23-.4c1.91-2.97,2.58-7,2.58-7l2.36-3.27c1.3-2.28-.76-3.35-.76-3.35l6.57-14.44-20.77-10.75-12.21,27.4,13.81,7.68-9.28,12.5c-2.21-6.39-5.73-16.49-7.49-20.91-2.67-6.73-11.33-10.29-11.33-10.29l-.42-4.5c-.49-.08-1-.17-1.5-.27l.34-2.33c4.1-1.26,7.5-4.1,9.44-7.81,3.14-.71,4.73-3.96,3.81-5.84-.48-.98-1.3-1.12-2.02-1,.01-.14.01-.29.01-.43,0-7.9-5.89-14.45-13.57-15.61l1.39-6.53-31.53-18.03-4.75,22.05-20.7,7.35c-1.28-2.75-2.85-4.68-4.37-6.03-.78-3.67-1.36-7.94-1.77-11.89l.56-.06c4.97-2.1,5.52-8,5.52-8l1.55-.93-1.45-1.71c.4-4-1.4-8.06-1.5-8.28h0c.35-1.24.36-2.14.36-2.14,0,0-2.64-6.19-9.59-7.54l.05-.27,6.03-2.23,31.98-11.81,52.37-19.34,30,18.07,15.19,9.15,5.44,3.27Zm-48.08,11.95l27.76-9.23-17.38-11.34-25.71,7.4,15.33,13.17Zm-23.18-4.47l6.01-2.26-23.45-15.09-22.31,8.01,3.4,2.82-4.97,1.89,20.16,18.99,26.03-10.67-4.87-3.69Z"/>
      <polygon class="cls-7" points="331.23 219.41 309.37 237.3 285.77 224.32 290.12 222.17 298.09 227.63 321.97 214.7 331.23 219.41"/>
      <path class="cls-5" d="m318.48,199.55c-.58-1.55,3.9-2.65,6.53-2.54,2.54.11,6.7,2.39,6.96,2.53-2.39,3.06-2.27,6.01-2.27,6.01-3.59,2.25-6.32-.15-6.32-.15,0,0-2.97.41-4.61,0s-.93-1.81-.93-1.81c-.93-.7,0-1.86,0-1.86-.87-.76.64-2.19.64-2.19Z"/>
      <polygon class="cls-5" points="324.7 349.6 324.7 394.59 320.29 396.46 320.29 351.58 324.7 349.6"/>
      <polygon class="cls-5" points="324.7 213.23 321.97 214.7 298.09 227.63 290.12 222.17 277.48 213.52 304.37 201.76 324.7 213.23"/>
      <polygon class="cls-4" points="320.29 351.58 320.29 396.46 315.92 392.91 315.92 371.79 315.92 366.42 315.92 348.51 320.29 351.58"/>
      <path d="m315.92,366.42v5.38c0,.5-5.72,5.25-12.09,5.37-6.37.13-7.35-3.25-7.35-3.25-.1-2,0-3.96,0-3.96,8.92,1.88,12.63-4.17,12.63-4.17,0,0,4.29-2.49,6.82.64Z"/>
      <path d="m309.81,199.73l-27.76,9.23-15.33-13.17,25.71-7.4,17.38,11.34Zm-26.58,5.83l21.08-6.29-13.32-8.14-18.72,5.48,10.96,8.96Z"/>
      <path d="m292.54,346.27c-4.48,2.25-12.88,6.38-20.49,9.78-11.05,4.94-16.13.57-16.13.57v-10.43c7.99.84,13.02-4.51,13.02-4.51l.68-8.5.43.04,9.14-2.28,8.19-2.04.2-.27,16.58,11.64-.15.22,5.1,25.31s-3.7,6.05-12.63,4.17c-.23-.04-.45-.1-.68-.15l-2.28-6.67h-.29v-10.5l-.58-.06c1.56-1.06,3.32-3.15-.1-6.3Z"/>
      <path class="cls-5" d="m283.5,201.91l1.14.92,1.53-.43-1.04-.9-1.63.4Zm4.58-1.25l1.14.92,1.54-.43-1.05-.9-1.63.4Zm-4.9-.47l-1.04-.9-1.64.4,1.14.92,1.54-.42Zm4.58-1.25l-1.04-.9-1.64.41,1.15.92,1.53-.42Zm16.55.32l-21.08,6.29-10.96-8.96,18.72-5.48,13.32,8.14Zm-21-2.18l1.54-.42-1.05-.9-1.63.41,1.14.92Zm-4.58,1.25l1.53-.42-1.04-.9-1.63.4,1.14.92Z"/>
      <path class="cls-5" d="m299.97,288.53s2.06,1.06.76,3.35l-2.36,3.27s-.67,4.03-2.58,7l-.23.4-7.02-4.04s-1.39-8.69.99-8.92c2.37-.23,2.37,5.1,2.37,5.1l8.06-6.16Z"/>
      <path class="cls-5" d="m298.75,162.36l.33.1c-.2.7-.38,1.53-.49,2.48l-.49-.06-6.32-1.15c-.82-.99.66-1.97.66-1.97l6.32.61Z"/>
      <path class="cls-5" d="m293.22,363.13v20.14c-1.99.9-3.69,0-3.69,0v-28.79l-.13-.26,1.69-.84s.75-.27,1.55-.81l.58.06v10.5Z"/>
      <path d="m255.91,356.62s5.08,4.37,16.13-.57c7.62-3.4,16.01-7.53,20.49-9.78,3.42,3.15,1.67,5.24.1,6.3-.79.54-1.55.81-1.55.81l-1.69.84-27.97,13.97c-2.01,1.05-3.89,1.5-5.53,1.59-1.38.08-2.6-.08-3.6-.33-1.94-.47-3.1-1.26-3.1-1.26,0,0-20.13-15.36-28.34-22.53-1.5-1.31-2.6-2.35-3.1-2.97-.26-.32-.49-.64-.71-.97-2.5-3.79-2.05-7.86-2.05-7.86,0,0-.12-17.04-.12-30.19,0-2.18,0-4.25,0-6.13.02-3.81.05-6.77.12-8.11.13-2.86,1.28-3.6,2.44-3.6,1.27,0,2.55.88,2.55.88l6.79,4.75,2.2,1.54,21.1,14.78s5.83,4.09,5.83,9.25v39.6Z"/>
      <path class="cls-5" d="m292.05,160.79c.21-1.5,6.99-.31,7.53-.21.02,0,.04,0,.04,0l.12.02c-.15.35-.41,1-.65,1.86l-.33-.1-6.32-.61c-.55-.22-.38-.97-.38-.97Z"/>
      <path class="cls-5" d="m299.72,160.6l-.12-.02s-.01,0-.04,0c-1.78-.41-6.15-2.51-5.27-3.38s9.83,2.14,9.83,2.14c0,0-.88-4.12.77-4.45s1.59,10.05,1.59,10.05l1.2,1.83-4.75,3.1-1.5-1.77c-10.49-.73-9.68-4.36-9.68-4.36l6.32,1.15.49.06c.11-.95.3-1.78.49-2.48.24-.87.49-1.51.65-1.86Z"/>
      <path class="cls-5" d="m288.55,298.51l-.87-.5-.3.4-13.81-7.68,12.21-27.4,20.77,10.75-6.57,14.44-8.06,6.16s0-5.33-2.37-5.1c-2.38.23-.99,8.92-.99,8.92Z"/>
      <path class="cls-5" d="m270.24,327.61l-.2.21-.43,5.36-.68,8.5s-5.03,5.36-13.02,4.51v-29.16c0-5.16-5.83-9.25-5.83-9.25l-21.1-14.78s.42-2.28,1.09-5.08c.42-1.71.93-3.62,1.49-5.33.63-1.88,1.33-3.5,2.04-4.34,2.43-2.86,8-3.04,8-3.04l1.84-3.8s2.3.71,5.44,1.54c2.54.68,5.62,1.45,8.47,1.99.51.1,1.01.19,1.5.27l.42,4.5s8.66,3.57,11.33,10.29c1.76,4.42,5.28,14.52,7.49,20.91l9.28-12.5.3-.4.87.5,7.02,4.04.23.13s-2.38,11.5-7.41,19.77c-.99,1.62-2.08,3.12-3.27,4.37-1.77,1.88-3.78,3.23-6.02,3.7-.58.12-1.18.18-1.79.18-2.61-.01-4.96-1.21-7.06-3.1Z"/>
      <path class="cls-5" d="m270.94,258.96c.93,1.88-.67,5.13-3.81,5.84,1.09-2.05,1.72-4.37,1.78-6.84.73-.12,1.54.02,2.02,1Z"/>
      <path d="m255.36,241.92c7.68,1.16,13.57,7.71,13.57,15.61,0,.14,0,.29-.01.43-.06,2.47-.7,4.79-1.78,6.84-1.95,3.71-5.34,6.55-9.44,7.81-1.51.46-3.12.71-4.78.71-1.38,0-2.72-.17-4-.5-4.36-1.1-7.99-3.96-10.09-7.78-.42-.76-.78-1.57-1.07-2.41-.37-1.04-.62-2.13-.75-3.26-.08-.6-.12-1.23-.12-1.86,0-1.57.23-3.08.67-4.51.09-.01.18-.01.26-.01l-.22-.13c.29-.92.66-1.81,1.11-2.65.37-.7.79-1.37,1.26-2,2.84-3.84,7.4-6.37,12.57-6.49.12,0,.25,0,.37,0,.83,0,1.65.06,2.44.18Z"/>
      <polygon class="cls-5" points="222.52 197.96 219.12 195.15 241.43 187.14 264.88 202.23 258.87 204.49 239.28 211.84 222.52 197.96"/>
      <polygon class="cls-3" points="263.74 208.18 237.71 218.84 217.55 199.86 222.52 197.96 239.28 211.84 258.87 204.49 263.74 208.18"/>
      <path class="cls-5" d="m256.75,235.39l-1.39,6.53c-.79-.12-1.61-.18-2.44-.18-.12,0-.25,0-.37,0l1.08-5.22-26.83-15-3.39,16.76,16.58,9.95c-.48.63-.9,1.3-1.26,2l-18.25-10.82,4.75-22.05,31.53,18.03Z"/>
      <path class="cls-5" d="m252.3,369.45c1.01.25,2.22.41,3.6.33v.17s.01,30.64.01,30.64c-1.99.9-3.7,0-3.7,0v-30.79l.08-.35Z"/>
      <path class="cls-5" d="m253.62,236.52l-1.08,5.22c-5.16.12-9.72,2.64-12.57,6.49l-16.58-9.95,3.39-16.76,26.83,15Z"/>
      <path class="cls-5" d="m257.36,274.94c-2.85-.54-5.94-1.31-8.47-1.99l.03-.12c1.28.33,2.62.5,4,.5,1.66,0,3.27-.25,4.78-.71l-.34,2.33Z"/>
      <path class="cls-5" d="m244.41,131.19c-.78-1.54,1.26-2.22,1.26-2.22-1.01-1.14.51-2.34.51-2.34,5.25-.24,7.78,4.56,4.81,10.98-1.44,3.12-4.81,3.32-4.81,3.32v-2.39l-.34-.19s-.66-.13-2.53-1.56c-1.5-1.14-.43-2.44.05-2.92.12-.12.21-.18.21-.18-.9-1.49.83-2.5.83-2.5Z"/>
      <path class="cls-5" d="m246.18,140.93v4.04l-17.08,5.36-3.92,1.23-1.17-31.28,2.95-.9,3.98-1.22,15.23-4.67v13.14s-1.53,1.2-.51,2.34c0,0-2.03.68-1.26,2.22,0,0-1.73,1.01-.83,2.5,0,0-.09.07-.21.18-.49.48-1.55,1.78-.05,2.92,1.87,1.44,2.53,1.56,2.53,1.56l.34.19v2.39Z"/>
      <path class="cls-5" d="m238.83,265.05l-10.21,3.67-2.66-1.69-.02-.13c2.16-.34,3.43-2.46,3.43-2.46,1.48-.74,2.79-.89,3.78-1.19l1.25.55,3.37-1.15c.29.84.65,1.64,1.07,2.41Z"/>
      <path class="cls-5" d="m220.47,239.4l18.25,10.82c-.45.84-.82,1.73-1.11,2.65l-17.58-10.6-8.1,2.97-.02.5c-1.58-.1-4.62.06-8.15,2.02l-3.26.71c-.23-.61-.47-1.19-.73-1.73l20.7-7.35Z"/>
      <path d="m237.83,253.01c-.09,0-.17,0-.26.01.01-.05.02-.1.04-.15l.22.13Z"/>
      <path class="cls-5" d="m237.56,253.02c-.43,1.43-.67,2.94-.67,4.51,0,.63.04,1.25.12,1.86-.68-.84-1.42-2.24-1.22-4.08.2-1.74,1.05-2.21,1.77-2.28Z"/>
      <path class="cls-5" d="m234.25,262.69c.99-.84-.15-1.91-.15-1.91.64-1.44-.95-1.46-.95-1.46.48-1.37-1.26-1.39-1.26-1.39.1-.15.15-.28.18-.4.15-.6-.4-.89-.4-.89-3.66-.41-6.34.45-8.16,1.49l-.12-.21-8.31-5.16c.49-.29.98-.66,1.45-1.12,0,0,.1-.55-.34-.87v-.23c.36-.01,4.68-.19,4.24-1.47-.16-.48-1.12-.68-2.28-.73v-.02s.64-1.19-2.08-1.33v-.12c-.13,0-.46-.87-3-.98h0s-.42-.12-1.17-.16l.02-.5,8.1-2.97,17.58,10.6s-.03.1-.04.15c-.71.07-1.57.54-1.77,2.28-.21,1.84.54,3.24,1.22,4.08.13,1.13.38,2.22.75,3.26l-3.37,1.15-1.25-.55c.43-.13.8-.29,1.1-.55Z"/>
      <path class="cls-5" d="m232.07,257.53c-.03.12-.09.25-.18.4,0,0,1.74.02,1.26,1.39,0,0,1.58.02.95,1.46,0,0,1.14,1.07.15,1.91-.3.26-.67.42-1.1.55-.99.31-2.3.45-3.78,1.19,0,0-1.26,2.12-3.43,2.46-.69.11-1.47.04-2.33-.35h0c-.05-3.37-1.92-5.03-3.17-5.76,0,0,.96-1.45,3.07-2.64,1.82-1.04,4.5-1.9,8.16-1.49,0,0,.55.29.4.89Z"/>
      <path class="cls-4" d="m230.96,282.38l.6.21c-.56,1.71-1.08,3.62-1.49,5.33l-.71-.13-3.7-2.59-8.66-6.07-7.16-5.02-.17-.44,5.93-2.34.21.54,15.14,10.5Z"/>
      <path class="cls-5" d="m199.54,136.8s6.15-1.57,7.81-3.29c1.67-1.72.16-2.81.16-2.81,1.04-1.77-.86-2.75-.86-2.75.64-2.18-2.26-2.08-2.26-2.08,1.25-1.25-.22-2.22-.22-2.22-2.62-1.09-10.05,2.55-10.05,2.55,0,0-.26-2.15-.78-3.34t0-.01c-.37-.84-.87-1.19-1.51.09-1.53,3.07-.26,11.09-.26,11.09l-.1.33,8.08,2.44Zm27.42-17.43l-2.95.9,1.17,31.28,3.92-1.23s-.26,8.2-.86,13.65c0,0-.23.22-.7.58-2.8,2.16-14.06,9.46-34.4,5.5-.2-.04-.41-.08-.62-.12,0,0-1.35-4.6-1.47-8.8-4.53.89-9.97-2.53-11.24-9.19-1.98-10.4,4.27-32.95,8.36-36.14,4.09-3.19,13.05-7.89,13.05-7.89,0,0,1.87,4.34,7.15,6.51l1.68-2.43c-.06.09,2.41,3.81,2.41,3.81l-.06,43.9,5.83,4.27,2.94-5.29-5.89-43.3.6-4.23,1.68,2.11s.67-2.38-.31-6.54c0,0,6.87,1.5,10.06,3.87,0,0,2.78,4.73,3.4,6.9l.2.66-3.98,1.22Z"/>
      <path d="m227.55,164.56l-.41,21.3-31.98,11.81-2-27.61c20.34,3.96,31.6-3.34,34.4-5.5Z"/>
      <path class="cls-5" d="m218.09,285.62c-.75-2.33-2.27-4.39-3.93-6.08l2.85-.4,8.66,6.07,1.11,6.26-6.79-4.75s-1.28-.88-2.55-.88l.65-.21Z"/>
      <path class="cls-5" d="m223.5,268.22c.09-.6.12-1.17.1-1.68h0c.86.38,1.64.46,2.33.35l.02.13,2.66,1.69,10.21-3.67c2.1,3.81,5.73,6.68,10.09,7.78l-.03.12c-3.14-.83-5.44-1.54-5.44-1.54l-1.84,3.8s-5.57.18-8,3.04c-.71.84-1.41,2.47-2.04,4.34l-.6-.21-15.14-10.5-.21-.54,7.89-3.12Z"/>
      <path class="cls-11" d="m198.67,271.88l-.95,1.45-1.23,15.2s-2.69,3.3-10.49,2.49v-25.94c0-4.08-5.69-7.54-5.69-7.54l-7.34-5.03c6.75-2.07,8.83-6.47,8.83-6.47-.09,3.26-1.51,8.8-1.51,8.8,5.61-4.09,7.86-12.8,8.67-17.29l.41.08s2.93.35,6.03,3.1c1.53,1.35,3.1,3.27,4.37,6.03.26.54.5,1.12.73,1.73.07.17.13.34.19.52.89,2.55,1.75,4.71,2.52,6.52,2.41,5.6,4.09,7.81,4.09,7.81l8.92-2.27,3.13-.8s.46.13,1.09.51c1.25.73,3.12,2.39,3.17,5.76.02.51-.02,1.08-.1,1.68l-7.89,3.12-5.93,2.34-2.14.85s-5.75,2.3-8.88-2.64Z"/>
      <path class="cls-5" d="m223.39,257.93l.12.21c-2.11,1.2-3.07,2.64-3.07,2.64-.63-.37-1.09-.51-1.09-.51l-3.13.8-.07-.29-9.65-6.14,1.45-.39s.09-.45.07-1.12c0,0,3.54,1.77,7.07-.36h0l8.31,5.16Z"/>
      <path d="m223.11,72.59s2.23,5.31-2.54,8.86h0c-7.75,2.89-15.33-.6-15.33-.6-.87,8.95-8.44,8.95-8.44,8.95-.28-.73-1.78-1.61-2.93-1.23,0,0-2.49-8.45,1.78-11.39,0,0,1.1-11.15,23.36-3.58,0,0,3.15.18,4.1-1.01Z"/>
      <polygon class="cls-10" points="215.3 115.39 221.19 158.69 218.25 163.98 212.42 159.71 212.48 115.81 215.3 115.39"/>
      <path class="cls-5" d="m216.91,376.61v-34.79l.15-.1c.21.32.45.65.71.97.51.62,1.61,1.66,3.1,2.97l-.27.31v30.65c-1.99.89-3.69,0-3.69,0Z"/>
      <path d="m216.67,88.12c.65,0,1.17.53,1.17,1.17s-.52,1.17-1.17,1.17-1.17-.53-1.17-1.17.52-1.17,1.17-1.17Z"/>
      <path class="cls-5" d="m203.75,247.77c3.54-1.96,6.57-2.13,8.15-2.02.75.04,1.17.15,1.17.15h0c2.54.13,2.86,1,3.01,1v.12c2.71.14,2.07,1.33,2.07,1.33v.02c1.15.05,2.11.25,2.28.73.44,1.28-3.88,1.45-4.25,1.47v.23c.44.32.34.87.34.87-.48.46-.97.82-1.45,1.12h0c-3.53,2.13-7.07.36-7.07.36-.04-1.55-.65-4.28-4.25-5.36Z"/>
      <path class="cls-5" d="m216.67,95.08c.13,4.17-2.82,4.4-2.82,4.4-4.69.75-4.29-3.6-4.29-3.6l7.11-.8Z"/>
      <path class="cls-5" d="m213.8,108.52c.72-.56,1.68-1.51,2.11-2.86l-.15-1.02.15-.02,1.37,2.12c.98,4.15.31,6.54.31,6.54l-1.68-2.11-2.11-2.64Z"/>
      <path class="cls-5" d="m216.14,260.78l.07.29-8.92,2.27s-1.68-2.21-4.09-7.81h0l3.28-.89,9.65,6.14Z"/>
      <path class="cls-5" d="m215.51,89.29c0,.64.52,1.17,1.17,1.17s1.17-.53,1.17-1.17-.52-1.17-1.17-1.17-1.17.53-1.17,1.17Zm5.07-7.85c.51,0,7.86,17.48-5.07,21.42-1.02.32-2.17.54-3.45.67,0,0-4.8.53-9.24-1.36-2.67-1.13-5.21-3.13-6.5-6.64,0,0-3.82-.1-3.78-4.32.02-1.65.6-2.41,1.34-2.65,1.15-.38,2.65.5,2.93,1.23,0,0,7.57,0,8.44-8.95,0,0,7.57,3.49,15.33.6h0Zm-6.72,18.03s2.95-.23,2.82-4.4l-7.11.8s-.39,4.34,4.29,3.6Zm-3.13-9.36c0-.65-.53-1.17-1.17-1.17s-1.17.52-1.17,1.17.53,1.17,1.17,1.17,1.17-.53,1.17-1.17Z"/>
      <path class="cls-5" d="m215.76,104.64l.15,1.02c-.43,1.34-1.39,2.3-2.11,2.86-.52.4-.91.6-.91.6-.28,0-.56,0-.83-.02-6.4-.29-9.5-3.85-9.5-3.85l.05-.59.21-2.46h0c4.44,1.88,9.24,1.35,9.24,1.35,1.28-.13,2.43-.35,3.45-.67h0s.26,1.77.26,1.77Z"/>
      <path d="m185.99,303.98s4.97,4.17,15.77-.54c4.35-1.89,8.96-4.03,12.92-5.9h.21c0,1.88,0,3.95,0,6.13h-.2l-23.29,11.34c-1.97,1.01-3.8,1.43-5.41,1.52-1.35.07-2.54-.08-3.52-.32-1.89-.45-3.02-1.2-3.02-1.2,0,0-19.68-14.64-27.7-21.47-1.46-1.25-2.54-2.24-3.03-2.83-.26-.31-.49-.61-.7-.92-2.44-3.61-2-7.49-2-7.49,0,0-.04-6.06-.08-13.63-.04-11.06-.07-25.34.08-28.71.1-2.02.73-2.93,1.53-3.27,1.44-.62,3.36.67,3.36.67l15.18,10.41,6.88,4.73,7.34,5.03s5.69,3.46,5.69,7.54v38.91Z"/>
      <path class="cls-10" d="m212.89,109.12s.39-.2.91-.6l2.11,2.64-.6,4.23-2.83.42s-2.47-3.73-2.41-3.81l1.99-2.88v-.02c.27.02.55.02.83.02Z"/>
      <path class="cls-5" d="m214.16,279.53c-3.07-3.14-6.62-5.01-6.62-5.01l2.14-.85.17.44,7.16,5.02-2.85.4Z"/>
      <path d="m209.56,88.95c.64,0,1.17.52,1.17,1.17s-.53,1.17-1.17,1.17-1.17-.53-1.17-1.17.53-1.17,1.17-1.17Z"/>
      <path class="cls-11" d="m208.01,253.13c.02.67-.07,1.12-.07,1.12l-1.45.39-3.28.89h0c-.78-1.81-1.63-3.96-2.52-6.52-.06-.18-.12-.35-.19-.52l3.26-.71c3.6,1.08,4.21,3.81,4.25,5.36Z"/>
      <path class="cls-5" d="m206.65,127.95s1.9.99.86,2.75c0,0,1.51,1.09-.16,2.81-1.66,1.72-7.81,3.29-7.81,3.29l-8.08-2.44.1-.33s-1.28-8.01.26-11.09c.64-1.28,1.14-.93,1.51-.09t0,.01c.53,1.19.78,3.34.78,3.34,0,0,7.43-3.63,10.05-2.55,0,0,1.47.97.22,2.22,0,0,2.9-.1,2.26,2.08Z"/>
      <path class="cls-5" d="m201.24,107.93l.97-3.31.39.04-.05.59s3.1,3.57,9.5,3.85v.02l-1.99,2.88-1.68,2.43c-5.28-2.17-7.15-6.51-7.15-6.51Z"/>
      <path class="cls-5" d="m199.7,220.77s-.54,5.9-5.52,8l-.56.06c-.72-6.9-.95-12.81-.95-12.81,3.64-1.42,5.07-4.23,5.64-6.18.1.23,1.9,4.28,1.5,8.28l1.45,1.71-1.55.93Zm-1.55-2.56c.02-.43-.31-.8-.74-.82-.43-.02-.79.31-.82.74s.31.79.74.82c.43.02.79-.31.82-.73Z"/>
      <path class="cls-5" d="m198.67,271.88c3.12,4.94,8.88,2.64,8.88,2.64,0,0,3.55,1.87,6.62,5.01,1.66,1.69,3.18,3.75,3.93,6.08l-.65.21c-1.17,0-2.32.75-2.44,3.6-.06,1.34-.1,4.31-.12,8.11h-.21c-3.96,1.87-8.57,4.01-12.92,5.9-10.79,4.7-15.77.54-15.77.54v-12.96c7.81.81,10.49-2.49,10.49-2.49l1.23-15.2.95-1.45Z"/>
      <path d="m198.3,209.84h0c-.57,1.96-2,4.76-5.64,6.19,0,0,.23,5.91.95,12.81.42,3.95.99,8.22,1.77,11.89-3.1-2.75-6.03-3.1-6.03-3.1l-.41-.08c-.81,4.48-3.05,13.2-8.67,17.29,0,0,1.42-5.55,1.51-8.8,0,0-2.08,4.4-8.83,6.47l-6.88-4.73c.6-.97,1.12-2.14,1.58-3.43.56-1.53,1.01-3.23,1.4-4.94,1.32-5.83,1.73-11.78,1.73-11.78-.69-10.83.58-17.81,3.5-22.06,2.46-3.59,6.08-5.23,10.67-5.61,1.51-.12,2.88-.04,4.11.21,6.95,1.35,9.59,7.54,9.59,7.54,0,0,0,.9-.36,2.13Z"/>
      <path d="m197.41,217.39c.43.02.76.39.74.82-.02.43-.39.76-.82.73-.43-.02-.76-.39-.74-.82s.39-.76.82-.74Z"/>
      <path class="cls-5" d="m185.99,316.7v29.2c-1.94.86-3.61,0-3.61,0v-29.35l.07-.34c.98.24,2.17.39,3.52.32v.16Z"/>
      <path class="cls-5" d="m174.12,205.44l.18.13c-2.92,4.25-4.19,11.23-3.5,22.06,0,0-.42,5.95-1.73,11.78h-.02s-30.18-20.95-30.18-20.95l35.26-13.02Z"/>
      <path class="cls-4" d="m169.03,239.4h.02c-.38,1.71-.84,3.41-1.4,4.94l-.48-.16-19.46-13.65-4.93-3.46h0s-3.93-2.76-3.93-2.76v-5.85l30.18,20.94Z"/>
      <path class="cls-5" d="m147.87,323.04v-33.16l.14-.09c.21.31.44.62.7.92.49.59,1.57,1.58,3.03,2.83l-.26.3v29.2c-1.94.86-3.61,0-3.61,0Z"/>
      <path class="cls-5" d="m142.79,227.08l4.93,3.46-.26.37v5.61l.08.16c-.79.34-1.43,1.25-1.53,3.27-.15,3.37-.12,17.65-.08,28.71h-.31l-2.83.79v-42.38Z"/>
      <polygon class="cls-4" points="142.79 227.08 142.79 269.46 138.86 266.66 138.86 224.32 142.79 227.07 142.79 227.08"/>
    </g>
    <g>
      <polyline class="cls-13" points="358.45 214.07 367.33 219.41 390.06 233.11"/>
      <line class="cls-13" x1="353.77" y1="211.24" x2="358.45" y2="214.06"/>
      <polyline class="cls-13" points="189.12 199.9 195.15 197.67 227.14 185.86 279.51 166.52 309.51 184.59 324.7 193.74 330.13 197.01 333.75 199.19"/>
      <polyline class="cls-13" points="169.03 239.4 138.86 218.46 174.12 205.44"/>
      <line class="cls-13" x1="230.96" y1="282.38" x2="215.82" y2="271.88"/>
      <polyline class="cls-13" points="428.67 256.36 438.12 262.05 447.64 267.78 466.09 278.89 320.14 344.27 288.87 322.57"/>
      <polyline class="cls-13" points="400.39 239.33 401.47 239.97 417.12 249.4"/>
      <polyline class="cls-13" points="285.39 327.09 287.57 328.62 304.15 340.26 315.92 348.51 320.29 351.58 324.7 349.6 396.19 317.58 412.12 310.45 415.83 308.79 441.39 297.34 445.08 295.68 456.35 290.64 461.03 288.54 466.09 286.28 466.09 278.89"/>
      <polyline class="cls-13" points="209.86 274.11 217.02 279.13 225.67 285.21 229.37 287.8"/>
      <polyline class="cls-13" points="142.79 227.08 147.72 230.54 167.18 244.18"/>
      <polyline class="cls-13" points="138.86 218.46 138.86 224.32 142.79 227.07"/>
      <polyline class="cls-13" points="138.86 224.32 138.86 266.66 142.79 269.46 142.79 227.08 142.79 227.07"/>
      <line class="cls-13" x1="147.46" y1="236.52" x2="147.46" y2="230.91"/>
      <line class="cls-13" x1="142.79" y1="269.46" x2="145.63" y2="268.66"/>
      <polyline class="cls-13" points="320.29 351.58 320.29 396.46 315.92 392.91 315.92 371.79 315.92 366.42 315.92 348.51"/>
      <polyline class="cls-13" points="320.29 396.46 324.7 394.59 324.7 349.6"/>
      <polyline class="cls-13" points="466.09 286.28 466.09 331.17 461.03 334.08 461.03 288.54 461.03 288.54"/>
      <polyline class="cls-13" points="461.03 334.08 456.74 331.84 456.74 291.5"/>
      <path class="cls-13" d="m334.52,152.51c-.24,3.01.25,6.25,2.66,8.48,1.08,1,2.54,1.8,4.48,2.29,0,0,.38.14,1.05.29,1.75.39,5.44.84,9.07-1.07.42-.21.84-.47,1.26-.76.07-.04.14-.1.21-.15,1.16-.84,2.28-1.97,3.3-3.45.98-1.42,1.86-3.18,2.6-5.35,0,0,1.51-4.33.5-8.75-.86-3.72-3.49-7.5-10.34-8.81,0,0-5.1-.76-7.84.84,0,0-5.65.92-7.04,5.16,0,0-1.15,4.06,1.13,6.13h0"/>
      <path class="cls-13" d="m336.05,145.96c-.16.41-.32.86-.49,1.39-.14.46-.29.98-.44,1.59"/>
      <path class="cls-13" d="m336.05,145.96s4.21-.29,6.9-3.74c0,0-1.31,6.44,5.27,9.87,0,0,1.79-2.01,3.61-1.06s.51,4.75-2.85,4.95c0,0,.24,4.06,4.28,5.63"/>
      <polyline class="cls-13" points="335.07 149.11 333.05 150.18 334.55 152.11"/>
      <path class="cls-13" d="m336.5,153.48l3.85.45s-.26,3.21-2.77,3.51c0,0-1.08-1.25-1.08-3.95Z"/>
      <path class="cls-13" d="m359.65,144.04s2.99-2.18,4.86.54c1.88,2.72,3.34,9.36.73,15.71,0,0-1.03,2.6.06,3.99,0,0-4.19,1.38-8.96-1.37,0,0-.38-2.75.34-4.7"/>
      <path class="cls-13" d="m342.65,163.85s-.12,2.71.75,3.71c0,0,5.49-.53,8.52-4.78"/>
      <path class="cls-13" d="m331.97,199.55c.07-.1.15-.19.23-.29l1.53.16,13.55,1.44s4.02-20.38,9.72-24.32"/>
      <path class="cls-13" d="m353.21,162s5.2,4.13,8.59,9.18c1.59,2.36,2.79,4.94,2.87,7.37,0,0-3.41,17.5-7.62,27.13-.96,2.19-1.95,3.97-2.97,5.05-.13.14-.27.27-.42.39-5.94,4.9-23.96-5.56-23.96-5.56,0,0-.12-2.95,2.27-6.01"/>
      <polygon class="cls-13" points="290.12 222.17 277.48 213.52 304.37 201.76 324.7 213.23 321.97 214.7 298.09 227.63 290.12 222.17"/>
      <polyline class="cls-13" points="290.12 222.17 285.77 224.32 309.37 237.3 331.23 219.41 321.97 214.7"/>
      <polygon class="cls-13" points="222.52 197.96 219.12 195.15 241.43 187.14 264.88 202.23 258.87 204.49 239.28 211.84 222.52 197.96"/>
      <polyline class="cls-13" points="222.52 197.96 222.52 197.96 217.55 199.86 237.71 218.84 263.74 208.18 258.87 204.49"/>
      <polygon class="cls-13" points="266.72 195.79 292.43 188.39 309.81 199.73 282.05 208.96 266.72 195.79"/>
      <polygon class="cls-13" points="272.26 196.6 290.98 191.12 304.31 199.27 283.23 205.56 272.26 196.6"/>
      <polygon class="cls-13" points="279.22 197.01 277.59 197.41 278.73 198.33 280.26 197.91 279.22 197.01"/>
      <polygon class="cls-13" points="282.13 199.3 280.49 199.7 281.64 200.62 283.18 200.19 282.13 199.3"/>
      <polygon class="cls-13" points="285.13 201.51 283.5 201.91 284.64 202.83 286.18 202.41 285.13 201.51"/>
      <polygon class="cls-13" points="283.79 195.76 282.16 196.17 283.3 197.09 284.84 196.66 283.79 195.76"/>
      <polygon class="cls-13" points="286.71 198.04 285.07 198.45 286.22 199.37 287.75 198.95 286.71 198.04"/>
      <polygon class="cls-13" points="289.71 200.26 288.08 200.66 289.22 201.59 290.76 201.16 289.71 200.26"/>
      <path class="cls-13" d="m267.34,258.6s.73-.5,1.58-.65c.73-.12,1.54.02,2.02,1,.93,1.88-.67,5.13-3.81,5.84"/>
      <path class="cls-13" d="m238.58,253.14s-.33-.13-.76-.13c-.09,0-.17,0-.26.01-.71.07-1.57.54-1.77,2.28-.21,1.84.54,3.24,1.22,4.08.47.57.9.89.98.89"/>
      <polyline class="cls-13" points="257.8 271.88 257.69 272.61 257.36 274.94"/>
      <path class="cls-13" d="m280.02,316.55s-.79-2.32-1.94-5.64c-2.21-6.39-5.73-16.49-7.49-20.91-2.67-6.73-11.33-10.29-11.33-10.29l-.42-4.5c-.49-.08-1-.17-1.5-.27-2.85-.54-5.94-1.31-8.47-1.99-3.14-.83-5.44-1.54-5.44-1.54l-1.84,3.8s-5.57.18-8,3.04c-.71.84-1.41,2.47-2.04,4.34-.56,1.71-1.08,3.62-1.49,5.33-.67,2.8-1.09,5.08-1.09,5.08"/>
      <path class="cls-13" d="m278.09,310.91l9.28-12.5.3-.4.87.5,7.02,4.04.23.13s-2.38,11.5-7.41,19.77c-.99,1.62-2.08,3.12-3.27,4.37-1.77,1.88-3.78,3.23-6.02,3.7-.58.12-1.18.18-1.79.18-2.61-.01-4.96-1.21-7.06-3.1-8.1-7.31-12.36-25.07-12.69-25.67-.42-.76.53-13.57,6.76-15.91"/>
      <path class="cls-13" d="m243.24,275.98s5.08,2.39,13.69,3.55"/>
      <path class="cls-13" d="m255.91,361.45v-44.42c0-5.16-5.83-9.25-5.83-9.25l-21.1-14.78-2.2-1.54-6.79-4.75s-1.28-.88-2.55-.88c-1.17,0-2.32.75-2.44,3.6-.06,1.34-.1,4.31-.12,8.11,0,1.88,0,3.95,0,6.13,0,13.15.12,30.19.12,30.19,0,0-.45,4.07,2.05,7.86.21.32.45.65.71.97.51.62,1.61,1.66,3.1,2.97,8.2,7.17,28.34,22.53,28.34,22.53,0,0,1.15.79,3.1,1.26,1.01.25,2.22.41,3.6.33,1.65-.1,3.52-.54,5.53-1.59l27.97-13.97,1.69-.84s.75-.27,1.55-.81c1.56-1.06,3.32-3.15-.1-6.3"/>
      <path class="cls-13" d="m270.04,327.82l-.43,5.36-.68,8.5s-5.03,5.36-13.02,4.51"/>
      <path class="cls-13" d="m255.91,356.62s5.08,4.37,16.13-.57c7.62-3.4,16.01-7.53,20.49-9.78,2.03-1.01,3.26-1.64,3.26-1.64"/>
      <path class="cls-13" d="m304,340.48l5.1,25.31s-3.7,6.05-12.63,4.17c-.23-.04-.45-.1-.68-.15l-2.28-6.67"/>
      <polyline class="cls-13" points="270.04 333.21 279.19 330.93 287.37 328.89"/>
      <path class="cls-13" d="m296.47,369.96s-.1,1.96,0,3.96c0,0,.98,3.38,7.35,3.25,6.37-.12,12.09-4.87,12.09-5.37"/>
      <path class="cls-13" d="m309.1,365.78s4.29-2.49,6.82.64"/>
      <path class="cls-13" d="m252.22,369.8v30.79s1.7.9,3.7,0v-30.64"/>
      <path class="cls-13" d="m289.54,354.48v28.79s1.7.9,3.69,0v-30.64"/>
      <path class="cls-13" d="m412.13,310.47v20.83s1.7.9,3.7,0v-22.52"/>
      <path class="cls-13" d="m441.45,297.48v19.82s1.7.9,3.7,0v-21.47"/>
      <path class="cls-13" d="m216.91,341.82v34.79s1.7.89,3.69,0v-30.65"/>
      <path class="cls-13" d="m185.99,308.58v-43.5c0-4.08-5.69-7.54-5.69-7.54l-7.34-5.03-6.88-4.73-15.18-10.41s-1.92-1.29-3.36-.67c-.79.34-1.43,1.25-1.53,3.27-.15,3.37-.12,17.65-.08,28.71.04,7.57.08,13.63.08,13.63,0,0-.43,3.88,2,7.49.21.31.44.62.7.92.49.59,1.57,1.58,3.03,2.83,8.01,6.83,27.7,21.47,27.7,21.47,0,0,1.12.75,3.02,1.2.98.24,2.17.39,3.52.32,1.61-.09,3.44-.51,5.41-1.52l23.29-11.34"/>
      <path class="cls-13" d="m185.99,291.02c7.81.81,10.49-2.49,10.49-2.49l1.23-15.2.95-1.45"/>
      <path class="cls-13" d="m185.99,303.98s4.97,4.17,15.77-.54c4.35-1.89,8.96-4.03,12.92-5.9"/>
      <path class="cls-13" d="m182.38,316.55v29.35s1.67.86,3.61,0v-29.2"/>
      <path class="cls-13" d="m147.87,289.88v33.16s1.67.86,3.61,0v-29.2"/>
      <path class="cls-13" d="m288.55,298.51s-1.39-8.69.99-8.92c2.37-.23,2.37,5.1,2.37,5.1l8.06-6.16s2.06,1.06.76,3.35l-2.36,3.27s-.67,4.03-2.58,7"/>
      <polyline class="cls-13" points="287.37 298.41 273.56 290.73 285.77 263.34 306.54 274.09 299.97 288.53"/>
      <line class="cls-13" x1="287.75" y1="268.71" x2="297.24" y2="273.4"/>
      <line class="cls-13" x1="285.07" y1="274.11" x2="297.24" y2="280.17"/>
      <line class="cls-13" x1="283.74" y1="276.67" x2="292.08" y2="280.86"/>
      <path class="cls-13" d="m304.54,300.79l-4.91-4.18c.52-.15,28.86-12.11,28.86-12.11l16.49,13.01-3.61,1.61-25.45,11.35-11.38-9.68Z"/>
      <polyline class="cls-13" points="304.54 300.79 301.31 302.15 317.52 317.03 347.19 303.76 341.37 299.12"/>
      <path class="cls-13" d="m198.3,209.85c.1.23,1.9,4.28,1.5,8.28l1.45,1.71-1.55.93s-.54,5.9-5.52,8"/>
      <path class="cls-13" d="m198.3,209.83h0"/>
      <path class="cls-13" d="m195.6,221.52s.11,1.56,1.77,1.73"/>
      <path class="cls-13" d="m195.39,240.72c-.78-3.67-1.36-7.94-1.77-11.89-.72-6.9-.95-12.81-.95-12.81,3.64-1.42,5.07-4.23,5.64-6.18h0c.35-1.24.36-2.14.36-2.14,0,0-2.64-6.19-9.59-7.54-1.23-.25-2.6-.34-4.11-.21-4.59.38-8.22,2.02-10.67,5.61-2.92,4.25-4.19,11.23-3.5,22.06,0,0-.42,5.95-1.73,11.78-.38,1.7-.84,3.4-1.4,4.94-.46,1.29-.98,2.46-1.58,3.43"/>
      <path class="cls-13" d="m189.36,237.63s2.93.35,6.03,3.1c1.53,1.35,3.1,3.27,4.37,6.03.26.54.5,1.12.73,1.73.07.17.13.34.19.52.89,2.55,1.75,4.71,2.52,6.52,2.41,5.6,4.09,7.81,4.09,7.81l8.92-2.27,3.13-.8s.46.13,1.09.51c1.25.73,3.12,2.39,3.17,5.76.02.51-.02,1.08-.1,1.68l-7.89,3.12-5.93,2.34-2.14.85s-5.75,2.3-8.88-2.64c-3.12-4.94-9.3-17.55-9.3-17.55"/>
      <path class="cls-13" d="m207.54,274.52s3.55,1.87,6.62,5.01c1.66,1.69,3.18,3.75,3.93,6.08.02.07.04.14.07.21"/>
      <polyline class="cls-13" points="214.16 279.53 214.16 279.53 217.02 279.13"/>
      <line class="cls-13" x1="225.67" y1="285.21" x2="226.78" y2="291.46"/>
      <path class="cls-13" d="m189.36,234.76s-.1,1.09-.41,2.79c-.81,4.48-3.05,13.2-8.67,17.29,0,0,1.42-5.55,1.51-8.8,0,0-2.08,4.4-8.83,6.47"/>
      <path class="cls-13" d="m220.44,260.78s.96-1.45,3.07-2.64c1.82-1.04,4.5-1.9,8.16-1.49,0,0,.55.29.4.89-.03.12-.09.25-.18.4,0,0,1.74.02,1.26,1.39,0,0,1.58.02.95,1.46,0,0,1.14,1.07.15,1.91-.3.26-.67.42-1.1.55-.99.31-2.3.45-3.78,1.19,0,0-1.26,2.12-3.43,2.46-.69.11-1.47.04-2.33-.35"/>
      <path class="cls-13" d="m234.09,260.78s-4.27.38-5.85,1.39"/>
      <path class="cls-13" d="m233.15,259.32s-2.79-.2-6.01.95"/>
      <path class="cls-13" d="m232.07,257.53s-3.49-.11-5.84,1.31"/>
      <path class="cls-13" d="m203.21,255.53l3.28-.89,1.45-.39s.09-.45.07-1.12c-.04-1.55-.65-4.28-4.25-5.36l-3.26.71"/>
      <path class="cls-13" d="m215.08,252.77c.49-.29.98-.66,1.45-1.12,0,0,.1-.55-.34-.87-.42-.31-1.34-.41-3.35.43"/>
      <path class="cls-13" d="m208.01,253.13s3.54,1.77,7.07-.36"/>
      <path class="cls-13" d="m216.17,250.56h.02c.37-.01,4.69-.19,4.25-1.47-.16-.48-1.12-.68-2.28-.73-2.01-.1-4.61.24-4.61.24"/>
      <path class="cls-13" d="m218.16,248.34s.64-1.19-2.08-1.33c-.93-.05-2.26.03-4.15.32"/>
      <path class="cls-13" d="m216.1,246.89s-.01,0-.02,0c-.14,0-.46-.87-3.01-.98-.96-.05-2.24.02-3.94.27"/>
      <path class="cls-13" d="m213.08,245.9s-.42-.1-1.17-.15c-1.58-.1-4.62.06-8.15,2.02"/>
      <polyline class="cls-13" points="225.96 267.02 228.62 268.71 238.83 265.05 244.94 262.86"/>
      <line class="cls-13" x1="206.49" y1="254.64" x2="216.14" y2="260.78"/>
      <polyline class="cls-13" points="199.76 246.75 220.47 239.4 238.71 250.22 249.03 256.34"/>
      <polyline class="cls-13" points="220.47 239.4 225.22 217.36 256.75 235.39 255.36 241.92 252.91 253.41"/>
      <polyline class="cls-13" points="211.93 245.25 220.03 242.28 237.61 252.87 237.83 253.01 242 255.53"/>
      <polyline class="cls-13" points="215.07 252.77 215.08 252.77 223.39 257.93"/>
      <polyline class="cls-13" points="233.15 263.24 234.39 263.79 237.76 262.64 243.24 260.78"/>
      <polyline class="cls-13" points="251.33 247.67 252.54 241.74 253.62 236.52 226.78 221.52 223.39 238.27 239.98 248.23 243.24 250.19"/>
      <path class="cls-13" d="m220.58,81.44c.51,0,7.86,17.48-5.07,21.42-1.02.32-2.17.54-3.45.67,0,0-4.8.53-9.24-1.36-2.67-1.13-5.21-3.13-6.5-6.64,0,0-3.82-.1-3.78-4.32.02-1.65.6-2.41,1.34-2.65,1.15-.38,2.65.5,2.93,1.23,0,0,7.57,0,8.44-8.95,0,0,7.57,3.49,15.33.6"/>
      <path class="cls-13" d="m193.87,88.57s-2.49-8.45,1.78-11.39c0,0,1.1-11.15,23.36-3.58,0,0,3.15.18,4.1-1.01,0,0,2.23,5.31-2.54,8.86h0"/>
      <path class="cls-13" d="m213.4,89.95c.11.07,1.91,1.91,1.91,1.91l-1.34,1.16"/>
      <path class="cls-13" d="m216.67,95.08l-7.11.8s-.39,4.34,4.29,3.6c0,0,2.95-.23,2.82-4.4Z"/>
      <path class="cls-13" d="m202.81,102.19l-.21,2.46-.05.59s3.1,3.57,9.5,3.85c.27.02.55.02.83.02,0,0,.39-.2.91-.6.72-.56,1.68-1.51,2.11-2.86l-.15-1.02-.26-1.77"/>
      <path class="cls-13" d="m202.21,104.61l-.97,3.31s1.87,4.34,7.15,6.51l1.68-2.43,1.99-2.88"/>
      <path class="cls-13" d="m213.8,108.52l2.11,2.64,1.68,2.11s.67-2.38-.31-6.54l-1.37-2.12"/>
      <path class="cls-13" d="m210.07,112c-.06.09,2.41,3.81,2.41,3.81l2.83-.42.6-4.23"/>
      <polyline class="cls-13" points="215.3 115.39 221.19 158.69 218.25 163.98 212.42 159.71 212.48 115.81"/>
      <path class="cls-13" d="m201.24,107.93s-8.97,4.7-13.05,7.89c-4.09,3.19-10.34,25.74-8.36,36.14,1.27,6.66,6.71,10.08,11.24,9.19,2.55-.5,4.81-2.37,5.89-5.79,3.01-9.5,2.59-18.55,2.59-18.55l-8.08-2.44-.7-.21-6.98,12.45"/>
      <path class="cls-13" d="m193.34,122.87c.53,1.19.78,3.34.78,3.34,0,0,7.43-3.63,10.05-2.55,0,0,1.47.97.22,2.22,0,0,2.9-.1,2.26,2.08,0,0,1.9.99.86,2.75,0,0,1.51,1.09-.16,2.81-1.66,1.72-7.81,3.29-7.81,3.29"/>
      <path class="cls-13" d="m191.56,134.03s-1.28-8.01.26-11.09c.64-1.28,1.14-.93,1.51-.09"/>
      <path class="cls-13" d="m204.39,125.87s-3.53,1.51-5.41,2.03"/>
      <path class="cls-13" d="m206.65,127.95s-3.4,1.88-6.21,2.6"/>
      <path class="cls-13" d="m207.51,130.7s-2.91,1.72-5.82,2.44"/>
      <path class="cls-13" d="m190.34,118.73s2.29,1.34,2.99,4.12t0,.01"/>
      <path class="cls-13" d="m217.28,106.73s6.87,1.5,10.06,3.87c0,0,2.78,4.73,3.4,6.9"/>
      <polyline class="cls-13" points="246.18 138.54 246.18 140.93 246.18 144.97 229.1 150.32 225.18 151.55 224.02 120.28 226.97 119.37 230.94 118.16 246.18 113.49 246.18 126.39"/>
      <path class="cls-13" d="m246.18,140.93s3.37-.2,4.81-3.32c2.96-6.43.44-11.22-4.81-10.98,0,0-1.53,1.2-.51,2.34,0,0-2.03.68-1.26,2.22,0,0-1.73,1.01-.83,2.5,0,0-.09.07-.21.18-.49.48-1.55,1.78-.05,2.92,1.87,1.44,2.53,1.56,2.53,1.56"/>
      <path class="cls-13" d="m243.37,133.87s2.96,1.01,4.1,2.03"/>
      <path class="cls-13" d="m244.41,131.19s2.61.59,4.28,1.96"/>
      <path class="cls-13" d="m245.66,128.97s2.29.54,3.96,1.58"/>
      <path class="cls-13" d="m225.19,113.27s1.28,3.31,1.77,6.1"/>
      <path class="cls-13" d="m229.1,150.32s-.26,8.2-.86,13.65c0,0-.23.22-.7.58-2.8,2.16-14.06,9.46-34.4,5.5-.2-.04-.41-.08-.62-.12,0,0-1.35-4.6-1.47-8.8h0"/>
      <line class="cls-13" x1="227.55" y1="164.56" x2="227.14" y2="185.86"/>
      <line class="cls-13" x1="193.15" y1="170.06" x2="195.15" y2="197.67"/>
      <path class="cls-13" d="m396.19,317.58l-.73,6.18s4.04,7.85,14.22,0l2.45-11.22"/>
      <path class="cls-13" d="m395.46,323.76s-7.65,2.92-5.46,6.99c2.19,4.07,8.86,5.53,19.68-2.01v-4.98"/>
      <path class="cls-13" d="m411.31,184.18s-5.11,16.13,5.5,20.37c.2.08.4.15.62.23.25.09.51.16.78.23,1.12.31,2.39.49,3.83.54,0,0,4.11.24,8.12-2.36.23-.15.46-.31.69-.48.57-.43,1.14-.92,1.69-1.47,2.19-2.24,4.07-5.64,4.81-10.8,0,0,1.45-8.22-2.11-10.68,0,0-2.71-8.61-18.59-4.87,0,0-.92-2.83-4.51-2.44-3.59.38-4.2,3.44-4.05,6.11.08,1.38.65,3.73,3.38,5.3,2.57,1.48,7.06,2.27,14.88.89,0,0-.61,4.81,2.44,7.41,0,0,1.37-2.22,3.51-1.61s1.53,3.67,1.53,3.67c0,0-.53,2.98-3.74,3.52,0,0,1.45,2.6,2.44,3.51"/>
      <polyline class="cls-13" points="416.73 192.47 414.99 194.82 416.73 196.1"/>
      <path class="cls-13" d="m414.69,197.7s.6,1.38,2.3,1.53c1.69.16,2.81-.49,3.19-1.15"/>
      <path class="cls-13" d="m418.2,205.01s-.03.18-.08.5c-.13.88-.43,2.85-.76,5.39-.03.2-.05.4-.08.6-.22,1.72-.46,3.65-.67,5.66-.38,3.52-.69,7.28-.76,10.46,0,0,2.84-4.14,6.32-9.02,1.05-1.48,2.16-3.02,3.27-4.54,2.24-3.08,4.48-6.07,6.19-8.16l-.79-3.19"/>
      <path class="cls-13" d="m418.46,205.56s.55,1.57,1.54,2.66c.26.29.54.54.86.72,0,0,.11.02.32.02,1.03,0,4.49-.45,8.98-5.77"/>
      <line class="cls-13" x1="423.75" y1="210.73" x2="425.45" y2="214.07"/>
      <line class="cls-13" x1="422.85" y1="208.96" x2="423.75" y2="210.73"/>
      <polyline class="cls-13" points="417.29 211.51 418.8 209.68 419.99 208.22"/>
      <polyline class="cls-13" points="419.02 209.86 419.34 212.94 416.62 217.17"/>
      <polyline class="cls-13" points="421.97 218.46 421.34 213.52 423.75 210.73 423.75 210.73"/>
      <line class="cls-13" x1="419.34" y1="212.94" x2="421.34" y2="213.52"/>
      <path class="cls-13" d="m442.68,233.84c-1.22,5.08-3.28,10.74-6.73,16.09,0,0-2.51,2.91-7.44,6.19-3.76,2.5-8.93,5.22-15.47,6.99-.12.04-.25.07-.37.1l-1.01-.84-5.49-4.61-.1-.09,11.21-8.04,8.61-6.18s4.39-20.26,11.26-24.99"/>
      <path class="cls-13" d="m435.08,208.58c2.94,2.35,7.02,5.83,9.27,8.59,0,0,.57,7.36-1.66,16.65"/>
      <path class="cls-13" d="m431.64,205.91s.83.61,2.09,1.6c.41.32.86.67,1.34,1.06"/>
      <polyline class="cls-13" points="433.73 207.51 433.4 212.94 428.76 213.52 430.84 218.46 417.43 228.59"/>
      <polyline class="cls-13" points="417.43 204.78 413.68 207.9 415.55 210.73 411.83 212.94 414.06 227.63"/>
      <path class="cls-13" d="m416.73,204.78s-4.9.02-9.85,1.29c0,0-9.19,15.33-12.47,24.68l-4.21,2.57-12.01,7.33,4.87,4.08,1.2,1s9.06-3.01,17.21-7.4"/>
      <path class="cls-13" d="m407.67,211.51s-4.14,14.29-5.97,26.85c-.09.54-.16,1.08-.23,1.61"/>
      <path class="cls-13" d="m442.69,233.82s0,.01,0,.02c-.12.79-2.36,19.34-4.33,27.83"/>
      <polyline class="cls-13" points="391.72 269.54 392.61 274.72 392.73 275.44 363.46 256.26 358.57 232 373.7 241.08 382.54 246.38 385.63 248.24 388.35 249.86 389.59 257.09 391.72 269.54"/>
      <polyline class="cls-13" points="404.57 257.91 387.97 247.74 385.63 248.24"/>
      <polyline class="cls-13" points="393.04 275.44 394.24 276.13 417.43 267.49 417.43 265.8 413.05 263.11 412.26 262.63"/>
      <path class="cls-13" d="m406.07,257.88s-.57.08-1.44.27c-1.99.46-5.5,1.56-7.18,3.83-.2.26-.37.54-.51.84,0,0-.75,1.72.51,2.11,0,0-.07,1.81,1.36,1.86,0,0,.39,1.28,1.86.98,0,0,.27.47.79.67.37.15.87.16,1.51-.23,1.52-.93,3.78-2.16,3.78-2.16,0,0,3.63-.55,4.7-3.44"/>
      <path class="cls-13" d="m400.67,267.78s1.27-2.3,3.9-3.43"/>
      <path class="cls-13" d="m398.81,266.8s.93-2.6,4.02-3.92"/>
      <path class="cls-13" d="m397.45,264.94s.74-2.21,4.01-3.53"/>
      <path class="cls-13" d="m383.06,244.74s.12.81-.53,1.64"/>
      <path class="cls-13" d="m378.19,240.66s-2.41-.05-4.48.42"/>
      <line class="cls-13" x1="389.65" y1="257.08" x2="397.45" y2="261.99"/>
      <path class="cls-13" d="m417.43,265.8c-.26-.16-24.13,8.81-24.13,8.81"/>
      <polyline class="cls-13" points="391.72 269.54 391.72 269.54 394.22 271.17 401.47 268.45"/>
      <path class="cls-13" d="m435.07,208.57h0s17.99,9.9,17.99,9.9c0,0,1.69.53,1.3,4.31-.39,3.78-6.73,45.01-6.73,45.01"/>
      <path class="cls-13" d="m361.95,171.08l9.83,5.41s1.69.53,1.3,4.3c-.39,3.78-5.75,38.62-5.75,38.62"/>
      <path class="cls-13" d="m331.98,199.55h0s0,0,0,0c-.26-.14-4.42-2.42-6.96-2.53-2.63-.12-7.11.98-6.53,2.54,0,0-1.51,1.43-.64,2.19,0,0-.93,1.17,0,1.86,0,0-.7,1.4.93,1.81s4.61,0,4.61,0c0,0,2.74,2.39,6.32.15"/>
      <path class="cls-13" d="m318.48,199.55s3.09-.67,4.72-.56"/>
      <path class="cls-13" d="m317.84,201.74s3.15-.59,5.07-.41"/>
      <path class="cls-13" d="m317.84,203.6s2.8-.41,5.07-.23"/>
      <line class="cls-13" x1="330.49" y1="187.23" x2="330.13" y2="197.01"/>
      <path class="cls-13" d="m333.13,170.16s-6.45,4.81-2.5,13.47l-.13,3.59"/>
      <path class="cls-13" d="m357,205.56s.02.04.05.12c.32.78,2,5.14,1.39,8.38h0"/>
      <path class="cls-13" d="m336.95,161.33s-5.08.68-7.25,5.19c-2.17,4.5-9.33,17.07-9.33,17.07l-12.3-17.07-.38.24-4.75,3.1-.47.31,7.04,14.42"/>
      <path class="cls-13" d="m330.5,187.21h0c-.15.25-2.64,4.09-5.8,6.52"/>
      <path class="cls-13" d="m299.61,160.58s-.01,0-.04,0c-1.78-.41-6.15-2.51-5.27-3.38s9.83,2.14,9.83,2.14c0,0-.88-4.12.77-4.45s1.59,10.05,1.59,10.05l1.2,1.83"/>
      <path class="cls-13" d="m302.94,169.86l-1.5-1.77c-10.49-.73-9.68-4.36-9.68-4.36-.82-.99.66-1.97.66-1.97-.55-.22-.38-.97-.38-.97.21-1.5,6.99-.31,7.53-.21"/>
      <line class="cls-13" x1="291.77" y1="163.73" x2="298.09" y2="164.88"/>
      <line class="cls-13" x1="292.43" y1="161.75" x2="298.75" y2="162.36"/>
      <path class="cls-13" d="m299.86,160.29s-.05.1-.14.31c-.15.35-.41,1-.65,1.86-.2.7-.38,1.53-.49,2.48-.04.26-.06.52-.08.79"/>
    </g>
  </g>
</svg>