<?xml version="1.0" encoding="UTF-8"?>
<svg id="_레이어_1" data-name="레이어 1" xmlns="http://www.w3.org/2000/svg" viewBox="0 0 748 478">
  <defs>
    <style>
      .cls-1 {
        stroke-width: 6px;
      }

      .cls-1, .cls-2 {
        fill: none;
        stroke: #313131;
        stroke-miterlimit: 10;
      }

      .cls-3 {
        fill: #313131;
      }

      .cls-2 {
        stroke-width: 3.6px;
      }
    </style>
  </defs>
  <polygon class="cls-1" points="469 3 3 3 3 290 114.5 290 114.5 475 598 475 745 475 745 186 598 186 598 128 469 128 469 3"/>
  <line class="cls-1" x1="598" y1="300.22" x2="598" y2="186"/>
  <line class="cls-1" x1="429" y1="475" x2="429" y2="297"/>
  <line class="cls-1" x1="595" y1="358" x2="745" y2="358"/>
  <line class="cls-1" x1="598" y1="475" x2="598" y2="407"/>
  <g>
    <g>
      <rect class="cls-2" x="649.95" y="235.69" width="47.51" height="48.31"/>
      <polyline class="cls-2" points="655.05 230.71 662.88 222.88 670.71 230.71"/>
      <polyline class="cls-2" points="676.29 222.88 684.12 230.71 691.95 222.88"/>
    </g>
    <g>
      <path class="cls-2" d="m665.69,247.61c0,1.99-1.61,3.59-3.59,3.59s-3.59-1.61-3.59-3.59,1.61-3.59,3.59-3.59,3.59,1.61,3.59,3.59Z"/>
      <line class="cls-2" x1="659.93" y1="279.93" x2="659.93" y2="268.87"/>
      <line class="cls-2" x1="664.26" y1="279.93" x2="664.26" y2="268.87"/>
      <path class="cls-2" d="m666.72,259.15c0-2.54-2.08-4.62-4.62-4.62s-4.62,2.08-4.62,4.62v9.72h9.25v-9.72Z"/>
      <g>
        <line class="cls-2" x1="680.76" y1="270" x2="680.76" y2="279.93"/>
        <line class="cls-2" x1="685" y1="270" x2="685" y2="279.93"/>
        <path class="cls-2" d="m687.15,263.48v-4.03c0-2.54-2.08-4.62-4.62-4.62s-4.62,2.08-4.62,4.62v4.03c-2.78.87-3.52,3.47-3.52,6.52h16.24c0-3.05-.7-5.66-3.48-6.52Z"/>
      </g>
      <path class="cls-2" d="m686.12,247.61c0,1.99-1.61,3.59-3.59,3.59s-3.59-1.61-3.59-3.59,1.61-3.59,3.59-3.59,3.59,1.61,3.59,3.59Z"/>
    </g>
  </g>
  <g id="arrow-with-circle-left">
    <path id="_패스_155" data-name="패스 155" class="cls-3" d="m598.07,308.88c-10.25,0-18.56,8.31-18.56,18.56,0,10.25,8.31,18.56,18.56,18.56,10.25,0,18.56-8.31,18.56-18.56h0c0-10.25-8.31-18.56-18.56-18.56h0Zm0,32.49c-7.7,0-13.94-6.24-13.94-13.93,0-7.7,6.24-13.94,13.93-13.94,7.7,0,13.94,6.24,13.94,13.93h0c0,7.7-6.24,13.94-13.93,13.94Zm0-21.37l-8.7,7.44,8.7,7.44v-4.13h7.73v-6.61h-7.73v-4.13Z"/>
  </g>
</svg>