<?xml version="1.0" encoding="UTF-8"?>
<svg id="_레이어_1" data-name="레이어 1" xmlns="http://www.w3.org/2000/svg" viewBox="0 0 749 479">
  <defs>
    <style>
      .cls-1 {
        fill: #313131;
      }

      .cls-2 {
        stroke-width: 3.6px;
      }

      .cls-2, .cls-3 {
        fill: none;
        stroke: #313131;
        stroke-miterlimit: 10;
      }

      .cls-3 {
        stroke-width: 7px;
      }
    </style>
  </defs>
  <polygon class="cls-3" points="469.5 3.5 3.5 3.5 3.5 290.5 115 290.5 115 475.5 598.5 475.5 745.5 475.5 745.5 186.5 598.5 186.5 598.5 128.5 469.5 128.5 469.5 3.5"/>
  <line class="cls-3" x1="598.5" y1="311.72" x2="598.5" y2="186.5"/>
  <line class="cls-3" x1="429.5" y1="475.5" x2="429.5" y2="297.5"/>
  <line class="cls-3" x1="598.5" y1="475.5" x2="598.5" y2="399.3"/>
  <g>
    <g>
      <rect class="cls-2" x="646.42" y="233.18" width="55.57" height="56.5"/>
      <polyline class="cls-2" points="652.38 227.36 661.54 218.19 670.71 227.36"/>
      <polyline class="cls-2" points="677.23 218.19 686.39 227.36 695.55 218.19"/>
    </g>
    <g>
      <path class="cls-2" d="m664.83,247.12c0,2.32-1.88,4.2-4.2,4.2s-4.2-1.88-4.2-4.2,1.88-4.2,4.2-4.2,4.2,1.88,4.2,4.2Z"/>
      <line class="cls-2" x1="658.1" y1="284.92" x2="658.1" y2="271.99"/>
      <line class="cls-2" x1="663.15" y1="284.92" x2="663.15" y2="271.99"/>
      <path class="cls-2" d="m666.03,260.62c0-2.97-2.43-5.41-5.41-5.41s-5.41,2.43-5.41,5.41v11.36h10.81v-11.36Z"/>
      <g>
        <line class="cls-2" x1="682.45" y1="273.31" x2="682.45" y2="284.92"/>
        <line class="cls-2" x1="686.59" y1="273.31" x2="686.59" y2="284.92"/>
        <path class="cls-2" d="m689.93,265.68v-4.71c0-2.97-2.43-5.41-5.41-5.41s-5.41,2.43-5.41,5.41v4.71c-3.25,1.01-4.11,4.06-4.11,7.63h19c0-3.57-.82-6.62-4.07-7.63Z"/>
      </g>
      <path class="cls-2" d="m688.73,247.12c0,2.32-1.88,4.2-4.2,4.2s-4.2-1.88-4.2-4.2,1.88-4.2,4.2-4.2,4.2,1.88,4.2,4.2Z"/>
    </g>
  </g>
  <g id="arrow-with-circle-left">
    <path id="_패스_155" data-name="패스 155" class="cls-1" d="m598.57,320.38c-10.25,0-18.56,8.31-18.56,18.56,0,10.25,8.31,18.56,18.56,18.56,10.25,0,18.56-8.31,18.56-18.56h0c0-10.25-8.31-18.56-18.56-18.56h0Zm0,32.49c-7.7,0-13.94-6.24-13.94-13.93,0-7.7,6.24-13.94,13.93-13.94,7.7,0,13.94,6.24,13.94,13.93h0c0,7.7-6.24,13.94-13.93,13.94Zm0-21.37l-8.7,7.44,8.7,7.44v-4.13h7.73v-6.61h-7.73v-4.13Z"/>
  </g>
</svg>