<?xml version="1.0" encoding="UTF-8"?>
<svg id="_레이어_1" xmlns="http://www.w3.org/2000/svg" xmlns:xlink="http://www.w3.org/1999/xlink" version="1.1" viewBox="0 0 52 52">
  <!-- Generator: Adobe Illustrator 29.2.0, SVG Export Plug-In . SVG Version: 2.1.0 Build 108)  -->
  <defs>
    <style>
      .st0 {
        fill: url(#_무제_그라디언트);
      }

      .st1 {
        fill: #fff;
      }
    </style>
    <linearGradient id="_무제_그라디언트" data-name="무제 그라디언트" x1="-1.5" y1="46.6" x2="49" y2="-.8" gradientTransform="translate(0 53) scale(1 -1)" gradientUnits="userSpaceOnUse">
      <stop offset="0" stop-color="#1f78fd"/>
      <stop offset=".2" stop-color="#1e6efd"/>
      <stop offset=".5" stop-color="#1d55fe"/>
      <stop offset=".5" stop-color="#1d54ff"/>
      <stop offset="1" stop-color="#1349c0"/>
    </linearGradient>
  </defs>
  <path class="st0" d="M26.3,0h-1.1C11.3,0,0,11.8,0,26v21.9c0,2.3,1.5,4.1,4,4.1h22.1c13.9,0,25.7-11.3,25.9-25.5.2-14.5-11.3-26.5-25.4-26.5h-.2Z"/>
  <path class="st1" d="M26.8,18.5c-2,0-4,.5-5.8,1.6h-.2c-.4.5-.7.7-1.1.9v-10.6h-5.5v20.3c0,7.2,4.9,12.2,12.2,12.2s12.2-5.2,12.2-12.2-4.9-12.2-11.7-12.2ZM33,30.7c0,4.1-2.7,6.8-6.6,6.8s-6.6-2.7-6.6-6.8,2.7-6.8,6.6-6.8,6.6,2.7,6.6,6.8Z"/>
</svg>