<?xml version="1.0" encoding="UTF-8"?>
<svg id="_레이어_1" data-name="레이어_1" xmlns="http://www.w3.org/2000/svg" xmlns:xlink="http://www.w3.org/1999/xlink" version="1.1" viewBox="0 0 51 51">
  <!-- Generator: Adobe Illustrator 29.4.0, SVG Export Plug-In . SVG Version: 2.1.0 Build 152)  -->
  <defs>
    <style>
      .st0 {
        fill: none;
      }

      .st1 {
        clip-path: url(#clippath-1);
      }

      .st2 {
        fill: #efbc62;
      }

      .st3 {
        fill: #151f1e;
      }

      .st4 {
        fill: #fff;
      }

      .st5 {
        fill: #1b1c1e;
      }

      .st6 {
        clip-path: url(#clippath);
      }
    </style>
    <clipPath id="clippath">
      <rect class="st0" width="51" height="51"/>
    </clipPath>
    <clipPath id="clippath-1">
      <rect class="st0" width="51" height="51"/>
    </clipPath>
  </defs>
  <rect class="st5" width="51" height="51" rx="13.7" ry="13.7"/>
  <g class="st6">
    <g>
      <g>
        <g>
          <path class="st4" d="M33,25.9c.5,0,.7,0,.8-.2,0,0,.2-.1.3-.5,0,0,0-.2,0-.2.3-.9.4-1.2-.3-4.5-.7-3,0-8.8.6-11.7.4-2.2.8-3.4,1-3.7,0,0,0-.2,0-.3-.2-.6-.4-1.1-.6-1.3-.9-.9-1.3.2-1.3.2,0,0-.7,2-1.2,6.2-.4,4.1-.8,6.6.2,11,.5,2,.5,3.7.3,5Z"/>
          <path class="st4" d="M34.3,26.6c0,0-.1,0-.2,0,0,0,.2,0,.2,0,0,0,.1,0,.2,0,0,0-.1,0-.2,0Z"/>
          <path class="st4" d="M35.1,25.6c0,.2-.1.4-.3.6.1-.2.2-.4.3-.6Z"/>
        </g>
        <path class="st4" d="M21.1,70.7s.6-4.2.7-4.4c.2-1.1,1.1-5.2,3.2-8,2.6-3.3,3-9,3-9,0,0,.6-3-3.2-4.7s-8.2-5.4-4.7-9.9c3.5-4.6,8.4-6.6,8.4-6.6,0,0,1.9-1.2,4.3-1.2s1.2-.1,1.5-.3c.4-.2.7-.7.8-1,.4-1.3.7-1.5-.2-5.3-.6-2.6,0-8,.6-11.3s1-3.6,1-3.6c0,0,.4-2.5,2.2-3.2s2,1.3,2,1.3c0,0,1.4,4.8,1.4,12s-1,7-2.1,11.7c0,0-.6,1.5.7,2.5s2.1,2.5,3,6.2c.9,3.7.4,11.5,2.6,15.6,2.2,4.1,5.2,11.2,5.5,16.3.2,5.1-30.6,3-30.6,3Z"/>
      </g>
      <path class="st3" d="M30.8,34.3c0,.7-.6,1.2-1.2,1.2s-1.1-.5-1.1-1.2.3-1.3,1-1.3,1.3.5,1.3,1.2Z"/>
    </g>
  </g>
  <g class="st1">
    <circle class="st2" cx="13.1" cy="13.1" r="10.7"/>
  </g>
</svg>