<?xml version="1.0" encoding="UTF-8"?>
<svg id="_레이어_1" data-name="레이어_1" xmlns="http://www.w3.org/2000/svg" xmlns:xlink="http://www.w3.org/1999/xlink" version="1.1" viewBox="0 0 24 24">
  <!-- Generator: Adobe Illustrator 29.1.0, SVG Export Plug-In . SVG Version: 2.1.0 Build 142)  -->
  <defs>
    <style>
      .st0 {
        fill: #fff;
      }

      .st1 {
        fill: url(#_무제_그라디언트_20);
      }
    </style>
    <linearGradient id="_무제_그라디언트_20" data-name="무제 그라디언트 20" x1="-.4" y1="3.5" x2="22.2" y2="24.7" gradientUnits="userSpaceOnUse">
      <stop offset="0" stop-color="#1f78fd"/>
      <stop offset=".2" stop-color="#1e6efd"/>
      <stop offset=".5" stop-color="#1d55fe"/>
      <stop offset=".5" stop-color="#1d54ff"/>
      <stop offset="1" stop-color="#1349c0"/>
    </linearGradient>
  </defs>
  <path class="st1" d="M12.1.7h-.5C5.3.7.2,5.9.2,12.2v9.7c0,1,.7,1.8,1.8,1.8h10c6.3,0,11.6-5,11.7-11.3.1-6.4-5.1-11.7-11.5-11.7Z"/>
  <path class="st0" d="M12.3,8.9c-.9,0-1.8.2-2.6.7h-.1c-.2.2-.3.3-.5.4v-4.7h-2.5v9c0,3.2,2.2,5.4,5.5,5.4s5.5-2.3,5.5-5.4-2.2-5.4-5.3-5.4ZM15.1,14.3c0,1.8-1.2,3-3,3s-3-1.2-3-3,1.2-3,3-3,3,1.2,3,3Z"/>
</svg>