<?xml version="1.0" encoding="utf-8"?>
<!-- Generator: Adobe Illustrator 27.8.1, SVG Export Plug-In . SVG Version: 6.00 Build 0)  -->
<svg version="1.1" id="레이어_1" xmlns="http://www.w3.org/2000/svg" xmlns:xlink="http://www.w3.org/1999/xlink" x="0px"
	 y="0px" viewBox="0 0 22.5 13.5" style="enable-background:new 0 0 22.5 13.5;" xml:space="preserve">
<style type="text/css">
	.st0{fill:#414141;}
</style>
<path id="arrow-down-b" class="st0" d="M0.2,1.7l0.1,0.1l9.6,11c0.3,0.4,0.8,0.6,1.4,0.6c0.5,0,1-0.2,1.4-0.6l9.6-11l0.2-0.2
	c0.1-0.2,0.2-0.4,0.2-0.6C22.5,0.5,22,0,21.3,0c0,0,0,0,0,0H1.2C0.5,0,0,0.5,0,1.1c0,0,0,0,0,0C0,1.3,0.1,1.6,0.2,1.7L0.2,1.7z"/>
</svg>
